<?xml version="1.0" standalone="no"?> <!DOCTYPE svg PUBLIC "-//W3C//DTD SVG 1.0//EN" "http://www.w3.org/TR/2001/REC-SVG-20010904/DTD/svg10.dtd" > <svg xmlns="http://www.w3.org/2000/svg" width="100%" height="100%">
<defs >
<font id="Fontin-Italic" horiz-adv-x="870" ><font-face
    font-family="Fontin"
    units-per-em="2048"
    panose-1="2 0 5 3 0 0 0 0 0 0"
    ascent="1798"
    descent="-549"
    alphabetic="0" />
<missing-glyph horiz-adv-x="1000" />
<glyph unicode=" " glyph-name="space" horiz-adv-x="552" />
<glyph unicode="!" glyph-name="exclam" horiz-adv-x="567" d="M219 311L162 324L283 1311Q288 1365 283 1397T269 1442L260 1454L270 1501L291 1512Q312 1524 347 1535T410 1546Q463 1546 494 1535T536 1497T546 1441T531 1362T499 1269T459 1157T420 1034L219
311ZM254 84Q254 38 222 6T145 -27Q99 -27 67 5T35 84Q35 128 67 160T145 193T222 161T254 84Z" />
<glyph unicode="&quot;" glyph-name="quotedbl" horiz-adv-x="786" d="M285 1554H391L336 1389Q314 1323 278 1264T183 1158T57 1112Q20 1112 14 1118Q62 1154 97 1213T151 1328T188 1437T229 1522T285 1554ZM612 1554H719L664 1389Q648 1341 623 1295T563 1207T482
1138T385 1112Q348 1112 342 1118Q390 1154 425 1213T479 1328T516 1437T557 1522T612 1554Z" />
<glyph unicode="#" glyph-name="numbersign" horiz-adv-x="1441" d="M147 782L186 913Q186 909 487 905Q554 1153 565 1210Q573 1250 574 1287T573 1337Q629 1376 670 1376Q714 1376 720 1333T711 1233Q695 1166 614 905H885Q936 1095 963 1210Q971 1253 971 1337Q1027
1376 1067 1376Q1083 1376 1094 1371T1110 1355T1117 1334T1119 1304T1115 1271T1108 1233Q1099 1189 1012 905H1110Q1164 905 1212 905T1297 906T1360 911T1397 922Q1386 891 1369 868T1332 830T1287 805T1236 791T1182 784T1125 782T1067 782H973Q965 756 938
663T893 518H997Q1051 518 1099 518T1185 519T1249 524T1286 535Q1275 504 1258 481T1221 443T1175 418T1124 404T1069 397T1012 395T954 395H856Q790 176 752 16L606 -14Q696 266 733 395H459Q397 189 354 16L209 -14Q304 288 336 397H72Q43 397 35 395L76 526Q75
524 119 523T220 520T375 518L453 784H184Q156 784 147 782ZM770 518L850 782H578L496 518H770Z" />
<glyph unicode="$" glyph-name="dollar" horiz-adv-x="937" d="M385 -217H285Q306 -101 324 -27Q200 -26 131 22T61 137Q61 186 102 227Q105 182 177 146T344 109H350Q445 585 446 592Q426 608 406 623T365 656T325 689T289 724T257 762T230 803T209 847T195 895T190
948Q190 1039 238 1131T381 1292T594 1374Q599 1403 604 1451T612 1516Q664 1526 672 1526Q713 1526 713 1483Q713 1462 692 1376Q802 1370 874 1327T946 1210Q946 1161 909 1102Q909 1157 839 1197T664 1243L567 793Q619 758 649 736T722 674T790 600T832 517T850
416Q850 255 728 133T420 -18L385 -217ZM637 305Q641 329 641 340Q641 394 610 439T520 535Q502 447 442 119Q516 137 569 183T637 305ZM367 1067Q365 1059 365 1038Q365 936 492 844Q501 890 531 1037T571 1239Q491 1228 436 1186T367 1067Z" />
<glyph unicode="%" glyph-name="percent" horiz-adv-x="1605" d="M391 0H246Q772 751 957 1026T1147 1350Q1187 1380 1229 1380Q1290 1380 1290 1339Q1290 1307 1251 1248T1194 1169Q1192 1166 1009 907T638 375T391 0ZM1247 662Q1069 662 944 533T819 211Q819
95 878 36T1036 -23Q1155 -23 1256 40T1415 206T1473 426Q1473 540 1412 601T1247 662ZM1102 59Q1034 59 1000 108T965 246Q965 393 1028 485T1182 578Q1253 578 1292 529T1331 391Q1331 247 1261 153T1102 59ZM547 1378Q368 1378 244 1249T119 928Q119 812 178
753T336 694Q455 694 556 757T714 923T772 1143Q772 1256 711 1317T547 1378ZM401 776Q333 776 299 825T264 963Q264 1110 327 1202T481 1294Q553 1294 592 1245T631 1108Q631 964 561 870T401 776Z" />
<glyph unicode="&amp;" glyph-name="ampersand" horiz-adv-x="1384" d="M786 512Q809 586 879 647T1014 709Q1053 709 1074 686T1096 600Q1096 511 1065 432T983 297T872 202T750 142T637 123Q484 123 403 213T322 438Q322 526 354 612T453 771T608 883L604 909Q547
975 547 1104Q547 1187 578 1263T674 1389T819 1440Q852 1440 880 1434T935 1413T979 1368T995 1296Q995 1292 994 1285T993 1274Q1018 1260 1053 1260Q1102 1260 1141 1295T1180 1384T1126 1475T1003 1530T866 1546Q738 1546 622 1497T430 1350T354 1128Q354 1061
387 996T477 887Q401 857 337 812T218 705T133 557T102 375Q102 201 221 87T514 -27Q691 -27 838 51T1079 269T1194 586Q1213 740 1229 788Q1315 835 1365 912T1415 1090Q1415 1102 1411 1130Q1392 1096 1381 1077T1342 1027T1286 975Q1235 940 1125 901T967 836Q889
795 834 720T778 567Q778 536 786 512Z" />
<glyph unicode="&apos;" glyph-name="quotesingle" horiz-adv-x="425" d="M287 1554H393L338 1389Q316 1323 280 1264T185 1158T59 1112Q22 1112 16 1118Q64 1154 99 1213T153 1328T190 1437T231 1522T287 1554Z" />
<glyph unicode="(" glyph-name="parenleft" horiz-adv-x="651" d="M834 1380Q728 1380 623 1307T434 1108T283 828T181 497T145 160Q145 -28 182 -181T292 -427T463 -520Q453 -520 430 -472T382 -344T337 -136T317 127Q317 305 351 479T438 786T553 1034T674 1223T775
1338T834 1380Z" />
<glyph unicode=")" glyph-name="parenright" horiz-adv-x="651" d="M139 1380Q246 1380 324 1298T439 1081T477 774Q477 570 410 337T242 -83T13 -395T-229 -520Q-221 -520 -180 -472T-79 -340T47 -131T171 135T265 453T303 803Q303 930 283 1044T235 1228T181
1339T139 1380Z" />
<glyph unicode="*" glyph-name="asterisk" horiz-adv-x="823" d="M524 1274L510 1249L504 1243H565Q646 1243 684 1243T761 1248T811 1260Q805 1223 788 1197T750 1156T695 1133T634 1123T565 1120H506L514 1108Q552 1044 581 994T634 910T670 870Q636 858 608
858T554 870T511 896T472 942T440 992T406 1053L397 1077L387 1053Q361 1008 339 970T300 901T275 849T266 813V809Q207 857 207 924Q207 954 220 992T248 1057T289 1128Q250 1130 178 1130Q28 1130 4 1112Q9 1141 21 1163T48 1200T86 1225T129 1240T180 1247T232
1250T287 1251H301L297 1257Q174 1481 139 1495Q174 1507 199 1507Q231 1507 259 1493T313 1448T355 1395T397 1327L406 1305L414 1327Q541 1534 541 1577V1581Q600 1533 600 1468Q600 1440 587 1403T562 1342T524 1274Z" />
<glyph unicode="+" glyph-name="plus" horiz-adv-x="964" d="M535 139H403Q412 139 412 457Q363 457 302 457T198 458T150 459Q121 459 113 457V588Q113 580 412 580V606Q412 660 412 708T411 793T406 855T395 889Q442 899 461 899Q493 899 511 886T533 850T539
797T539 735Q539 731 538 678T537 580H580Q634 580 682 580T767 581T829 586T864 596Q859 565 847 542T817 505T777 480T729 465T675 459T619 457T561 457H535Q532 358 532 176Q532 147 535 139Z" />
<glyph unicode="," glyph-name="comma" horiz-adv-x="428" d="M90 68Q88 68 88 88Q88 137 124 165T213 193Q250 193 279 161T309 80Q309 -3 225 -108T-20 -303L-47 -254Q58 -162 97 -109T137 10Q137 68 90 68Z" />
<glyph unicode="-" glyph-name="hyphen" horiz-adv-x="618" d="M45 436L72 567Q71 563 110 562T187 560T291 559Q345 559 393 559T479 560T542 565T578 575Q567 544 550 521T513 484T469 459T418 444T363 438T306 436T248 436Q221 436 158 437T82 438Q53 438 45 436Z" />
<glyph unicode="." glyph-name="period" horiz-adv-x="432" d="M313 84Q313 38 281 6T205 -27Q159 -27 127 5T94 84Q94 129 126 161T205 193Q249 193 281 161T313 84Z" />
<glyph unicode="/" glyph-name="slash" horiz-adv-x="729" d="M150 -500H-12Q235 229 387 743T539 1341Q547 1355 593 1373T680 1391Q723 1391 723 1337Q723 1313 714 1281T692 1212T676 1169Q584 894 386 278T150 -500Z" />
<glyph unicode="0" glyph-name="zero" horiz-adv-x="1142" d="M82 371Q82 170 171 71T406 -29Q519 -29 621 16T803 140T941 325T1030 554T1061 807Q1061 1003 971 1103T727 1204Q547 1204 399 1092T166 788T82 371ZM489 78Q385 78 328 179T270 451Q270 613 318
757T449 989T629 1077Q739 1077 803 978T868 713Q868 585 834 466T745 264T622 131T489 78Z" />
<glyph unicode="1" glyph-name="one" horiz-adv-x="634" d="M350 0H154L156 8L324 872Q335 925 332 961T313 1012L147 958L117 1057L485 1208H514L549 1122L512 965L365 154Q350 85 350 0Z" />
<glyph unicode="2" glyph-name="two" horiz-adv-x="897" d="M14 0H569Q627 0 667 15T726 56T752 105T760 152Q760 154 759 158T758 164Q736 145 702 142T518 139H213L240 157Q266 175 311 206T414 284T531 384T648 503T750 634T822 774T850 918Q850 973 835 1021T786
1111T692 1177T549 1202Q410 1202 309 1146T207 1004Q207 971 228 954T283 936Q315 936 352 956Q352 1012 401 1057T514 1102Q585 1102 617 1042T649 895Q649 804 603 702T489 514T340 348T192 213T77 124L31 90L14 0Z" />
<glyph unicode="3" glyph-name="three" horiz-adv-x="880" d="M-2 -170Q-90 -170 -90 -80Q-58 -84 -39 -84Q32 -84 102 -73T249 -29T383 51T478 181T516 365Q516 415 503 452T472 510T423 546T369 568T309 580L344 635Q459 683 527 773T596 963Q596 1022 564 1062T461
1102Q398 1102 352 1063T299 958Q262 936 225 936Q194 936 174 954T154 1001Q154 1085 254 1144T485 1204Q568 1204 630 1184T727 1130T778 1058T795 975Q795 784 487 641Q616 621 673 552T731 385Q731 289 699 207T610 65T482 -41T326 -114T161 -156T-2 -170Z"
/>
<glyph unicode="4" glyph-name="four" horiz-adv-x="962" d="M41 203L20 233Q85 362 240 580T552 983T774 1208H895L874 1122L840 965L800 760Q759 556 721 342Q830 342 871 346T932 367Q933 338 928 315T905 264T846 220T743 203H696Q692 183 678 104T657 -14Q643
-84 643 -168H446L449 -160L518 203H41ZM688 1004Q613 933 458 718T215 342H547L645 848Q654 894 688 1004Z" />
<glyph unicode="5" glyph-name="five" horiz-adv-x="897" d="M315 1178H616Q766 1178 801 1181T858 1202Q858 1174 853 1151T830 1099T772 1055T670 1038H360L307 791Q361 791 414 780T523 741T620 672T688 566T715 418Q715 297 674 196T567 29T414 -83T238 -149T59
-170Q29 -170 10 -158T-16 -126T-24 -98T-25 -80Q5 -84 25 -84Q91 -84 155 -70T282 -20T394 69T472 205T502 393Q502 461 483 515T436 601T372 654T305 682T246 690Q220 690 201 687L182 684L170 717L279 1151L315 1178Z" />
<glyph unicode="6" glyph-name="six" horiz-adv-x="1052" d="M797 1368Q704 1368 606 1329T413 1208T245 1016T125 750T80 418Q80 202 169 88T414 -27Q508 -27 590 5T733 94T836 224T900 384T922 559Q922 703 845 775T651 848Q562 848 471 807T317 700Q376 958
514 1099T805 1241Q871 1241 940 1211T1036 1135Q1053 1169 1053 1206Q1053 1258 1009 1296T908 1351T797 1368ZM457 78Q407 78 371 104T315 177T288 277T279 395Q279 507 303 635Q427 739 530 739Q723 739 723 518Q723 321 646 200T457 78Z" />
<glyph unicode="7" glyph-name="seven" horiz-adv-x="817" d="M170 -49L893 1143L866 1178H391Q345 1178 312 1178T255 1178T215 1180T189 1184T173 1191T162 1202Q152 1179 147 1157T148 1104T178 1051T257 1013T399 997Q493 997 556 1003T635 1017L651 1024L88
80Q21 -40 -15 -82T-86 -137Q-67 -153 -41 -161T21 -169T96 -137T170 -49Z" />
<glyph unicode="8" glyph-name="eight" horiz-adv-x="958" d="M375 -29Q315 -29 259 -13T155 35T78 124T49 252Q49 323 74 390T137 506T222 596T311 661T389 696Q316 764 272 845T227 1006Q227 1173 349 1270T659 1368Q791 1368 868 1301T946 1130Q946 1080 929
1033T885 952T825 886T758 834T695 795T647 768Q718 702 762 653T841 533T877 395Q877 295 834 213T719 79T559 -1T375 -29ZM446 645Q420 633 395 618T333 571T269 503T223 411T203 293Q203 199 252 141T391 82Q509 82 587 161T666 332Q666 411 611 481T446 645ZM426
1096Q424 1085 424 1067Q424 1005 467 945T590 815Q597 819 625 836T670 864T713 901T755 952T783 1018T795 1106Q795 1177 756 1221T633 1266T496 1222T426 1096Z" />
<glyph unicode="9" glyph-name="nine" horiz-adv-x="1052" d="M666 1204Q537 1204 434 1156T265 1026T166 839T131 618Q131 475 208 403T401 330Q490 330 581 370T735 477Q705 346 652 242T532 72T393 -28T248 -63Q182 -63 112 -34T16 43Q0 7 0 -29Q0 -80 44 -118T145
-173T256 -190Q349 -190 447 -151T640 -30T808 162T928 428T973 760Q973 848 957 924T906 1064T811 1166T666 1204ZM596 1100Q688 1100 730 1017T772 797Q772 772 772 752T771 711T768 667T762 614T750 543Q627 438 522 438Q330 438 330 659Q330 856 407 978T596
1100Z" />
<glyph unicode=":" glyph-name="colon" horiz-adv-x="528" d="M319 84Q319 38 287 6T211 -27Q165 -27 133 5T100 84Q100 128 132 160T211 193Q255 193 287 161T319 84ZM436 676Q436 630 404 598T328 565Q282 565 250 597T217 676Q217 720 249 752T328 784Q372
784 404 752T436 676Z" />
<glyph unicode=";" glyph-name="semicolon" horiz-adv-x="528" d="M436 676Q436 630 404 598T328 565Q282 565 250 597T217 676Q217 720 249 752T328 784Q372 784 404 752T436 676ZM98 68Q96 68 96 88Q96 137 132 165T221 193Q258 193 287 161T317 80Q317 -3 233
-108T-12 -303L-39 -254Q66 -162 105 -109T145 10Q145 68 98 68Z" />
<glyph unicode="&lt;" glyph-name="less" horiz-adv-x="755" d="M268 506L294 527Q320 548 336 569L563 872L578 890Q593 908 617 929T659 956H629Q569 956 499 933T389 866L121 547L80 506L125 461L397 139Q434 96 501 74T629 51H659Q638 60 616 78T582 111L571
125L340 438Q321 461 294 484L268 506Z" />
<glyph unicode="=" glyph-name="equal" horiz-adv-x="983" d="M113 600V731Q113 723 580 723Q634 723 682 723T767 724T829 729T864 739Q859 708 847 685T817 648T777 623T729 608T675 602T619 600T561 600Q534 600 349 601T150 602Q121 602 113 600ZM113 293V424Q113
416 580 416Q634 416 682 416T767 417T829 422T864 432Q859 401 847 378T817 341T777 316T729 301T675 295T619 293T561 293Q534 293 349 294T150 295Q121 295 113 293Z" />
<glyph unicode="&gt;" glyph-name="greater" horiz-adv-x="755" d="M473 506L447 527Q421 548 406 569L178 872L163 890Q148 908 124 929T82 956H113Q172 956 242 933T352 866L623 547Q633 534 648 520L662 506L616 461L344 139Q308 96 240 74T113 51H82Q103 60
125 78T158 111L170 125L401 438Q420 461 446 484L473 506Z" />
<glyph unicode="?" glyph-name="question" horiz-adv-x="841" d="M272 334L227 311Q117 369 117 463Q117 483 119 494Q132 560 169 625T255 743T360 849T469 952T567 1054T637 1164T664 1284Q664 1440 487 1440Q426 1440 372 1395T317 1270Q317 1263 318 1252T319
1235Q283 1192 223 1192Q177 1192 155 1217T133 1276Q133 1357 190 1420T334 1515T514 1546Q666 1546 748 1461T831 1239Q831 1163 799 1089T714 954T599 833T474 719T359 613T275 508T242 403Q242 361 272 334ZM291 84Q291 38 259 6T182 -27Q136 -27 104 5T72
84Q72 128 104 160T182 193Q227 193 259 161T291 84Z" />
<glyph unicode="@" glyph-name="at" horiz-adv-x="1847" d="M1194 -53H1196Q1074 -53 1027 -1T979 143Q979 190 995 246Q975 202 945 158T876 70T788 0T692 -27Q621 -27 569 22T492 146T467 309Q467 459 518 595T657 829T866 984T1122 1042Q1218 1042 1317 1012Q1282
918 1227 637T1151 162Q1151 100 1170 72T1245 43Q1297 43 1356 80T1470 188T1562 375T1599 635Q1599 798 1522 934T1307 1151T1001 1231Q848 1231 709 1164T468 982T308 708T248 371Q248 117 377 -55T725 -268Q739 -272 774 -272Q833 -272 854 -260Q811 -381 655
-381Q537 -381 432 -319T253 -154T137 80T94 350Q94 550 172 735T380 1054T683 1268T1040 1348Q1193 1348 1323 1297T1542 1157T1681 943T1731 676T1697 411T1606 205T1479 62T1336 -25T1194 -53ZM989 317L1124 944Q1112 946 1090 946Q910 946 783 780T655 346Q655
121 780 121Q829 121 887 183T989 317Z" />
<glyph unicode="A" glyph-name="A" horiz-adv-x="1124" d="M35 0H-111L567 1221Q590 1268 617 1300T675 1348T727 1372T782 1386T827 1395Q827 1328 842 1221L993 164Q999 85 1030 0H799Q800 10 799 34T797 70Q753 384 739 471H283L45 27Q41 19 35 0ZM641 1153L338
569H729Q717 643 683 887T641 1153Z" />
<glyph unicode="B" glyph-name="B" horiz-adv-x="1075" d="M94 0L123 139L303 1085Q317 1166 317 1212Q317 1239 313 1259T304 1289T293 1313L313 1348L670 1358H690Q771 1358 834 1336T934 1277T989 1196T1008 1102Q1008 994 941 915T754 770Q850 738 912 664T975
479Q975 366 931 275T810 124T631 32T412 0H94ZM514 698L430 702Q359 351 319 98H449Q523 98 582 119T679 175T740 255T774 345T784 436Q784 559 711 626T514 698ZM557 797Q626 797 688 784Q742 826 784 898T827 1067Q827 1152 776 1199T643 1245L545 1243Q497
1038 451 797H557Z" />
<glyph unicode="C" glyph-name="C" horiz-adv-x="1257" d="M1077 311Q1079 307 1079 293Q1079 201 1002 127T809 13T565 -27Q450 -27 362 12T219 122T138 285T111 489Q111 686 173 853T342 1132T591 1308T893 1372Q1021 1372 1125 1322T1251 1202Q1244 1166 1193
1102T1090 1016L1061 1042Q1063 1049 1063 1061Q1063 1087 1051 1117T1016 1178T947 1229T844 1249Q721 1249 621 1186T460 1020T367 797T334 553Q334 459 354 381T415 242T523 147T680 113Q778 113 893 165T1077 311Z" />
<glyph unicode="D" glyph-name="D" horiz-adv-x="1337" d="M510 0H84Q89 23 95 50T104 96T110 127T113 139L289 1069Q307 1170 307 1210Q307 1274 283 1313L305 1348L762 1358Q866 1358 956 1325T1116 1230T1224 1069T1264 848Q1264 703 1224 571T1113 336T947
157T741 40T510 0ZM555 109Q633 109 717 158T873 292T990 503T1036 772Q1036 978 932 1110T662 1243H647L532 1239Q527 1209 433 739T313 109H555Z" />
<glyph unicode="E" glyph-name="E" horiz-adv-x="1003" d="M291 1085Q306 1159 307 1208T300 1274T285 1313L303 1348H604L950 1354Q976 1313 966 1230T932 1126H893Q893 1173 840 1204T705 1239L535 1245Q482 1041 426 745H741Q769 745 788 751T814 765L819 772L817
731Q811 698 794 675T758 641T709 625T662 619T614 618Q612 618 565 619T477 621T399 621Q345 329 315 141V129H696Q724 129 744 135T772 149L778 156L774 115Q768 82 751 59T715 25T666 8T618 1T571 0H84L111 139L291 1085Z" />
<glyph unicode="F" glyph-name="F" horiz-adv-x="962" d="M303 0H84L111 139L291 1085Q306 1159 307 1208T300 1274T285 1313L303 1348H606L952 1354Q977 1314 967 1230T934 1126H895Q895 1173 842 1204T707 1239L535 1245Q482 1041 426 745H741Q769 745 788 751T814
765L819 772L817 731Q811 698 794 675T758 641T709 625T662 619T614 618Q612 618 565 619T477 621T399 621Q345 329 315 141Q312 135 306 84T303 0Z" />
<glyph unicode="G" glyph-name="G" horiz-adv-x="1308" d="M893 1372H895Q1023 1372 1127 1322T1253 1202Q1246 1166 1195 1102T1092 1016L1063 1042Q1065 1049 1065 1061Q1065 1087 1053 1117T1017 1178T948 1229T844 1249Q769 1249 696 1221T558 1136T442 997T363
801T334 553Q334 339 432 221T674 102Q715 102 790 118L864 133L895 291Q909 368 909 416Q909 452 901 479T887 516L905 551L924 558Q943 564 979 571T1049 578Q1110 578 1159 553Q1139 474 1103 315T1051 43Q1011 40 926 22T739 -11T535 -27Q349 -27 230 116T111
498Q111 693 173 858T343 1135T592 1309T893 1372Z" />
<glyph unicode="H" glyph-name="H" horiz-adv-x="1474" d="M1290 541Q1206 125 1206 20L1208 0H993Q993 29 994 42T1002 92T1019 176T1055 347T1110 629H434L418 541Q392 409 363 245T334 25L336 0H115Q124 38 326 1087Q340 1168 340 1214Q340 1265 317 1313L336
1348L385 1361Q434 1374 481 1374Q543 1374 590 1350Q543 1154 453 735H1130Q1172 950 1193 1061T1214 1214Q1214 1240 1210 1259T1201 1289T1190 1313L1210 1348L1257 1361Q1304 1374 1352 1374Q1415 1374 1462 1350Q1324 728 1290 541Z" />
<glyph unicode="I" glyph-name="I" horiz-adv-x="618" d="M322 0H100Q119 75 313 1090Q328 1168 328 1217Q328 1252 319 1278T303 1315L324 1350L372 1363Q420 1376 469 1376Q531 1376 578 1352Q474 909 403 541Q319 91 319 20Q319 14 320 8T322 0Z" />
<glyph unicode="J" glyph-name="J" horiz-adv-x="649" d="M-223 -170Q-223 -254 -135 -254Q-22 -254 42 -162T143 127Q297 943 322 1090Q336 1190 336 1217Q336 1242 332 1261T323 1291T311 1315L334 1350L352 1356Q371 1363 406 1369T475 1376Q539 1376 586 1352Q480
902 412 541Q408 520 372 324T334 121Q314 22 269 -62T166 -206T38 -306T-102 -367T-240 -387T-343 -354T-379 -274Q-379 -230 -347 -197T-264 -164Q-246 -164 -223 -170Z" />
<glyph unicode="K" glyph-name="K" horiz-adv-x="1124" d="M297 0H76Q110 145 289 1090Q292 1103 297 1155T303 1217Q303 1242 299 1261T290 1291T279 1315L299 1350L347 1363Q395 1376 442 1376Q504 1376 551 1352Q471 1009 410 713L913 1180Q979 1239 979 1292Q979
1299 975 1315L995 1350Q1054 1372 1135 1372Q1226 1372 1243 1352Q1193 1283 1145 1234T967 1072T588 743Q699 537 848 272T1012 0H754Q696 138 601 324T436 612L403 670L379 541Q295 103 295 20Q295 16 296 9T297 0Z" />
<glyph unicode="L" glyph-name="L" horiz-adv-x="860" d="M741 0H82Q94 50 295 1090Q303 1136 306 1172T309 1229T304 1267T295 1293T285 1315L303 1350L352 1363Q402 1376 449 1376Q510 1376 557 1352Q421 739 385 541Q332 278 307 113H539Q625 113 688 143T770
221H807Q823 193 801 112T741 0Z" />
<glyph unicode="M" glyph-name="M" horiz-adv-x="1763" d="M793 -43L733 -25Q690 -15 661 15T621 74T610 131L436 961Q431 982 429 1030T426 1079Q408 945 337 604T229 106Q217 42 217 8V0H70L80 33Q155 339 238 709T354 1237Q334 1304 315 1315L336 1350Q412
1376 469 1376Q548 1376 586 1346Q594 1202 677 789T809 201Q1418 1264 1425 1276Q1441 1304 1470 1321T1536 1346T1618 1359T1712 1368L1640 1032Q1564 656 1481 121Q1470 36 1470 14V0H1249L1276 123Q1335 408 1427 956Q1430 972 1436 1019T1446 1079L1378 946L881
131L793 -43Z" />
<glyph unicode="N" glyph-name="N" horiz-adv-x="1474" d="M393 948Q384 901 359 790T324 625Q234 139 225 0H82L88 33L227 764L293 1094Q307 1174 305 1223T283 1315L303 1350Q313 1354 323 1358T345 1365T368 1371T393 1374T418 1370L1032 422Q1053 393 1067
342L1081 291L1084 342Q1088 393 1094 420L1221 1094Q1250 1254 1210 1315L1231 1350Q1269 1374 1335 1374Q1396 1374 1421 1352Q1288 777 1214 391Q1168 137 1151 0H1040L461 911L434 963Q407 1015 403 1038Q403 1000 393 948Z" />
<glyph unicode="O" glyph-name="O" horiz-adv-x="1368" d="M872 1372Q721 1372 581 1309T334 1133T163 851T98 485Q98 250 209 112T487 -27T801 41T1057 228T1227 513T1290 870Q1290 1105 1175 1238T872 1372ZM608 96Q478 96 400 224T322 545Q322 721 387 884T558
1146T778 1245Q905 1245 984 1121T1063 805Q1063 627 998 462T828 196T608 96Z" />
<glyph unicode="P" glyph-name="P" horiz-adv-x="1050" d="M299 0H78L86 33Q117 157 207 644T297 1214Q297 1282 279 1313L299 1348L662 1360Q720 1360 773 1351T880 1318T972 1258T1035 1162T1059 1028Q1059 909 1013 811T887 648T704 548T485 512Q434 512 381
524Q305 101 299 0ZM524 614Q669 614 769 720T870 995Q870 1063 849 1113T793 1191T717 1232T633 1245L524 1241Q505 1173 462 962T401 633Q435 614 524 614Z" />
<glyph unicode="Q" glyph-name="Q" horiz-adv-x="1366" d="M872 1372Q1060 1372 1176 1238T1292 870Q1292 694 1238 537T1090 264T865 73T584 -20Q632 -50 639 -55Q854 -223 1094 -223Q1176 -223 1246 -188T1354 -100Q1362 -138 1362 -156Q1362 -256 1274 -321T1053
-387Q990 -387 917 -355T774 -273T638 -172T504 -75T387 -12Q257 26 178 156T98 485Q98 682 162 851T334 1132T581 1308T872 1372ZM608 96Q722 96 827 196T998 461T1063 805Q1063 997 984 1121T778 1245Q664 1245 558 1146T387 884T322 545Q322 353 400 225T608
96Z" />
<glyph unicode="R" glyph-name="R" horiz-adv-x="1155" d="M285 0H66L72 33Q283 1112 283 1214Q283 1280 264 1313L285 1348Q655 1358 670 1358Q741 1358 804 1341T923 1286T1011 1183T1044 1028Q1044 847 942 724T670 545Q694 532 855 276T1038 0H780Q766 43
741 93T677 206T611 308T535 420T471 512Q418 512 367 524Q291 101 285 0ZM510 614Q656 614 756 720T856 995Q856 1063 835 1114T778 1192T703 1232T618 1245L510 1241Q491 1176 448 965T387 633Q421 614 510 614Z" />
<glyph unicode="S" glyph-name="S" horiz-adv-x="925" d="M299 -27Q176 -27 90 29T4 162Q4 202 43 248Q46 203 134 160T315 117Q365 117 412 127T506 162T580 231T608 340Q608 386 584 430T520 512T434 588T340 668T254 754T191 854T166 973Q166 1140 290 1259T612
1378Q734 1378 822 1340T911 1268Q911 1216 892 1155T834 1063L799 1071Q792 1123 767 1163T707 1225T638 1257T571 1268Q535 1268 496 1255T422 1218T363 1153T340 1063Q340 1018 366 975T434 894T526 819T626 738T719 649T787 542T813 412Q813 282 745 182T560
27T299 -27Z" />
<glyph unicode="T" glyph-name="T" horiz-adv-x="993" d="M827 1348H420L145 1360Q93 1313 75 1231T68 1126H106Q122 1173 186 1204T338 1235H489Q485 1155 469 1079L403 722Q337 366 270 33L264 0H483Q483 62 489 90Q511 215 565 495T665 1002T711 1235H864Q952
1235 1006 1204T1057 1126H1094Q1105 1139 1117 1179T1129 1273T1106 1360L827 1348Z" />
<glyph unicode="U" glyph-name="U" horiz-adv-x="1357" d="M1149 444Q1109 239 947 105T547 -29Q472 -29 412 -20T300 13T213 73T159 167T139 301Q139 354 150 428Q200 752 264 1090Q279 1176 279 1217Q279 1242 276 1261T267 1291T256 1315L276 1350L324 1363Q372
1376 420 1376Q485 1376 530 1352Q478 1128 350 455Q338 394 338 346Q338 288 354 244T396 175T457 135T524 114T590 109Q736 109 851 189T995 383L1004 418Q1012 452 1048 629T1139 1094Q1153 1165 1153 1214Q1153 1278 1128 1315L1151 1350Q1185 1374 1255 1374Q1316
1374 1341 1352Q1230 885 1149 444Z" />
<glyph unicode="V" glyph-name="V" horiz-adv-x="1216" d="M557 -43L645 131L1212 1075Q1309 1235 1337 1348Q1303 1376 1239 1376Q1173 1376 1110 1350L1090 1315Q1114 1280 1114 1237Q1114 1170 1055 1065L647 352Q621 307 596 255T573 201Q535 351 472 769T403
1339Q376 1376 301 1376Q222 1376 158 1348L137 1313Q145 1310 158 1290T192 1197T227 1018L371 131Q376 2 487 -25L557 -43Z" />
<glyph unicode="W" glyph-name="W" horiz-adv-x="1785" d="M1184 -43L1274 131L1804 1075Q1895 1233 1929 1348Q1889 1368 1817 1368Q1748 1368 1702 1348L1681 1313Q1715 1268 1702 1198Q1692 1142 1647 1065L1276 352Q1250 310 1226 256L1202 201Q1169 337 1122
754T1069 1339Q1042 1376 965 1376Q881 1376 815 1348L795 1313Q800 1311 809 1298T832 1254T860 1162T885 1018L899 897L616 352Q592 310 568 256L545 201Q511 336 463 753T410 1339Q381 1376 305 1376Q222 1376 158 1348L137 1313Q145 1310 158 1290T192 1197T227
1018L340 131Q341 110 346 89T363 44T399 1T457 -25L526 -43L614 131L926 692L997 131Q998 102 1006 74T1043 15T1114 -25L1184 -43Z" />
<glyph unicode="X" glyph-name="X" horiz-adv-x="1097" d="M12 100L465 659L342 1020Q314 1103 298 1153T268 1235T239 1282T201 1313L221 1348Q289 1376 362 1376Q442 1376 469 1339Q487 1271 496 1231T536 1095T629 829L686 907L823 1081Q909 1188 920 1241Q929
1286 911 1313L932 1348Q986 1376 1051 1376Q1122 1376 1159 1348Q1138 1292 1084 1213T971 1067L670 713L877 121Q887 90 904 60T934 14L946 0H690L508 537L478 495Q447 453 430 434L166 111Q139 75 118 38L98 0H-78L12 100Z" />
<glyph unicode="Y" glyph-name="Y" horiz-adv-x="890" d="M451 0H231L238 33Q304 366 307 383L350 616Q336 634 319 680L203 1024Q187 1066 171 1114T147 1185T129 1234T110 1272T90 1295T61 1313L82 1348Q147 1376 223 1376Q287 1376 317 1339Q342 1223 402 1030T498
754L557 834L782 1135Q853 1232 817 1313L838 1348Q905 1376 956 1376Q1006 1376 1057 1348Q1050 1312 993 1219T887 1067L563 662Q524 467 504 352Q457 111 451 0Z" />
<glyph unicode="Z" glyph-name="Z" horiz-adv-x="1241" d="M-51 0L-49 41L16 104L881 1161L954 1231H502Q414 1231 349 1200T268 1122H231Q229 1126 229 1149Q229 1199 248 1262T309 1364L584 1352H1268L1266 1309L1202 1243L346 199L274 133H780Q868 133 933
164T1014 242H1053Q1057 234 1057 215Q1057 166 1036 102T973 0H-51Z" />
<glyph unicode="[" glyph-name="bracketleft" horiz-adv-x="507" d="M551 1499L530 1399H340L29 -217H219L197 -319H-119L233 1499H551Z" />
<glyph unicode="\" glyph-name="backslash" horiz-adv-x="729" d="M563 -500H725Q478 229 326 743T174 1341Q166 1355 120 1373T33 1391Q-10 1391 -10 1337Q-10 1313 -1 1281T21 1212T37 1169Q39 1164 93 998T215 622T356 183T488 -238T563 -500Z" />
<glyph unicode="]" glyph-name="bracketright" horiz-adv-x="509" d="M629 1499L274 -319H-41L-23 -217H166L483 1399H293L311 1499H629Z" />
<glyph unicode="^" glyph-name="asciicircum" horiz-adv-x="1277" d="M1128 655H985L637 1284L289 655H145L580 1450H694L1128 655Z" />
<glyph unicode="_" glyph-name="underscore" horiz-adv-x="921" d="M983 -154L922 -276H0V-154H983Z" />
<glyph unicode="`" glyph-name="grave" horiz-adv-x="692" d="M305 1483H186L240 1343Q312 1157 475 1157Q498 1157 526 1170T557 1190Q508 1206 477 1242T431 1319T403 1396T366 1458T305 1483Z" />
<glyph unicode="a" glyph-name="a" horiz-adv-x="1038" d="M827 348Q813 238 813 195Q813 98 891 98Q908 98 924 102L940 106L954 70L922 46Q890 22 836 -2T739 -27Q695 -27 668 -6T631 47T622 119T630 192T647 254Q582 134 483 54T295 -27Q208 -27 145 58T82
299Q82 494 156 665T360 939T643 1042Q684 1042 798 1023T956 1001L905 745Q889 659 827 348ZM752 907L694 920Q637 932 592 932Q510 932 436 848T316 621T270 322Q270 219 307 170T399 121Q491 121 643 313Q740 727 752 907Z" />
<glyph unicode="b" glyph-name="b" horiz-adv-x="1067" d="M322 1274Q326 1314 326 1341Q326 1455 262 1458L270 1495L292 1508Q313 1520 355 1533T440 1546Q496 1546 519 1522T543 1448Q542 1377 494 1167T393 774Q472 895 582 968T791 1042Q995 1042 995 692Q995
597 973 499T902 306T788 137T627 18T422 -27Q289 -27 205 19T121 156Q121 211 219 715T322 1274ZM326 305Q319 247 319 215Q319 151 350 119T465 86Q539 86 598 123T696 220T760 358T796 513T807 668Q807 905 684 905Q627 905 540 842T387 694Q356 521 326 305Z"
/>
<glyph unicode="c" glyph-name="c" horiz-adv-x="944" d="M274 420Q274 294 333 212T510 129Q594 129 679 176T836 309Q840 222 778 144T617 19T412 -27Q272 -27 177 82T82 373Q82 536 151 689T344 940T612 1038Q690 1038 756 1022T868 967T913 877Q913 811 855
775T735 778Q735 845 704 884T588 924Q502 924 428 846T314 652T274 420Z" />
<glyph unicode="d" glyph-name="d" horiz-adv-x="1062" d="M768 -27Q649 -27 649 139Q649 163 653 205V213Q574 102 478 38T291 -27Q188 -27 130 61T72 324Q72 417 94 515T163 707T275 874T433 993T635 1038Q674 1038 727 1029T805 1008L852 1274Q857 1310 859
1350T844 1424T793 1458L801 1495L822 1508Q844 1520 886 1533T971 1546Q1006 1546 1028 1535T1060 1508T1072 1464T1072 1415T1063 1360Q1060 1337 1010 1107T954 848Q850 301 850 201Q850 98 922 98Q941 98 975 106L989 70Q941 34 879 4T768 -27ZM727 588L786
907L770 914Q753 920 710 926T614 932Q538 932 476 894T374 795T309 654T271 497T260 342Q260 111 377 111Q433 111 519 170T672 311Q682 367 703 470T727 588Z" />
<glyph unicode="e" glyph-name="e" horiz-adv-x="940" d="M406 -27Q264 -27 173 82T84 379Q87 513 133 637T253 847T418 986T604 1038Q738 1038 806 980T872 821Q870 715 790 635T585 514T315 473H274Q270 441 270 420Q269 349 291 285T367 175T494 129Q578 129
668 177T829 309Q833 222 771 143T610 19T406 -27ZM575 924Q521 924 470 888T383 795T321 674T285 547Q346 552 393 559T496 585T589 631T651 706T678 815Q680 858 656 891T575 924Z" />
<glyph unicode="f" glyph-name="f" horiz-adv-x="655" d="M250 713L125 51L117 0H315Q315 63 319 86L374 412Q429 738 461 887Q466 887 532 886T612 885Q782 885 786 1030L782 1026Q777 1023 770 1019T748 1012T713 1008H473Q481 1025 485 1055Q515 1259 566 1339T702
1419Q744 1419 767 1397T791 1341Q818 1329 848 1329Q886 1331 912 1355T938 1421Q938 1478 890 1512T770 1546Q727 1546 683 1535T589 1493T495 1417T410 1296T342 1126Q310 1012 213 1004L193 942Q260 912 260 807Q260 760 250 713Z" />
<glyph unicode="g" glyph-name="g" horiz-adv-x="1003" d="M84 303Q86 421 125 549T230 786T395 967T604 1038Q646 1038 773 1021T940 1001L889 745Q888 738 867 635T809 348Q795 238 795 195Q798 135 800 87T803 10T806 -39T807 -69T808 -82L809 -86Q809 -177
779 -251T698 -373T579 -455T440 -503T293 -518Q138 -518 32 -464T-74 -315Q-74 -298 -69 -279T-51 -236T-14 -197T47 -182Q71 -182 93 -193T125 -225Q102 -273 102 -305Q102 -367 164 -398T322 -430Q378 -430 423 -419T499 -389T551 -344T586 -289T606 -226T616
-162T618 -100Q618 -58 611 11T604 135Q604 162 608 174Q562 84 475 29T305 -27Q228 -27 177 18T105 135T84 303ZM276 332Q276 121 393 121Q458 121 514 152T604 219Q641 376 678 590T721 901L674 914Q626 928 582 928Q506 928 434 829T320 591T276 332Z" />
<glyph unicode="h" glyph-name="h" horiz-adv-x="1099" d="M438 1546Q491 1546 513 1524T535 1454Q535 1400 475 1146T393 770Q423 813 467 857T567 944T691 1014T821 1042Q893 1042 945 991T997 846Q997 800 964 632T897 277T864 0H670Q670 12 684 98Q714 250
735 363T767 535T782 626T788 675T791 696Q795 742 795 760Q795 881 702 881Q619 881 528 821T379 682Q347 501 314 280T279 20V0H82L86 31Q173 469 248 889T324 1343Q324 1450 256 1458L266 1495L288 1508Q309 1520 352 1533T438 1546Z" />
<glyph unicode="i" glyph-name="i" horiz-adv-x="542" d="M297 1313Q297 1356 329 1387T406 1419Q449 1419 479 1388T510 1313Q508 1269 476 1236T401 1202Q357 1202 326 1235T297 1313ZM92 0L94 8Q244 793 244 825Q245 862 229 880T188 899Q178 899 172 897L154
930Q189 971 251 1002T371 1034Q410 1034 429 1007T446 938Q446 919 437 875T415 783T401 725Q392 678 356 459T305 154Q293 90 293 37Q293 12 291 0H92Z" />
<glyph unicode="j" glyph-name="j" horiz-adv-x="542" d="M86 -29Q67 -123 19 -219T-98 -384T-229 -453Q-194 -510 -137 -510Q-94 -510 -33 -471T87 -370T196 -217T262 -35L401 702Q408 736 421 793T440 884T446 942Q446 991 427 1012T354 1034Q306 1034 244 998T154
930L172 897Q178 899 188 899Q242 899 242 831Q245 815 86 -29ZM303 1313Q303 1356 335 1387T412 1419Q455 1419 485 1388T516 1313T483 1236T408 1202Q363 1202 333 1235T303 1313Z" />
<glyph unicode="k" glyph-name="k" horiz-adv-x="1003" d="M330 1348Q330 1449 262 1458L270 1495L292 1508Q313 1520 355 1533T440 1546Q496 1546 519 1522T543 1446Q543 1424 459 1024T371 598Q567 644 670 715T774 848Q774 899 694 899Q684 899 678 897L659
930Q692 970 755 1002T877 1034Q950 1034 950 961Q950 714 541 592Q565 580 592 524T648 398T710 259T796 144T909 98Q937 98 971 106L985 70Q949 39 881 6T762 -27Q702 -27 651 22T563 147T496 303T431 457T367 563Q329 375 305 205T281 0H82L88 31L322 1274Q330
1313 330 1348Z" />
<glyph unicode="l" glyph-name="l" horiz-adv-x="520" d="M281 0H82L86 31L322 1274Q337 1359 321 1405T260 1458L270 1495L292 1508Q313 1520 355 1533T440 1546Q469 1546 488 1539T520 1520T536 1485T541 1439T534 1376T518 1303T496 1214Q447 1005 379 639T285
86Q281 63 281 0Z" />
<glyph unicode="m" glyph-name="m" horiz-adv-x="1697" d="M403 770Q433 813 477 857T577 944T700 1014T829 1042Q905 1042 958 984T1004 821Q1001 810 997 774Q1028 817 1071 860T1170 946T1291 1015T1419 1042Q1495 1042 1548 984T1593 821Q1590 784 1557 616T1493
267T1462 0H1268Q1268 12 1282 98Q1354 475 1389 696Q1400 789 1381 835T1303 881Q1221 881 1131 823T981 688Q953 558 913 327T872 0H678Q678 12 692 98Q783 565 799 696Q810 790 791 835T713 881Q629 881 537 821T387 682Q382 650 348 463T293 154Q284 90 281
37V0H82V8L229 778Q238 821 224 860T178 899Q168 899 162 897L143 930Q176 970 239 1002T360 1034Q436 1034 436 938Q436 875 403 770Z" />
<glyph unicode="n" glyph-name="n" horiz-adv-x="1107" d="M403 770Q433 813 477 857T577 944T700 1014T829 1042Q905 1042 958 984T1004 821Q1001 785 968 617T903 267T872 0H678Q678 12 692 98Q783 565 799 696Q810 790 791 835T713 881Q629 881 537 821T387
682Q382 650 348 463T293 154Q284 90 281 37V0H82V8L229 778Q238 821 224 860T178 899Q168 899 162 897L143 930Q176 970 239 1002T360 1034Q436 1034 436 938Q436 875 403 770Z" />
<glyph unicode="o" glyph-name="o" horiz-adv-x="1030" d="M641 1038Q529 1038 428 988T251 849T131 636T84 369Q83 316 89 268T114 164T166 68T255 0T389 -27Q506 -27 610 29T786 179T902 395T946 647Q949 831 865 934T641 1038ZM555 934Q649 934 700 845T748
606Q746 382 658 228T457 74Q369 74 323 164T281 403Q282 447 289 505T315 641T363 782T442 890T555 934Z" />
<glyph unicode="p" glyph-name="p" horiz-adv-x="1087" d="M184 -492H-12Q61 -128 76 -35L231 791Q233 801 233 819Q233 856 216 877T174 899Q166 899 160 897L141 930L168 956Q196 982 247 1008T344 1034Q385 1034 404 1009T424 944Q424 929 417 895T401 822T389
774Q459 876 568 959T780 1042Q993 1042 993 690Q993 595 971 497T903 304T791 137T633 18T432 -27Q365 -27 260 6Q248 -70 227 -200T195 -399T184 -492ZM455 86Q538 86 604 133T706 246T766 391T797 526T805 616Q805 663 804 697T798 767T784 825T761 868T726
896T676 905Q616 905 529 834T385 696Q375 641 352 506T301 225L281 115H283Q358 86 455 86Z" />
<glyph unicode="q" glyph-name="q" horiz-adv-x="1071" d="M733 -498H535Q546 -444 587 -224T649 100Q656 137 684 242Q604 119 501 46T301 -27Q198 -27 140 61T82 324Q82 419 104 517T175 710T289 878T450 997T655 1042Q755 1042 872 1021T997 999Q735 -302 733
-498ZM795 907L776 912Q756 918 711 924T612 930Q537 930 477 892T379 793T316 654T280 497T270 342Q270 111 387 111Q445 111 535 174T690 322Q705 402 724 495T752 635T773 753T795 907Z" />
<glyph unicode="r" glyph-name="r" horiz-adv-x="802" d="M281 0H82L221 698Q233 758 233 817Q233 899 178 899Q174 899 169 898L164 897L145 930Q173 967 237 1000T348 1034Q438 1034 438 946Q438 910 422 856L400 798Q378 739 371 690Q382 718 403 757T461 848T540
941T639 1013T752 1042Q812 1042 839 1015T866 948Q866 895 828 859T735 807Q726 843 702 861T647 879Q593 879 543 836T458 732T394 593T349 455T324 344Q281 126 281 0Z" />
<glyph unicode="s" glyph-name="s" horiz-adv-x="808" d="M139 711Q139 845 247 941T506 1038Q621 1038 694 994T768 877Q768 832 738 797T664 762Q638 762 608 784Q614 812 614 838Q614 884 585 912T477 940Q402 940 351 894T299 778Q299 741 321 710T378 654T457
606T542 555T620 495T678 417T700 315Q700 232 666 166T575 58T449 -5T303 -27Q235 -27 175 -1T82 65T43 156T82 256Q83 198 162 145T326 92Q363 92 395 100T454 127T498 179T514 258Q514 290 494 318T440 370T366 416T287 468T214 528T160 608T139 711Z" />
<glyph unicode="t" glyph-name="t" horiz-adv-x="763" d="M512 1178L457 1008H698Q725 1008 743 1014T767 1026L772 1032Q772 1030 773 1025T774 1018Q774 956 722 920T596 883Q578 883 530 885T463 887Q440 887 434 885Q433 849 379 599T324 262Q322 201 350
170T451 139Q505 139 571 175T664 240V221Q663 151 614 93T493 4T348 -27Q254 -27 193 25T133 176Q134 258 193 506T254 834Q254 864 248 877Q241 892 232 904T214 924T197 936T183 943T173 946H170L193 1008Q203 1008 215 1011T257 1027T329 1079T416 1178H512Z"
/>
<glyph unicode="u" glyph-name="u" horiz-adv-x="1128" d="M750 897L731 930Q764 971 826 1002T948 1034Q1024 1034 1024 938Q1024 908 1014 854T995 770L895 231Q891 199 891 186Q891 139 914 119T971 98Q996 98 1016 106L1030 70Q987 32 918 3T803 -27Q690 -27
690 94Q690 159 719 240Q689 197 645 153T545 65T422 -5T293 -33Q222 -33 171 20T119 166Q119 206 165 441T225 778Q227 786 227 805Q227 845 214 872T174 899Q164 899 158 897L139 930Q172 971 234 1002T356 1034Q432 1034 432 938Q432 884 406 770Q392 702 362
577T319 379T305 256Q305 193 329 161T410 129Q493 129 586 189T735 328Q738 347 753 428T785 605T817 786V805Q817 899 766 899Q756 899 750 897Z" />
<glyph unicode="v" glyph-name="v" horiz-adv-x="901" d="M176 698Q172 732 166 761T152 810T137 845T122 870T106 887T91 896T78 900T67 901T60 900L57 899L37 934Q80 975 134 1004T233 1034Q284 1034 306 1006T328 909Q328 835 410 309Q426 217 442 172Q563
334 664 537T766 842Q766 891 743 931T676 981Q702 1026 778 1026Q901 1026 901 897Q901 807 849 681T739 455Q663 322 502 92L422 -55L365 -37Q325 -29 300 0T266 56T256 111L176 698Z" />
<glyph unicode="w" glyph-name="w" horiz-adv-x="1513" d="M176 698Q172 732 166 761T152 810T137 845T122 870T106 887T91 896T78 900T67 901T60 900L57 899L37 934Q80 975 134 1004T233 1034Q284 1034 306 1006T328 909Q328 835 410 309Q426 217 442 172Q554
322 651 512T764 813Q757 832 749 847T734 871T718 887T704 896T691 900T680 901T673 900L670 899L649 934Q692 975 746 1004T846 1034Q897 1034 918 1006T940 909Q940 844 1022 309Q1038 215 1055 172Q1176 335 1277 538T1378 842Q1378 891 1356 931T1288 981Q1315
1026 1391 1026Q1513 1026 1513 897Q1513 807 1462 682T1352 455Q1274 321 1114 92L1034 -55L977 -37Q937 -29 912 0T878 56T868 111L805 580Q767 502 739 455Q663 322 502 92L422 -55L365 -37Q325 -29 300 0T266 56T256 111L176 698Z" />
<glyph unicode="x" glyph-name="x" horiz-adv-x="960" d="M432 850L514 653L530 604Q764 803 764 915Q764 973 721 1008Q741 1022 770 1022Q836 1022 867 986T899 907Q899 882 888 853T856 795T809 737T752 680T690 624T628 571T569 524L752 115L817 0H588L565
76L428 397L418 382Q409 368 395 354L141 82L80 0H-76L389 481L299 688Q278 731 259 776T233 840T214 876T191 898T158 903Q141 903 131 901L111 934Q135 954 156 976T214 1016T287 1034Q330 1034 353 1016T391 956T432 850Z" />
<glyph unicode="y" glyph-name="y" horiz-adv-x="921" d="M465 168Q586 361 681 553T776 842Q776 891 754 931T686 981Q713 1026 788 1026Q911 1026 911 897Q911 807 860 682T750 455Q691 352 631 255T493 37T339 -183T187 -367T41 -501T-84 -549Q-155 -549 -197
-513T-240 -418Q-240 -371 -225 -330Q-221 -355 -182 -370T-98 -385Q85 -385 334 -27Q306 -15 290 12T273 64T266 111L180 698Q172 762 158 806T128 869T99 894T74 901L61 899L41 934Q83 974 140 1004T244 1034Q295 1034 316 1006T338 909Q335 833 420 309Q426
259 465 168Z" />
<glyph unicode="z" glyph-name="z" horiz-adv-x="966" d="M594 823L43 100Q25 79 0 59L-25 39V0H668Q741 0 794 24T868 83T887 159T852 233Q851 222 832 204T780 167T696 133T588 119H266L287 136Q308 153 326 176L879 907Q894 929 919 949L944 969L946 1008H307Q258
1008 220 985T166 928T151 863T175 811T244 795Q244 813 281 851T385 889H662Q626 865 594 823Z" />
<glyph unicode="{" glyph-name="braceleft" horiz-adv-x="681" d="M104 623Q137 623 169 653T237 749T308 935T377 1223Q394 1308 434 1374T527 1477T634 1532T741 1550Q812 1550 856 1503Q739 1502 650 1412T537 1184Q514 1045 475 927T396 738T318 627T254 584Q315
504 315 311Q315 194 288 -9T260 -254Q260 -426 442 -426Q458 -426 496 -422Q411 -502 305 -502Q213 -502 155 -422T96 -229Q96 -190 100 -170Q174 212 174 391Q174 460 163 502T136 558T96 578L104 623Z" />
<glyph unicode="|" glyph-name="bar" horiz-adv-x="163" d="M164 1548V-520H0V1548H164Z" />
<glyph unicode="}" glyph-name="braceright" horiz-adv-x="681" d="M664 623Q569 623 569 813Q569 847 591 1018T614 1276Q614 1404 550 1477T395 1550Q322 1550 260 1503Q354 1502 402 1448T451 1292Q451 1223 433 1075T414 877Q414 745 438 670T498 584L484
576Q470 568 447 547T393 475T329 353T260 158T195 -117Q186 -163 181 -184T165 -245T143 -305T113 -353T70 -393T14 -416T-61 -426Q-73 -426 -111 -422Q-58 -502 45 -502Q146 -502 236 -410T352 -170Q385 16 419 154T483 368T546 493T602 556T655 578L664 623Z"
/>
<glyph unicode="~" glyph-name="asciitilde" horiz-adv-x="1079" d="M184 535Q209 553 221 560T260 578T313 586Q347 584 438 552T598 516Q697 510 774 551T870 680Q789 621 719 625Q683 629 589 659T442 692Q347 699 274 660T184 535Z" />
<glyph unicode="" glyph-name="uni007F" horiz-adv-x="1024" />
<glyph unicode="&#xa0;" glyph-name="nbspace" horiz-adv-x="460" />
<glyph unicode="&#xa1;" glyph-name="exclamdown" horiz-adv-x="540" d="M311 1028L369 1016L248 29Q242 -26 247 -58T261 -102L270 -115L260 -162L239 -173Q218 -184 184 -195T121 -207Q68 -207 37 -196T-5 -158T-15 -102T0 -23T32 70T72 182T111 305L311 1028ZM276
1255Q276 1301 308 1333T385 1366Q431 1366 463 1334T496 1255Q496 1211 464 1179T385 1147Q341 1147 309 1179T276 1255Z" />
<glyph unicode="&#xa2;" glyph-name="cent" horiz-adv-x="958" d="M485 -223H385Q409 -100 426 -27H422Q277 -27 180 78T82 369Q82 509 127 631T248 838T424 975T633 1036Q639 1072 647 1136T659 1223Q706 1233 719 1233Q760 1233 760 1192Q760 1178 757 1160T746
1113T735 1069L729 1036Q836 1027 897 983T958 870Q958 845 944 803Q919 842 851 870T700 901L571 264L545 129Q629 134 720 182T879 309Q881 309 881 291Q881 221 827 155T691 45T518 -16L485 -223ZM293 528Q283 483 283 418Q283 310 326 234T457 135Q592 798
610 897Q486 880 404 779T293 528Z" />
<glyph unicode="&#xa3;" glyph-name="sterling" horiz-adv-x="1124" d="M74 551L86 684Q86 688 223 688Q224 785 224 851T231 978T252 1100Q263 1147 280 1192T327 1289T400 1385T500 1465T634 1523T803 1544Q865 1544 928 1524T1038 1461T1085 1360Q1085 1293
1048 1258T965 1223Q918 1223 885 1253Q887 1253 890 1266T893 1296Q893 1344 842 1385T707 1427Q596 1427 515 1330T422 1100Q417 1049 414 999T410 914T407 809T403 684Q535 680 557 680Q611 680 659 680T744 681T807 686T842 696Q837 665 825 642T795 605T755
580T707 565T653 559T597 557T539 557H397Q392 393 351 176T266 -104Q504 -150 670 -150Q844 -150 984 -119T1180 -27Q1186 -54 1186 -80Q1186 -299 776 -299Q668 -299 478 -272T78 -209Q137 -80 174 134T221 559H131Q106 559 74 551Z" />
<glyph unicode="&#xa4;" glyph-name="currency" horiz-adv-x="1200" d="M35 731L78 862Q120 856 209 856Q311 1091 510 1231T952 1372Q1072 1372 1156 1328T1241 1237Q1241 1180 1184 1139Q1179 1179 1106 1214T903 1249Q730 1249 585 1137T371 854H756Q810 854
858 854T942 855T1005 860T1040 870Q1029 839 1012 816T975 779T931 754T881 740T827 733T770 731T713 731H334Q314 641 311 567H578Q632 567 680 567T767 568T831 573T868 584Q857 553 840 530T802 492T757 467T706 453T650 446T593 444T535 444H313Q347 90 705
90Q759 90 851 118T1018 209Q994 90 889 31T618 -29Q386 -29 261 102T131 446H20Q-6 446 -14 444L29 575Q57 571 135 571Q140 635 166 733H72Q43 733 35 731Z" />
<glyph unicode="&#xa5;" glyph-name="yen" horiz-adv-x="1030" d="M221 715Q221 713 410 709L303 1024Q285 1072 266 1129T239 1208T219 1257T194 1293T162 1313L182 1348Q247 1376 324 1376Q387 1376 418 1339Q443 1222 503 1030T598 754L657 834L883 1135Q953
1231 918 1313L938 1348Q1005 1376 1057 1376Q1106 1376 1157 1348Q1150 1311 1093 1219T987 1067L698 707Q749 707 795 707T877 708T939 713T975 723Q966 699 954 680T926 647T893 623T855 606T814 595T770 588T725 585T680 584T635 584Q598 474 584 399H598Q652
399 705 399T800 400T874 405T915 416Q904 385 886 362T844 324T794 299T737 285T678 278T618 276T559 276Q525 107 522 0H330L336 33Q338 46 385 276Q287 279 174 279Q145 279 137 276L162 408Q162 399 410 399L444 584Q346 586 233 586Q205 586 197 584L221 715Z"
/>
<glyph unicode="&#xa7;" glyph-name="section" horiz-adv-x="972" d="M315 -496Q236 -496 175 -477T82 -427T35 -367T23 -311L31 -274Q82 -325 155 -356T297 -387H315Q340 -281 347 -176T342 108T289 543Q232 910 256 1114Q278 1289 392 1408T657 1528Q736 1528
798 1509T892 1460T939 1400T950 1343L942 1307Q890 1358 817 1389T676 1419H655Q631 1312 624 1207T630 923T684 489Q741 123 717 -82Q695 -257 581 -376T315 -496ZM420 510Q442 345 451 255T464 38T451 -186T395 -369Q574 -307 602 -49Q610 27 600 134T553 522Q536
652 528 725T512 907T509 1090T529 1248T575 1401Q399 1338 371 1081Q368 1057 368 1032T368 977T371 914T378 838T389 748T403 639T420 510Z" />
<glyph unicode="&#xa8;" glyph-name="dieresis" horiz-adv-x="786" d="M311 1313Q311 1266 281 1233T209 1200T137 1233T106 1313Q106 1359 137 1392T209 1425T280 1392T311 1313ZM688 1313Q688 1266 658 1233T586 1200T514 1232T483 1313Q483 1359 513 1392T586
1425Q627 1425 657 1392T688 1313Z" />
<glyph unicode="&#xa9;" glyph-name="copyright" horiz-adv-x="1617" d="M1505 727Q1505 514 1416 345T1159 79T776 -18Q485 -18 299 163T113 627Q113 785 167 922T318 1157T555 1312T860 1368Q1046 1368 1193 1287T1423 1059T1505 727ZM1378 680Q1378 935 1221
1099T817 1264Q661 1264 531 1189T322 977T244 672Q244 549 288 441T408 256T592 135T821 90Q933 90 1035 134T1212 256T1333 444T1378 680ZM1079 879L1065 890Q1051 902 1026 915T954 940T852 952Q811 952 770 934T702 889Q631 818 631 692Q631 588 688 513T852
438Q918 438 984 473T1096 571L1102 549Q1108 527 1108 514Q1108 432 1012 372T801 311Q735 311 678 331T574 391T500 497T473 651Q473 824 573 946T831 1069Q953 1069 1024 1014T1079 879Z" />
<glyph unicode="&#xaa;" glyph-name="ordfeminine" horiz-adv-x="858" />
<glyph unicode="&#xab;" glyph-name="guillemotleft" horiz-adv-x="1302" d="M127 506L174 547L506 866Q630 987 717 987Q766 987 793 956Q774 950 746 929T698 890L680 872L395 569Q374 547 346 527T315 506Q318 506 338 485T369 442L539 139L550 122Q562 104
581 83T618 55Q574 27 530 27Q447 24 365 145L160 465L127 506ZM582 506L629 547L961 866Q1085 987 1171 987Q1221 987 1247 956Q1228 950 1200 929T1154 890L1135 872L850 569Q829 547 801 527T770 506Q773 506 793 485T823 442L993 139L1004 122Q1016 104 1036
83T1073 55Q1029 27 985 27Q903 24 819 145L614 465L582 506Z" />
<glyph unicode="&#xac;" glyph-name="logicalnot" horiz-adv-x="1095" />
<glyph unicode="&#xae;" glyph-name="registered" horiz-adv-x="1617" d="M842 293H633Q633 326 635 504T637 799Q637 855 628 892T605 943T582 961T565 965V1008Q644 1049 707 1049Q754 1049 770 1026T786 956Q786 929 780 899Q815 959 869 1008T989 1057Q1045
1057 1071 1029T1098 965Q1098 894 1004 866Q995 892 976 906T936 920Q880 920 844 875T793 765T778 616Q778 518 796 426T842 293ZM1505 727Q1505 514 1416 345T1159 79T776 -18Q485 -18 299 163T113 627Q113 785 167 922T318 1157T555 1312T860 1368Q1046 1368
1193 1287T1423 1059T1505 727ZM1378 680Q1378 935 1221 1099T817 1264Q661 1264 531 1189T322 977T244 672Q244 549 288 441T408 256T592 135T821 90Q933 90 1035 134T1212 256T1333 444T1378 680Z" />
<glyph unicode="&#xaf;" glyph-name="overscore" horiz-adv-x="686" d="M86 1225L113 1356Q112 1352 151 1351T228 1349T332 1348Q386 1348 434 1348T519 1349T583 1354T618 1364Q607 1333 591 1310T554 1273T509 1248T458 1233T404 1227T347 1225T289 1225Q262
1225 199 1226T123 1227Q94 1227 86 1225Z" />
<glyph unicode="&#xb0;" glyph-name="degree" horiz-adv-x="817" d="M739 1176Q739 1033 640 932T399 831Q256 831 156 932T55 1176Q55 1317 155 1416T399 1516Q541 1516 640 1417T739 1176ZM623 1176Q623 1273 559 1337T397 1401Q304 1401 238 1337T172 1176Q172
1084 238 1017T397 950Q493 950 558 1016T623 1176Z" />
<glyph unicode="&#xb1;" glyph-name="plusminus" horiz-adv-x="915" />
<glyph unicode="&#xb4;" glyph-name="acute" horiz-adv-x="692" d="M479 1483H602L496 1343Q352 1157 182 1157Q160 1157 137 1170T113 1190Q168 1206 214 1242T290 1319T348 1396T408 1458T479 1483Z" />
<glyph unicode="&#xb6;" glyph-name="paragraph" horiz-adv-x="1288" d="M973 1352Q1027 1352 1075 1352T1161 1353T1225 1358T1262 1368Q1220 1252 1087 1235Q1081 1212 1073 1169Q786 -243 752 -496H651Q825 362 891 699T985 1229H895Q889 1208 881 1169Q841
983 714 348T559 -496H459L578 98Q591 160 600 184Q526 162 465 162Q355 162 268 227T136 398T90 631Q90 771 147 904T295 1135T507 1292T750 1352H973Z" />
<glyph unicode="&#xb7;" glyph-name="middot" horiz-adv-x="528" d="M365 502Q365 456 333 424T256 391Q210 391 178 423T145 502Q145 546 177 578T256 610Q300 610 332 578T365 502Z" />
<glyph unicode="&#xb8;" glyph-name="cedilla" horiz-adv-x="823" d="M365 -14L408 -12Q402 -20 398 -28T392 -43T387 -56T385 -66T384 -73T383 -77V-78Q383 -94 409 -105T467 -125T524 -159T551 -225Q551 -324 461 -402T270 -481Q204 -481 167 -458T129 -395Q129
-360 147 -332Q164 -352 202 -363T285 -375Q336 -375 380 -347T424 -281Q424 -263 408 -249T370 -226T325 -205T286 -177T270 -135Q270 -62 365 -14Z" />
<glyph unicode="&#xb9;" glyph-name="onesuperior" horiz-adv-x="526" />
<glyph unicode="&#xba;" glyph-name="ordmasculine" horiz-adv-x="843" />
<glyph unicode="&#xbb;" glyph-name="guillemotright" horiz-adv-x="1316" d="M1163 506L1128 547L924 866Q848 987 758 987Q710 987 670 956Q687 950 707 929T738 890L750 872L920 569Q930 548 952 527L975 506L944 485Q914 464 893 442L608 139L566 102Q523
64 496 55Q528 27 571 27Q655 24 782 145L1114 465L1163 506ZM709 506L696 520Q683 534 674 547L469 866Q394 987 303 987Q257 987 215 956Q232 950 252 929T284 890L295 872L465 569Q475 548 498 527L520 506L490 485Q459 464 438 442L154 139L111 102Q68 64 41
55Q73 27 117 27Q200 24 328 145L659 465L709 506Z" />
<glyph unicode="&#xbc;" glyph-name="onequarter" horiz-adv-x="1267" />
<glyph unicode="&#xbd;" glyph-name="onehalf" horiz-adv-x="1267" />
<glyph unicode="&#xbf;" glyph-name="questiondown" horiz-adv-x="849" d="M592 1006L637 1028Q748 969 748 877Q748 856 745 846Q732 779 695 714T610 596T505 490T395 387T298 285T228 175T201 55Q201 -100 377 -100Q439 -100 493 -55T547 70Q547 76 546 87T545
104Q581 147 641 147Q688 147 709 122T731 63Q731 -18 674 -81T531 -175T350 -207Q198 -207 116 -122T33 100Q33 176 65 250T150 385T265 506T391 620T506 726T590 831T623 936Q623 977 592 1006ZM573 1255Q573 1301 605 1333T682 1366Q728 1366 760 1334T793 1255Q793
1211 761 1179T682 1147Q638 1147 606 1179T573 1255Z" />
<glyph unicode="&#xc0;" glyph-name="Agrave" horiz-adv-x="1124" d="M571 1737H420L479 1638Q528 1558 588 1519T748 1479Q805 1479 842 1516Q793 1532 759 1561T708 1619T675 1676T634 1720T571 1737ZM35 0H-111L567 1221Q590 1268 617 1300T675 1348T727 1372T782
1386T827 1395Q827 1328 842 1221L993 164Q999 85 1030 0H799Q800 10 799 34T797 70Q753 384 739 471H283L45 27Q41 19 35 0ZM641 1153L338 569H729Q717 643 683 887T641 1153Z" />
<glyph unicode="&#xc1;" glyph-name="Aacute" horiz-adv-x="1124" d="M1004 1737H1155L1055 1638Q973 1557 899 1518T725 1479Q671 1479 647 1516Q702 1532 747 1561T820 1619T875 1676T934 1720T1004 1737ZM35 0H-111L567 1221Q590 1268 617 1300T675 1348T727
1372T782 1386T827 1395Q827 1328 842 1221L993 164Q999 85 1030 0H799Q800 10 799 34T797 70Q753 384 739 471H283L45 27Q41 19 35 0ZM641 1153L338 569H729Q717 643 683 887T641 1153Z" />
<glyph unicode="&#xc2;" glyph-name="Acircumflex" horiz-adv-x="1124" d="M786 1729H805Q832 1729 859 1707T912 1651T964 1583T1024 1522T1094 1489Q1094 1484 1062 1473T1004 1462Q905 1462 844 1512T762 1653Q721 1591 685 1554T587 1489T446 1462Q420 1462
393 1472T365 1489Q412 1496 472 1535T579 1617T674 1694T748 1729H786ZM35 0H-111L567 1221Q590 1268 617 1300T675 1348T727 1372T782 1386T827 1395Q827 1328 842 1221L993 164Q999 85 1030 0H799Q800 10 799 34T797 70Q753 384 739 471H283L45 27Q41 19 35
0ZM641 1153L338 569H729Q717 643 683 887T641 1153Z" />
<glyph unicode="&#xc3;" glyph-name="Atilde" horiz-adv-x="1124" d="M336 1522Q349 1529 362 1536T393 1551T427 1565T463 1575T502 1579Q544 1579 593 1560T707 1521T852 1501Q967 1501 1063 1546T1200 1681Q1084 1622 1010 1622Q955 1622 846 1655T666 1688Q549
1688 461 1649T336 1522ZM35 0H-111L567 1221Q590 1268 617 1300T675 1348T727 1372T782 1386T827 1395Q827 1328 842 1221L993 164Q999 85 1030 0H799Q800 10 799 34T797 70Q753 384 739 471H283L45 27Q41 19 35 0ZM641 1153L338 569H729Q717 643 683 887T641
1153Z" />
<glyph unicode="&#xc4;" glyph-name="Adieresis" horiz-adv-x="1124" d="M637 1599Q637 1552 607 1520T535 1487T463 1519T432 1599Q432 1645 462 1678T535 1712Q576 1712 606 1679T637 1599ZM1116 1599Q1116 1552 1086 1520T1014 1487T942 1519T911 1599Q911
1645 941 1678T1014 1712Q1055 1712 1085 1679T1116 1599ZM35 0H-111L567 1221Q590 1268 617 1300T675 1348T727 1372T782 1386T827 1395Q827 1328 842 1221L993 164Q999 85 1030 0H799Q800 10 799 34T797 70Q753 384 739 471H283L45 27Q41 19 35 0ZM641 1153L338
569H729Q717 643 683 887T641 1153Z" />
<glyph unicode="&#xc5;" glyph-name="Aring" horiz-adv-x="1124" d="M35 0H-111L567 1221Q590 1268 617 1300T675 1348T727 1372T782 1386T827 1395Q827 1328 842 1221L993 164Q999 85 1030 0H799Q800 10 799 34T797 70Q753 384 739 471H283L45 27Q41 19 35 0ZM641
1153L338 569H729Q717 643 683 887T641 1153ZM854 1794Q840 1798 811 1798Q730 1798 676 1747T621 1608Q621 1531 671 1491T791 1450Q871 1450 927 1503T984 1637Q984 1698 947 1740T854 1794ZM783 1506Q749 1512 727 1542T705 1618Q705 1683 733 1714T799 1745Q842
1745 869 1716T897 1632Q897 1566 868 1535T801 1503Q798 1503 792 1504T783 1506Z" />
<glyph unicode="&#xc6;" glyph-name="AE" horiz-adv-x="1527" d="M731 1352H1128L1475 1358Q1501 1317 1490 1234T1456 1130H1417Q1417 1177 1364 1208T1229 1243L1059 1249Q1059 1247 1055 1227Q1053 1217 1014 1019T950 707H1260Q1288 707 1308 713T1334 726L1341
733L1337 692Q1323 623 1277 602T1137 580H926Q885 385 846 145V129H1225Q1253 129 1273 135T1299 149L1305 156L1304 143Q1304 130 1300 115Q1295 87 1283 67T1252 34T1216 15T1173 4T1133 1T1094 0H608Q630 78 633 96L705 471H352L70 41Q65 34 58 18T49 0H-111L700
1202Q718 1231 721 1253Q727 1276 709 1317L731 1352ZM797 1143L418 569H723L823 1090Q828 1112 839 1169T856 1251L797 1143Z" />
<glyph unicode="&#xc7;" glyph-name="Ccedilla" horiz-adv-x="1277" d="M1077 311Q1079 307 1079 293Q1079 179 969 96T698 -14Q682 -43 682 -78Q682 -91 699 -100T741 -117T790 -135T832 -169T850 -225Q850 -324 760 -402T569 -481Q503 -481 466 -458T428 -395Q428
-360 446 -332Q463 -352 501 -363T584 -375Q635 -375 679 -347T723 -281Q723 -263 707 -249T669 -226T624 -205T585 -177T569 -135Q569 -68 641 -25Q641 -23 643 -23Q589 -27 565 -27Q450 -27 362 12T219 122T138 285T111 489Q111 686 173 853T342 1132T591 1308T893
1372Q1021 1372 1125 1322T1251 1202Q1244 1166 1193 1102T1090 1016L1061 1042Q1063 1049 1063 1061Q1063 1087 1051 1117T1016 1178T947 1229T844 1249Q721 1249 621 1186T460 1020T367 797T334 553Q334 459 354 381T415 242T523 147T680 113Q778 113 893 165T1077
311Z" />
<glyph unicode="&#xc8;" glyph-name="Egrave" horiz-adv-x="1003" d="M510 1737H358L418 1638Q466 1558 527 1519T686 1479Q745 1479 780 1516Q731 1532 697 1561T646 1619T613 1676T573 1720T510 1737ZM291 1085Q306 1159 307 1208T300 1274T285 1313L303 1348H604L950
1354Q976 1313 966 1230T932 1126H893Q893 1173 840 1204T705 1239L535 1245Q482 1041 426 745H741Q769 745 788 751T814 765L819 772L817 731Q811 698 794 675T758 641T709 625T662 619T614 618Q612 618 565 619T477 621T399 621Q345 329 315 141V129H696Q724
129 744 135T772 149L778 156L774 115Q768 82 751 59T715 25T666 8T618 1T571 0H84L111 139L291 1085Z" />
<glyph unicode="&#xc9;" glyph-name="Eacute" horiz-adv-x="1003" d="M793 1737H944L844 1638Q760 1557 687 1518T514 1479Q460 1479 436 1516Q491 1532 536 1561T609 1619T664 1676T723 1720T793 1737ZM291 1085Q306 1159 307 1208T300 1274T285 1313L303 1348H604L950
1354Q976 1313 966 1230T932 1126H893Q893 1173 840 1204T705 1239L535 1245Q482 1041 426 745H741Q769 745 788 751T814 765L819 772L817 731Q811 698 794 675T758 641T709 625T662 619T614 618Q612 618 565 619T477 621T399 621Q345 329 315 141V129H696Q724
129 744 135T772 149L778 156L774 115Q768 82 751 59T715 25T666 8T618 1T571 0H84L111 139L291 1085Z" />
<glyph unicode="&#xca;" glyph-name="Ecircumflex" horiz-adv-x="1003" d="M698 1729H717Q744 1729 771 1707T824 1651T876 1583T936 1522T1006 1489Q1006 1484 974 1473T915 1462Q817 1462 756 1512T674 1653Q633 1591 597 1554T499 1489T358 1462Q332 1462 304
1472T276 1489Q324 1496 384 1535T491 1617T585 1694T659 1729H698ZM291 1085Q306 1159 307 1208T300 1274T285 1313L303 1348H604L950 1354Q976 1313 966 1230T932 1126H893Q893 1173 840 1204T705 1239L535 1245Q482 1041 426 745H741Q769 745 788 751T814 765L819
772L817 731Q811 698 794 675T758 641T709 625T662 619T614 618Q612 618 565 619T477 621T399 621Q345 329 315 141V129H696Q724 129 744 135T772 149L778 156L774 115Q768 82 751 59T715 25T666 8T618 1T571 0H84L111 139L291 1085Z" />
<glyph unicode="&#xcb;" glyph-name="Edieresis" horiz-adv-x="1003" d="M526 1599Q526 1552 496 1520T424 1487T352 1519T322 1599Q322 1645 352 1678T424 1712T495 1679T526 1599ZM1006 1599Q1006 1552 976 1520T903 1487T831 1519T801 1599Q801 1645 831 1678T903
1712Q945 1712 975 1679T1006 1599ZM291 1085Q306 1159 307 1208T300 1274T285 1313L303 1348H604L950 1354Q976 1313 966 1230T932 1126H893Q893 1173 840 1204T705 1239L535 1245Q482 1041 426 745H741Q769 745 788 751T814 765L819 772L817 731Q811 698 794
675T758 641T709 625T662 619T614 618Q612 618 565 619T477 621T399 621Q345 329 315 141V129H696Q724 129 744 135T772 149L778 156L774 115Q768 82 751 59T715 25T666 8T618 1T571 0H84L111 139L291 1085Z" />
<glyph unicode="&#xcc;" glyph-name="Igrave" horiz-adv-x="618" d="M328 1737H176L236 1638Q284 1558 345 1519T504 1479Q561 1479 598 1516Q549 1532 515 1561T464 1619T431 1676T391 1720T328 1737ZM322 0H100Q119 75 313 1090Q328 1168 328 1217Q328 1252
319 1278T303 1315L324 1350L372 1363Q420 1376 469 1376Q531 1376 578 1352Q474 909 403 541Q319 91 319 20Q319 14 320 8T322 0Z" />
<glyph unicode="&#xcd;" glyph-name="Iacute" horiz-adv-x="618" d="M657 1737H809L709 1638Q627 1557 553 1518T379 1479Q324 1479 301 1516Q356 1532 401 1561T474 1619T529 1676T587 1720T657 1737ZM322 0H100Q119 75 313 1090Q328 1168 328 1217Q328 1252
319 1278T303 1315L324 1350L372 1363Q420 1376 469 1376Q531 1376 578 1352Q474 909 403 541Q319 91 319 20Q319 14 320 8T322 0Z" />
<glyph unicode="&#xce;" glyph-name="Icircumflex" horiz-adv-x="618" d="M510 1729H528Q555 1729 583 1707T636 1651T687 1583T748 1522T817 1489Q817 1484 786 1473T727 1462Q629 1462 568 1512T485 1653Q455 1607 428 1576T364 1517T279 1476T170 1462Q144
1462 116 1472T88 1489Q135 1496 195 1535T302 1617T397 1694T471 1729H510ZM322 0H100Q119 75 313 1090Q328 1168 328 1217Q328 1252 319 1278T303 1315L324 1350L372 1363Q420 1376 469 1376Q531 1376 578 1352Q474 909 403 541Q319 91 319 20Q319 14 320 8T322
0Z" />
<glyph unicode="&#xcf;" glyph-name="Idieresis" horiz-adv-x="618" d="M367 1599Q367 1552 337 1520T264 1487T192 1519T162 1599Q162 1645 192 1678T264 1712Q306 1712 336 1679T367 1599ZM743 1599Q743 1552 713 1520T641 1487T569 1519T539 1599Q539 1645
569 1678T641 1712T712 1679T743 1599ZM322 0H100Q119 75 313 1090Q328 1168 328 1217Q328 1252 319 1278T303 1315L324 1350L372 1363Q420 1376 469 1376Q531 1376 578 1352Q474 909 403 541Q319 91 319 20Q319 14 320 8T322 0Z" />
<glyph unicode="&#xd1;" glyph-name="Ntilde" horiz-adv-x="1474" d="M465 1522Q478 1529 491 1536T522 1551T556 1565T592 1575T631 1579Q673 1579 722 1560T836 1521T981 1501Q1096 1501 1192 1546T1329 1681Q1213 1622 1139 1622Q1084 1622 975 1655T795 1688Q678
1688 590 1649T465 1522ZM393 948Q384 901 359 790T324 625Q234 139 225 0H82L88 33L227 764L293 1094Q307 1174 305 1223T283 1315L303 1350Q313 1354 323 1358T345 1365T368 1371T393 1374T418 1370L1032 422Q1053 393 1067 342L1081 291L1084 342Q1088 393 1094
420L1221 1094Q1250 1254 1210 1315L1231 1350Q1269 1374 1335 1374Q1396 1374 1421 1352Q1288 777 1214 391Q1168 137 1151 0H1040L461 911L434 963Q407 1015 403 1038Q403 1000 393 948Z" />
<glyph unicode="&#xd2;" glyph-name="Ograve" horiz-adv-x="1368" d="M721 1737H569L629 1638Q677 1558 738 1519T897 1479Q956 1479 991 1516Q942 1532 908 1561T857 1619T824 1676T784 1720T721 1737ZM872 1372Q721 1372 581 1309T334 1133T163 851T98 485Q98
250 209 112T487 -27T801 41T1057 228T1227 513T1290 870Q1290 1105 1175 1238T872 1372ZM608 96Q478 96 400 224T322 545Q322 721 387 884T558 1146T778 1245Q905 1245 984 1121T1063 805Q1063 627 998 462T828 196T608 96Z" />
<glyph unicode="&#xd3;" glyph-name="Oacute" horiz-adv-x="1368" d="M1065 1737H1217L1116 1638Q1035 1557 961 1518T786 1479Q732 1479 709 1516Q764 1532 809 1561T882 1619T937 1676T995 1720T1065 1737ZM872 1372Q721 1372 581 1309T334 1133T163 851T98
485Q98 250 209 112T487 -27T801 41T1057 228T1227 513T1290 870Q1290 1105 1175 1238T872 1372ZM608 96Q478 96 400 224T322 545Q322 721 387 884T558 1146T778 1245Q905 1245 984 1121T1063 805Q1063 627 998 462T828 196T608 96Z" />
<glyph unicode="&#xd4;" glyph-name="Ocircumflex" horiz-adv-x="1368" d="M909 1729H928Q955 1729 982 1707T1035 1651T1086 1583T1147 1522T1217 1489Q1217 1484 1185 1473T1126 1462Q1028 1462 967 1512T885 1653Q844 1591 808 1554T710 1489T569 1462Q543
1462 515 1472T487 1489Q535 1496 595 1535T702 1617T796 1694T870 1729H909ZM872 1372Q721 1372 581 1309T334 1133T163 851T98 485Q98 250 209 112T487 -27T801 41T1057 228T1227 513T1290 870Q1290 1105 1175 1238T872 1372ZM608 96Q478 96 400 224T322 545Q322
721 387 884T558 1146T778 1245Q905 1245 984 1121T1063 805Q1063 627 998 462T828 196T608 96Z" />
<glyph unicode="&#xd5;" glyph-name="Otilde" horiz-adv-x="1368" d="M422 1522Q435 1529 448 1536T479 1551T513 1565T549 1575T588 1579Q630 1579 679 1560T793 1521T938 1501Q1053 1501 1149 1546T1286 1681Q1170 1622 1096 1622Q1041 1622 932 1655T752 1688Q635
1688 547 1649T422 1522ZM872 1372Q721 1372 581 1309T334 1133T163 851T98 485Q98 250 209 112T487 -27T801 41T1057 228T1227 513T1290 870Q1290 1105 1175 1238T872 1372ZM608 96Q478 96 400 224T322 545Q322 721 387 884T558 1146T778 1245Q905 1245 984 1121T1063
805Q1063 627 998 462T828 196T608 96Z" />
<glyph unicode="&#xd6;" glyph-name="Odieresis" horiz-adv-x="1368" d="M721 1599Q721 1552 691 1520T618 1487T546 1519T516 1599Q516 1645 546 1678T618 1712Q660 1712 690 1679T721 1599ZM1200 1599Q1200 1552 1170 1520T1098 1487T1026 1519T995 1599Q995
1645 1025 1678T1098 1712Q1139 1712 1169 1679T1200 1599ZM872 1372Q721 1372 581 1309T334 1133T163 851T98 485Q98 250 209 112T487 -27T801 41T1057 228T1227 513T1290 870Q1290 1105 1175 1238T872 1372ZM608 96Q478 96 400 224T322 545Q322 721 387 884T558
1146T778 1245Q905 1245 984 1121T1063 805Q1063 627 998 462T828 196T608 96Z" />
<glyph unicode="&#xd8;" glyph-name="Oslash" horiz-adv-x="1368" d="M852 1372Q696 1372 558 1308T318 1130T159 851T100 494Q100 322 160 205L27 74L96 2Q96 3 136 43T213 123Q272 49 353 12T524 -25Q663 -25 786 25T998 162T1153 360T1251 597T1284 850Q1284
1018 1225 1139Q1265 1176 1297 1204T1351 1259T1372 1305Q1372 1323 1358 1337T1309 1372Q1298 1360 1252 1306T1174 1219Q1114 1295 1030 1333T852 1372ZM594 98Q516 98 457 146T362 281L1051 969Q1069 896 1069 805Q1069 689 1040 579T962 383T852 233T724 133T594
98ZM1018 1063L336 379Q322 442 322 530Q322 645 347 755T416 952T517 1106T640 1209T774 1245Q853 1245 916 1197T1018 1063Z" />
<glyph unicode="&#xd9;" glyph-name="Ugrave" horiz-adv-x="1357" d="M723 1737H571L631 1638Q679 1558 740 1519T899 1479Q958 1479 993 1516Q944 1532 910 1561T859 1619T826 1676T786 1720T723 1737ZM1149 444Q1109 239 947 105T547 -29Q472 -29 412 -20T300
13T213 73T159 167T139 301Q139 354 150 428Q200 752 264 1090Q279 1176 279 1217Q279 1242 276 1261T267 1291T256 1315L276 1350L324 1363Q372 1376 420 1376Q485 1376 530 1352Q478 1128 350 455Q338 394 338 346Q338 288 354 244T396 175T457 135T524 114T590
109Q736 109 851 189T995 383L1004 418Q1012 452 1048 629T1139 1094Q1153 1165 1153 1214Q1153 1278 1128 1315L1151 1350Q1185 1374 1255 1374Q1316 1374 1341 1352Q1230 885 1149 444Z" />
<glyph unicode="&#xda;" glyph-name="Uacute" horiz-adv-x="1357" d="M1030 1737H1182L1081 1638Q1000 1557 926 1518T752 1479Q697 1479 674 1516Q729 1532 774 1561T847 1619T902 1676T960 1720T1030 1737ZM1149 444Q1109 239 947 105T547 -29Q472 -29 412 -20T300
13T213 73T159 167T139 301Q139 354 150 428Q200 752 264 1090Q279 1176 279 1217Q279 1242 276 1261T267 1291T256 1315L276 1350L324 1363Q372 1376 420 1376Q485 1376 530 1352Q478 1128 350 455Q338 394 338 346Q338 288 354 244T396 175T457 135T524 114T590
109Q736 109 851 189T995 383L1004 418Q1012 452 1048 629T1139 1094Q1153 1165 1153 1214Q1153 1278 1128 1315L1151 1350Q1185 1374 1255 1374Q1316 1374 1341 1352Q1230 885 1149 444Z" />
<glyph unicode="&#xdb;" glyph-name="Ucircumflex" horiz-adv-x="1357" d="M893 1729H911Q938 1729 966 1707T1019 1651T1070 1583T1131 1522T1200 1489Q1200 1484 1169 1473T1110 1462Q1012 1462 951 1512T868 1653Q838 1607 811 1576T747 1517T662 1476T553
1462Q527 1462 499 1472T471 1489Q518 1496 578 1535T685 1617T780 1694T854 1729H893ZM1149 444Q1109 239 947 105T547 -29Q472 -29 412 -20T300 13T213 73T159 167T139 301Q139 354 150 428Q200 752 264 1090Q279 1176 279 1217Q279 1242 276 1261T267 1291T256
1315L276 1350L324 1363Q372 1376 420 1376Q485 1376 530 1352Q478 1128 350 455Q338 394 338 346Q338 288 354 244T396 175T457 135T524 114T590 109Q736 109 851 189T995 383L1004 418Q1012 452 1048 629T1139 1094Q1153 1165 1153 1214Q1153 1278 1128 1315L1151
1350Q1185 1374 1255 1374Q1316 1374 1341 1352Q1230 885 1149 444Z" />
<glyph unicode="&#xdc;" glyph-name="Udieresis" horiz-adv-x="1357" d="M700 1599Q700 1552 670 1520T598 1487T526 1519T496 1599Q496 1645 526 1678T598 1712T669 1679T700 1599ZM1180 1599Q1180 1552 1150 1520T1077 1487T1005 1519T975 1599Q975 1645 1005
1678T1077 1712Q1119 1712 1149 1679T1180 1599ZM1149 444Q1109 239 947 105T547 -29Q472 -29 412 -20T300 13T213 73T159 167T139 301Q139 354 150 428Q200 752 264 1090Q279 1176 279 1217Q279 1242 276 1261T267 1291T256 1315L276 1350L324 1363Q372 1376 420
1376Q485 1376 530 1352Q478 1128 350 455Q338 394 338 346Q338 288 354 244T396 175T457 135T524 114T590 109Q736 109 851 189T995 383L1004 418Q1012 452 1048 629T1139 1094Q1153 1165 1153 1214Q1153 1278 1128 1315L1151 1350Q1185 1374 1255 1374Q1316 1374
1341 1352Q1230 885 1149 444Z" />
<glyph unicode="&#xdf;" glyph-name="germandbls" horiz-adv-x="1171" d="M459 1167Q490 1285 568 1356T750 1427Q920 1427 920 1300Q920 1272 915 1257Q903 1197 872 1137T804 1032T725 936T651 843T595 747T573 641Q573 595 594 555T646 486T714 429T782 377T835
323T856 260Q856 187 795 137T649 86Q517 86 457 128T397 221Q360 174 360 125Q360 55 437 14T616 -27Q725 -27 821 18T981 152T1044 358Q1044 412 1022 458T966 536T894 597T821 650T766 701T743 756Q743 795 780 848T870 958T976 1076T1067 1212T1104 1356Q1104
1448 1025 1496T827 1544Q724 1544 638 1516T494 1446T393 1346T326 1235T287 1126Q255 1012 158 1004L137 942Q205 911 205 807Q205 760 195 713L70 51L61 0H260Q260 63 264 86L298 304Q333 521 382 791T459 1167Z" />
<glyph unicode="&#xe0;" glyph-name="agrave" horiz-adv-x="1038" d="M827 348Q813 238 813 195Q813 98 891 98Q908 98 924 102L940 106L954 70L922 46Q890 22 836 -2T739 -27Q695 -27 668 -6T631 47T622 119T630 192T647 254Q582 134 483 54T295 -27Q208 -27
145 58T82 299Q82 494 156 665T360 939T643 1042Q684 1042 798 1023T956 1001L905 745Q889 659 827 348ZM752 907L694 920Q637 932 592 932Q510 932 436 848T316 621T270 322Q270 219 307 170T399 121Q491 121 643 313Q740 727 752 907ZM551 1483H432L486 1343Q558
1157 721 1157Q744 1157 772 1170T803 1190Q754 1206 723 1242T677 1319T649 1396T612 1458T551 1483Z" />
<glyph unicode="&#xe1;" glyph-name="aacute" horiz-adv-x="1038" d="M827 348Q813 238 813 195Q813 98 891 98Q908 98 924 102L940 106L954 70L922 46Q890 22 836 -2T739 -27Q695 -27 668 -6T631 47T622 119T630 192T647 254Q582 134 483 54T295 -27Q208 -27
145 58T82 299Q82 494 156 665T360 939T643 1042Q684 1042 798 1023T956 1001L905 745Q889 659 827 348ZM752 907L694 920Q637 932 592 932Q510 932 436 848T316 621T270 322Q270 219 307 170T399 121Q491 121 643 313Q740 727 752 907ZM917 1483H1040L934 1343Q790
1157 620 1157Q598 1157 575 1170T551 1190Q606 1206 652 1242T728 1319T786 1396T846 1458T917 1483Z" />
<glyph unicode="&#xe2;" glyph-name="acircumflex" horiz-adv-x="1038" d="M827 348Q813 238 813 195Q813 98 891 98Q908 98 924 102L940 106L954 70L922 46Q890 22 836 -2T739 -27Q695 -27 668 -6T631 47T622 119T630 192T647 254Q582 134 483 54T295 -27Q208
-27 145 58T82 299Q82 494 156 665T360 939T643 1042Q684 1042 798 1023T956 1001L905 745Q889 659 827 348ZM752 907L694 920Q637 932 592 932Q510 932 436 848T316 621T270 322Q270 219 307 170T399 121Q491 121 643 313Q740 727 752 907ZM725 1483H741Q765 1483
788 1456T831 1388T872 1306T921 1231T981 1190Q978 1184 950 1171T899 1157Q809 1157 757 1222T698 1391Q686 1362 678 1345T642 1287T587 1223T510 1178T407 1157Q385 1157 361 1170T337 1190Q379 1199 435 1247T535 1347T623 1441T692 1483H725Z" />
<glyph unicode="&#xe3;" glyph-name="atilde" horiz-adv-x="1038" d="M827 348Q813 238 813 195Q813 98 891 98Q908 98 924 102L940 106L954 70L922 46Q890 22 836 -2T739 -27Q695 -27 668 -6T631 47T622 119T630 192T647 254Q582 134 483 54T295 -27Q208 -27
145 58T82 299Q82 494 156 665T360 939T643 1042Q684 1042 798 1023T956 1001L905 745Q889 659 827 348ZM752 907L694 920Q637 932 592 932Q510 932 436 848T316 621T270 322Q270 219 307 170T399 121Q491 121 643 313Q740 727 752 907ZM316 1241Q396 1292 445
1292Q481 1292 576 1258T752 1223Q844 1223 921 1264T1031 1386Q933 1331 877 1331Q836 1331 736 1366T578 1401Q492 1401 419 1361T316 1241Z" />
<glyph unicode="&#xe4;" glyph-name="adieresis" horiz-adv-x="1038" d="M827 348Q813 238 813 195Q813 98 891 98Q908 98 924 102L940 106L954 70L922 46Q890 22 836 -2T739 -27Q695 -27 668 -6T631 47T622 119T630 192T647 254Q582 134 483 54T295 -27Q208 -27
145 58T82 299Q82 494 156 665T360 939T643 1042Q684 1042 798 1023T956 1001L905 745Q889 659 827 348ZM752 907L694 920Q637 932 592 932Q510 932 436 848T316 621T270 322Q270 219 307 170T399 121Q491 121 643 313Q740 727 752 907ZM587 1313Q587 1266 557
1233T485 1200T413 1233T382 1313Q382 1359 413 1392T485 1425T556 1392T587 1313ZM964 1313Q964 1266 934 1233T862 1200T790 1232T759 1313Q759 1359 789 1392T862 1425Q903 1425 933 1392T964 1313Z" />
<glyph unicode="&#xe5;" glyph-name="aring" horiz-adv-x="1038" d="M827 348Q813 238 813 195Q813 98 891 98Q908 98 924 102L940 106L954 70L922 46Q890 22 836 -2T739 -27Q695 -27 668 -6T631 47T622 119T630 192T647 254Q582 134 483 54T295 -27Q208 -27 145
58T82 299Q82 494 156 665T360 939T643 1042Q684 1042 798 1023T956 1001L905 745Q889 659 827 348ZM752 907L694 920Q637 932 592 932Q510 932 436 848T316 621T270 322Q270 219 307 170T399 121Q491 121 643 313Q740 727 752 907ZM747 1505Q733 1509 704 1509Q623
1509 569 1458T514 1319Q514 1242 564 1202T684 1161Q764 1161 820 1214T877 1348Q877 1409 840 1451T747 1505ZM676 1217Q642 1223 620 1253T598 1329Q598 1394 626 1425T692 1456Q735 1456 762 1427T790 1343Q790 1277 761 1246T694 1214Q691 1214 685 1215T676
1217Z" />
<glyph unicode="&#xe6;" glyph-name="ae" horiz-adv-x="1521" d="M82 299Q82 494 156 665T360 939T643 1042Q672 1042 781 1025T946 1008Q985 1008 1058 1023T1188 1038Q1321 1038 1388 981T1456 825Q1456 719 1376 637T1171 514T899 473H854V440Q854 384 865
332T901 233T971 158T1077 129Q1162 129 1252 177T1413 309Q1413 221 1353 143T1194 19T989 -27Q872 -27 787 50T676 264Q605 148 495 61T295 -27Q208 -27 145 58T82 299ZM399 121Q449 121 525 190T668 340V369Q668 527 728 666T889 903H885Q843 903 757 919T606
936Q524 936 446 851T319 622T270 322Q270 219 307 170T399 121ZM1159 924Q1105 924 1054 888T967 795T904 674T868 547Q918 551 957 557T1045 574T1130 605T1197 652T1245 721T1262 815Q1262 860 1240 892T1159 924Z" />
<glyph unicode="&#xe7;" glyph-name="ccedilla" horiz-adv-x="944" d="M274 420Q274 294 333 212T510 129Q594 129 679 176T836 309Q840 193 735 98T485 -20Q479 -30 475 -40T470 -57T468 -69T467 -76V-78Q467 -94 493 -105T551 -125T608 -159T635 -225Q635 -324
545 -402T354 -481Q288 -481 251 -458T213 -395Q213 -360 231 -332Q248 -352 286 -363T369 -375Q420 -375 464 -347T508 -281Q508 -263 492 -249T454 -226T409 -205T370 -177T354 -135Q354 -70 426 -27H412Q272 -27 177 82T82 373Q82 536 151 689T344 940T612 1038Q690
1038 756 1022T868 967T913 877Q913 811 855 775T735 778Q735 845 704 884T588 924Q502 924 428 846T314 652T274 420Z" />
<glyph unicode="&#xe8;" glyph-name="egrave" horiz-adv-x="940" d="M406 -27Q264 -27 173 82T84 379Q87 513 133 637T253 847T418 986T604 1038Q738 1038 806 980T872 821Q870 715 790 635T585 514T315 473H274Q270 441 270 420Q269 349 291 285T367 175T494
129Q578 129 668 177T829 309Q833 222 771 143T610 19T406 -27ZM575 924Q521 924 470 888T383 795T321 674T285 547Q346 552 393 559T496 585T589 631T651 706T678 815Q680 858 656 891T575 924ZM524 1483H405L459 1343Q531 1157 694 1157Q717 1157 745 1170T776
1190Q727 1206 696 1242T650 1319T622 1396T585 1458T524 1483Z" />
<glyph unicode="&#xe9;" glyph-name="eacute" horiz-adv-x="940" d="M891 1483H1014L907 1343Q763 1157 594 1157Q572 1157 548 1170T524 1190Q580 1206 626 1242T702 1319T760 1396T820 1458T891 1483ZM406 -27Q264 -27 173 82T84 379Q87 513 133 637T253 847T418
986T604 1038Q738 1038 806 980T872 821Q870 715 790 635T585 514T315 473H274Q270 441 270 420Q269 349 291 285T367 175T494 129Q578 129 668 177T829 309Q833 222 771 143T610 19T406 -27ZM575 924Q521 924 470 888T383 795T321 674T285 547Q346 552 393 559T496
585T589 631T651 706T678 815Q680 858 656 891T575 924Z" />
<glyph unicode="&#xea;" glyph-name="ecircumflex" horiz-adv-x="940" d="M406 -27Q264 -27 173 82T84 379Q87 513 133 637T253 847T418 986T604 1038Q738 1038 806 980T872 821Q870 715 790 635T585 514T315 473H274Q270 441 270 420Q269 349 291 285T367 175T494
129Q578 129 668 177T829 309Q833 222 771 143T610 19T406 -27ZM575 924Q521 924 470 888T383 795T321 674T285 547Q346 552 393 559T496 585T589 631T651 706T678 815Q680 858 656 891T575 924ZM701 1483H717Q741 1483 764 1456T807 1388T848 1306T897 1231T957
1190Q954 1184 926 1171T875 1157Q785 1157 733 1222T674 1391Q662 1362 654 1345T618 1287T563 1223T486 1178T383 1157Q361 1157 337 1170T313 1190Q355 1199 411 1247T511 1347T599 1441T668 1483H701Z" />
<glyph unicode="&#xeb;" glyph-name="edieresis" horiz-adv-x="940" d="M406 -27Q264 -27 173 82T84 379Q87 513 133 637T253 847T418 986T604 1038Q738 1038 806 980T872 821Q870 715 790 635T585 514T315 473H274Q270 441 270 420Q269 349 291 285T367 175T494
129Q578 129 668 177T829 309Q833 222 771 143T610 19T406 -27ZM575 924Q521 924 470 888T383 795T321 674T285 547Q346 552 393 559T496 585T589 631T651 706T678 815Q680 858 656 891T575 924ZM555 1313Q555 1266 525 1233T453 1200T381 1233T350 1313Q350 1359
381 1392T453 1425T524 1392T555 1313ZM932 1313Q932 1266 902 1233T830 1200T758 1232T727 1313Q727 1359 757 1392T830 1425Q871 1425 901 1392T932 1313Z" />
<glyph unicode="&#xec;" glyph-name="igrave" horiz-adv-x="542" d="M92 0L94 8Q244 793 244 825Q245 862 229 880T188 899Q178 899 172 897L154 930Q189 971 251 1002T371 1034Q410 1034 429 1007T446 938Q446 919 437 875T415 783T401 725Q392 678 356 459T305
154Q293 90 293 37Q293 12 291 0H92ZM475 1483H356L410 1343Q482 1157 645 1157Q668 1157 696 1170T727 1190Q678 1206 647 1242T601 1319T573 1396T536 1458T475 1483Z" />
<glyph unicode="&#xed;" glyph-name="iacute" horiz-adv-x="542" d="M592 1483H715L608 1343Q464 1157 295 1157Q273 1157 249 1170T225 1190Q281 1206 327 1242T403 1319T461 1396T521 1458T592 1483ZM92 0L94 8Q244 793 244 825Q245 862 229 880T188 899Q178
899 172 897L154 930Q189 971 251 1002T371 1034Q410 1034 429 1007T446 938Q446 919 437 875T415 783T401 725Q392 678 356 459T305 154Q293 90 293 37Q293 12 291 0H92Z" />
<glyph unicode="&#xee;" glyph-name="icircumflex" horiz-adv-x="542" d="M92 0L94 8Q244 793 244 825Q245 862 229 880T188 899Q178 899 172 897L154 930Q189 971 251 1002T371 1034Q410 1034 429 1007T446 938Q446 919 437 875T415 783T401 725Q392 678 356
459T305 154Q293 90 293 37Q293 12 291 0H92ZM670 1483H686Q710 1483 733 1456T776 1388T817 1306T866 1231T926 1190Q923 1184 895 1171T844 1157Q754 1157 702 1222T643 1391Q631 1362 623 1345T587 1287T532 1223T455 1178T352 1157Q330 1157 306 1170T282 1190Q324
1199 380 1247T480 1347T568 1441T637 1483H670Z" />
<glyph unicode="&#xef;" glyph-name="idieresis" horiz-adv-x="542" d="M92 0L94 8Q244 793 244 825Q245 862 229 880T188 899Q178 899 172 897L154 930Q189 971 251 1002T371 1034Q410 1034 429 1007T446 938Q446 919 437 875T415 783T401 725Q392 678 356 459T305
154Q293 90 293 37Q293 12 291 0H92ZM540 1313Q540 1266 510 1233T438 1200T366 1233T335 1313Q335 1359 366 1392T438 1425T509 1392T540 1313ZM917 1313Q917 1266 887 1233T815 1200T743 1232T712 1313Q712 1359 742 1392T815 1425Q856 1425 886 1392T917 1313Z"
/>
<glyph unicode="&#xf1;" glyph-name="ntilde" horiz-adv-x="1107" d="M403 770Q433 813 477 857T577 944T700 1014T829 1042Q905 1042 958 984T1004 821Q1001 785 968 617T903 267T872 0H678Q678 12 692 98Q783 565 799 696Q810 790 791 835T713 881Q629 881 537
821T387 682Q382 650 348 463T293 154Q284 90 281 37V0H82V8L229 778Q238 821 224 860T178 899Q168 899 162 897L143 930Q176 970 239 1002T360 1034Q436 1034 436 938Q436 875 403 770ZM363 1241Q443 1292 492 1292Q528 1292 623 1258T799 1223Q891 1223 968 1264T1078
1386Q980 1331 924 1331Q883 1331 783 1366T625 1401Q539 1401 466 1361T363 1241Z" />
<glyph unicode="&#xf2;" glyph-name="ograve" horiz-adv-x="1030" d="M641 1038Q529 1038 428 988T251 849T131 636T84 369Q83 316 89 268T114 164T166 68T255 0T389 -27Q506 -27 610 29T786 179T902 395T946 647Q949 831 865 934T641 1038ZM555 934Q649 934 700
845T748 606Q746 382 658 228T457 74Q369 74 323 164T281 403Q282 447 289 505T315 641T363 782T442 890T555 934ZM528 1483H409L463 1343Q535 1157 698 1157Q721 1157 749 1170T780 1190Q731 1206 700 1242T654 1319T626 1396T589 1458T528 1483Z" />
<glyph unicode="&#xf3;" glyph-name="oacute" horiz-adv-x="1030" d="M641 1038Q529 1038 428 988T251 849T131 636T84 369Q83 316 89 268T114 164T166 68T255 0T389 -27Q506 -27 610 29T786 179T902 395T946 647Q949 831 865 934T641 1038ZM555 934Q649 934 700
845T748 606Q746 382 658 228T457 74Q369 74 323 164T281 403Q282 447 289 505T315 641T363 782T442 890T555 934ZM889 1483H1012L906 1343Q762 1157 592 1157Q570 1157 547 1170T523 1190Q578 1206 624 1242T700 1319T758 1396T818 1458T889 1483Z" />
<glyph unicode="&#xf4;" glyph-name="ocircumflex" horiz-adv-x="1030" d="M641 1038Q529 1038 428 988T251 849T131 636T84 369Q83 316 89 268T114 164T166 68T255 0T389 -27Q506 -27 610 29T786 179T902 395T946 647Q949 831 865 934T641 1038ZM555 934Q649
934 700 845T748 606Q746 382 658 228T457 74Q369 74 323 164T281 403Q282 447 289 505T315 641T363 782T442 890T555 934ZM730 1483H746Q770 1483 793 1456T836 1388T877 1306T926 1231T986 1190Q983 1184 955 1171T904 1157Q814 1157 762 1222T703 1391Q691 1362
683 1345T647 1287T592 1223T515 1178T412 1157Q390 1157 366 1170T342 1190Q384 1199 440 1247T540 1347T628 1441T697 1483H730Z" />
<glyph unicode="&#xf5;" glyph-name="otilde" horiz-adv-x="1030" d="M641 1038Q529 1038 428 988T251 849T131 636T84 369Q83 316 89 268T114 164T166 68T255 0T389 -27Q506 -27 610 29T786 179T902 395T946 647Q949 831 865 934T641 1038ZM555 934Q649 934 700
845T748 606Q746 382 658 228T457 74Q369 74 323 164T281 403Q282 447 289 505T315 641T363 782T442 890T555 934ZM307 1241Q387 1292 436 1292Q472 1292 567 1258T743 1223Q835 1223 912 1264T1022 1386Q924 1331 868 1331Q827 1331 727 1366T569 1401Q483 1401
410 1361T307 1241Z" />
<glyph unicode="&#xf6;" glyph-name="odieresis" horiz-adv-x="1030" d="M641 1038Q529 1038 428 988T251 849T131 636T84 369Q83 316 89 268T114 164T166 68T255 0T389 -27Q506 -27 610 29T786 179T902 395T946 647Q949 831 865 934T641 1038ZM555 934Q649 934
700 845T748 606Q746 382 658 228T457 74Q369 74 323 164T281 403Q282 447 289 505T315 641T363 782T442 890T555 934ZM565 1313Q565 1266 535 1233T463 1200T391 1233T360 1313Q360 1359 391 1392T463 1425T534 1392T565 1313ZM942 1313Q942 1266 912 1233T840
1200T768 1232T737 1313Q737 1359 767 1392T840 1425Q881 1425 911 1392T942 1313Z" />
<glyph unicode="&#xf7;" glyph-name="divide" horiz-adv-x="1001" d="M596 229Q596 180 563 147T481 113Q432 113 399 146T365 229Q365 277 398 310T481 344Q529 344 562 311T596 229ZM596 819Q596 770 563 736T481 702Q432 702 399 736T365 819Q365 867 398 900T481
934Q529 934 562 901T596 819ZM180 461V592Q180 584 524 584Q578 584 626 584T712 585T774 590T809 600Q804 569 792 546T762 509T722 484T674 469T620 463T564 461T506 461Q479 461 355 462T217 463Q188 463 180 461Z" />
<glyph unicode="&#xf8;" glyph-name="oslash" horiz-adv-x="1030" d="M1016 977Q1016 994 1002 1009T952 1044Q937 1028 907 992T860 938Q780 1038 641 1038Q529 1038 428 988T251 849T131 636T84 369Q80 263 109 176Q70 134 0 70L63 2L150 90Q229 -27 389 -27Q506
-27 610 29T786 179T902 395T946 647Q946 775 911 852Q929 868 945 882T974 909T996 933T1011 955T1016 977ZM457 74Q395 74 354 118T295 244L743 694Q748 668 748 606Q746 382 658 228T457 74ZM555 934Q672 934 721 795L281 346V403Q282 447 289 505T315 641T363
782T442 890T555 934Z" />
<glyph unicode="&#xf9;" glyph-name="ugrave" horiz-adv-x="1128" d="M750 897L731 930Q764 971 826 1002T948 1034Q1024 1034 1024 938Q1024 908 1014 854T995 770L895 231Q891 199 891 186Q891 139 914 119T971 98Q996 98 1016 106L1030 70Q987 32 918 3T803
-27Q690 -27 690 94Q690 159 719 240Q689 197 645 153T545 65T422 -5T293 -33Q222 -33 171 20T119 166Q119 206 165 441T225 778Q227 786 227 805Q227 845 214 872T174 899Q164 899 158 897L139 930Q172 971 234 1002T356 1034Q432 1034 432 938Q432 884 406 770Q392
702 362 577T319 379T305 256Q305 193 329 161T410 129Q493 129 586 189T735 328Q738 347 753 428T785 605T817 786V805Q817 899 766 899Q756 899 750 897ZM508 1483H389L443 1343Q515 1157 678 1157Q701 1157 729 1170T760 1190Q711 1206 680 1242T634 1319T606
1396T569 1458T508 1483Z" />
<glyph unicode="&#xfa;" glyph-name="uacute" horiz-adv-x="1128" d="M750 897L731 930Q764 971 826 1002T948 1034Q1024 1034 1024 938Q1024 908 1014 854T995 770L895 231Q891 199 891 186Q891 139 914 119T971 98Q996 98 1016 106L1030 70Q987 32 918 3T803
-27Q690 -27 690 94Q690 159 719 240Q689 197 645 153T545 65T422 -5T293 -33Q222 -33 171 20T119 166Q119 206 165 441T225 778Q227 786 227 805Q227 845 214 872T174 899Q164 899 158 897L139 930Q172 971 234 1002T356 1034Q432 1034 432 938Q432 884 406 770Q392
702 362 577T319 379T305 256Q305 193 329 161T410 129Q493 129 586 189T735 328Q738 347 753 428T785 605T817 786V805Q817 899 766 899Q756 899 750 897ZM909 1483H1032L926 1343Q782 1157 612 1157Q590 1157 567 1170T543 1190Q598 1206 644 1242T720 1319T778
1396T838 1458T909 1483Z" />
<glyph unicode="&#xfb;" glyph-name="ucircumflex" horiz-adv-x="1128" d="M750 897L731 930Q764 971 826 1002T948 1034Q1024 1034 1024 938Q1024 908 1014 854T995 770L895 231Q891 199 891 186Q891 139 914 119T971 98Q996 98 1016 106L1030 70Q987 32 918
3T803 -27Q690 -27 690 94Q690 159 719 240Q689 197 645 153T545 65T422 -5T293 -33Q222 -33 171 20T119 166Q119 206 165 441T225 778Q227 786 227 805Q227 845 214 872T174 899Q164 899 158 897L139 930Q172 971 234 1002T356 1034Q432 1034 432 938Q432 884
406 770Q392 702 362 577T319 379T305 256Q305 193 329 161T410 129Q493 129 586 189T735 328Q738 347 753 428T785 605T817 786V805Q817 899 766 899Q756 899 750 897ZM713 1483H729Q753 1483 776 1456T819 1388T860 1306T909 1231T969 1190Q966 1184 938 1171T887
1157Q797 1157 745 1222T686 1391Q674 1362 666 1345T630 1287T575 1223T498 1178T395 1157Q373 1157 349 1170T325 1190Q367 1199 423 1247T523 1347T611 1441T680 1483H713Z" />
<glyph unicode="&#xfc;" glyph-name="udieresis" horiz-adv-x="1128" d="M750 897L731 930Q764 971 826 1002T948 1034Q1024 1034 1024 938Q1024 908 1014 854T995 770L895 231Q891 199 891 186Q891 139 914 119T971 98Q996 98 1016 106L1030 70Q987 32 918 3T803
-27Q690 -27 690 94Q690 159 719 240Q689 197 645 153T545 65T422 -5T293 -33Q222 -33 171 20T119 166Q119 206 165 441T225 778Q227 786 227 805Q227 845 214 872T174 899Q164 899 158 897L139 930Q172 971 234 1002T356 1034Q432 1034 432 938Q432 884 406 770Q392
702 362 577T319 379T305 256Q305 193 329 161T410 129Q493 129 586 189T735 328Q738 347 753 428T785 605T817 786V805Q817 899 766 899Q756 899 750 897ZM587 1313Q587 1266 557 1233T485 1200T413 1233T382 1313Q382 1359 413 1392T485 1425T556 1392T587 1313ZM964
1313Q964 1266 934 1233T862 1200T790 1232T759 1313Q759 1359 789 1392T862 1425Q903 1425 933 1392T964 1313Z" />
<glyph unicode="&#xff;" glyph-name="ydieresis" horiz-adv-x="921" d="M465 168Q586 361 681 553T776 842Q776 891 754 931T686 981Q713 1026 788 1026Q911 1026 911 897Q911 807 860 682T750 455Q691 352 631 255T493 37T339 -183T187 -367T41 -501T-84 -549Q-155
-549 -197 -513T-240 -418Q-240 -371 -225 -330Q-221 -355 -182 -370T-98 -385Q85 -385 334 -27Q306 -15 290 12T273 64T266 111L180 698Q172 762 158 806T128 869T99 894T74 901L61 899L41 934Q83 974 140 1004T244 1034Q295 1034 316 1006T338 909Q335 833 420
309Q426 259 465 168ZM477 1313Q477 1266 447 1233T375 1200T303 1233T272 1313Q272 1359 303 1392T375 1425T446 1392T477 1313ZM854 1313Q854 1266 824 1233T752 1200T680 1232T649 1313Q649 1359 679 1392T752 1425Q793 1425 823 1392T854 1313Z" />
<glyph unicode="&#x131;" glyph-name="dotlessi" horiz-adv-x="542" d="M92 0L94 8Q244 793 244 825Q245 862 229 880T188 899Q178 899 172 897L154 930Q189 971 251 1002T371 1034Q410 1034 429 1007T446 938Q446 919 437 875T415 783T401 725Q392 678 356 459T305
154Q293 90 293 37Q293 12 291 0H92Z" />
<glyph unicode="&#x141;" glyph-name="Lslash" horiz-adv-x="1024" />
<glyph unicode="&#x152;" glyph-name="OE" horiz-adv-x="1683" d="M842 1352H1284L1630 1358Q1656 1317 1646 1234T1612 1130H1573Q1573 1177 1520 1208T1384 1243L1214 1249L1199 1166Q1184 1082 1171 1024L1110 745H1421Q1449 745 1469 751T1495 765L1501 772L1497
731Q1493 707 1483 689T1461 659T1431 639T1399 626T1363 620T1329 618T1296 618Q1139 618 1085 616Q1015 242 1001 141Q998 135 1001 129H1380Q1408 129 1427 135T1452 149L1458 156V143Q1458 130 1454 115Q1448 82 1431 59T1395 25T1347 8T1300 1T1253 0H596Q493
0 403 34T245 132T138 295T98 516Q98 695 158 852T320 1118T558 1289T842 1352ZM707 109H793L799 139L977 1090Q996 1196 989 1251H797Q719 1251 636 1200T484 1063T371 848T326 578Q326 370 431 240T707 109Z" />
<glyph unicode="&#x153;" glyph-name="oe" horiz-adv-x="1572" d="M641 1038Q791 1038 874 922Q897 892 901 854Q913 878 940 905Q1006 968 1083 1003T1237 1038Q1371 1038 1439 980T1505 821Q1503 715 1423 635T1218 514T948 473H907Q903 441 903 420Q902 349
924 285T1000 175T1126 129Q1211 129 1301 177T1462 309Q1466 223 1405 144T1249 19T1059 -27Q968 -27 882 27T766 164Q759 146 719 104Q573 -27 389 -27Q313 -27 256 0T166 67T115 164T89 268T84 369Q86 511 131 636T251 849T427 987T641 1038ZM555 934Q492 934
442 890T364 783T316 642T289 506T281 403Q277 255 323 165T457 74Q569 74 657 228T748 606Q751 756 700 845T555 934ZM1208 924Q1154 924 1103 888T1016 795T954 674T918 547Q979 552 1026 559T1129 585T1222 631T1284 706T1311 815Q1313 858 1289 891T1208 924Z"
/>
<glyph unicode="&#x178;" glyph-name="Ydieresis" horiz-adv-x="1003" d="M459 1599Q459 1552 429 1520T356 1487T284 1519T254 1599Q254 1645 284 1678T356 1712Q398 1712 428 1679T459 1599ZM938 1599Q938 1552 908 1520T836 1487T764 1519T733 1599Q733 1645
763 1678T836 1712Q877 1712 907 1679T938 1599ZM440 0H221L227 33Q289 335 297 383L340 616Q326 634 309 680L193 1024Q177 1066 161 1114T137 1185T119 1234T100 1272T80 1295T51 1313L72 1348Q137 1376 213 1376Q277 1376 307 1339Q332 1222 392 1030T487 754L547
834L772 1135Q842 1231 807 1313L827 1348Q894 1376 946 1376Q996 1376 1047 1348Q1039 1311 983 1219T877 1067L553 662Q514 467 494 352Q445 105 440 0Z" />
<glyph unicode="&#x192;" glyph-name="florin" horiz-adv-x="989" d="M506 1126Q485 1064 448 1036T369 1004L344 942L352 939Q361 936 373 928T396 905T415 865T420 805Q294 -294 18 -412Q-14 -426 -47 -426Q-107 -426 -135 -395T-160 -319Q-160 -312 -150 -287Q-211
-276 -258 -304T-309 -377Q-312 -439 -249 -476T-98 -514Q-22 -514 45 -495T164 -443T261 -360T340 -254T403 -128T454 10T496 158Q566 438 614 887Q621 887 680 886T754 885Q788 885 814 890T870 909T916 954T936 1032L932 1026Q927 1020 909 1014T862 1008H637Q639
1012 643 1029T651 1055L682 1217Q705 1315 750 1367T874 1419Q915 1419 935 1395T954 1335Q979 1325 999 1325Q1042 1325 1079 1356T1120 1430Q1123 1481 1070 1513T946 1546Q891 1546 835 1526T717 1461T600 1330T506 1126Z" />
<glyph unicode="&#x2c6;" glyph-name="circumflex" horiz-adv-x="823" d="M449 1483H465Q489 1483 512 1456T555 1388T596 1306T645 1231T705 1190Q702 1184 674 1171T623 1157Q533 1157 481 1222T422 1391Q410 1362 402 1345T366 1287T311 1223T234 1178T131
1157Q109 1157 85 1170T61 1190Q103 1199 159 1247T259 1347T347 1441T416 1483H449Z" />
<glyph unicode="&#x2c7;" glyph-name="caron" horiz-adv-x="823" />
<glyph unicode="&#x2d8;" glyph-name="breve" horiz-adv-x="823" d="M397 1247Q437 1247 480 1275T559 1349T623 1437T670 1520Q678 1484 678 1442Q678 1370 651 1312T578 1219T480 1164T373 1145Q286 1145 226 1191T166 1323T231 1518Q235 1478 245 1436T275
1349T326 1276T397 1247Z" />
<glyph unicode="&#x2d9;" glyph-name="dotaccent" horiz-adv-x="380" d="M307 1290Q307 1244 269 1210T182 1176Q144 1176 118 1201T92 1266Q92 1314 128 1350T213 1386Q252 1386 279 1358T307 1290Z" />
<glyph unicode="&#x2da;" glyph-name="ring" horiz-adv-x="1064" d="M575 1505Q561 1509 532 1509Q451 1509 397 1458T342 1319Q342 1242 392 1202T512 1161Q592 1161 648 1214T705 1348Q705 1409 668 1451T575 1505ZM504 1217Q470 1223 448 1253T426 1329Q426
1394 454 1425T520 1456Q563 1456 590 1427T618 1343Q618 1277 589 1246T522 1214Q519 1214 513 1215T504 1217Z" />
<glyph unicode="&#x2db;" glyph-name="ogonek" horiz-adv-x="565" />
<glyph unicode="&#x2dc;" glyph-name="tilde" horiz-adv-x="778" d="M37 1241Q117 1292 166 1292Q202 1292 297 1258T473 1223Q565 1223 642 1264T752 1386Q654 1331 598 1331Q557 1331 457 1366T299 1401Q213 1401 140 1361T37 1241Z" />
<glyph unicode="&#x2dd;" glyph-name="hungarumlaut" horiz-adv-x="1198" />
<glyph unicode="&#x394;" glyph-name="increment" horiz-adv-x="1370" />
<glyph unicode="&#x3a9;" glyph-name="Omega" horiz-adv-x="753" />
<glyph unicode="&#x3bc;" glyph-name="mu" horiz-adv-x="1062" />
<glyph unicode="&#x3c0;" glyph-name="pi" horiz-adv-x="868" />
<glyph unicode="&#x2013;" glyph-name="endash" horiz-adv-x="925" d="M45 438L72 569Q70 561 598 561Q652 561 700 561T786 562T849 567T885 578Q874 547 858 524T821 486T776 461T725 447T670 440T613 438T555 438Q528 438 312 439T82 440Q53 440 45 438Z" />
<glyph unicode="&#x2014;" glyph-name="emdash" horiz-adv-x="1390" d="M39 438L66 569Q63 561 1063 561Q1117 561 1165 561T1251 562T1314 567T1350 578Q1339 547 1322 524T1285 486T1241 461T1190 447T1135 440T1078 438T1020 438Q993 438 541 439T76 440Q47
440 39 438Z" />
<glyph unicode="&#x2018;" glyph-name="quoteleft" horiz-adv-x="428" d="M426 1161Q428 1161 428 1141Q428 1092 392 1064T303 1036Q266 1036 237 1068T207 1149Q207 1232 292 1337T537 1532L563 1483Q458 1391 419 1338T379 1219Q379 1161 426 1161Z" />
<glyph unicode="&#x2019;" glyph-name="quoteright" horiz-adv-x="428" d="M270 1401Q268 1401 268 1421Q268 1470 304 1498T393 1526Q430 1526 459 1494T489 1413Q489 1330 404 1225T160 1030L133 1079Q238 1171 277 1224T317 1343Q317 1401 270 1401Z" />
<glyph unicode="&#x201a;" glyph-name="quotesinglbase" horiz-adv-x="428" d="M90 68Q88 68 88 88Q88 137 124 165T213 193Q250 193 279 161T309 80Q309 -3 225 -108T-20 -303L-47 -254Q58 -162 97 -109T137 10Q137 68 90 68Z" />
<glyph unicode="&#x201c;" glyph-name="quotedblleft" horiz-adv-x="806" d="M426 1161Q428 1161 428 1141Q428 1092 392 1064T303 1036Q266 1036 237 1068T207 1149Q207 1232 292 1337T537 1532L563 1483Q458 1391 419 1338T379 1219Q379 1161 426 1161ZM805
1161Q807 1161 807 1141Q807 1092 771 1064T682 1036Q645 1036 616 1068T586 1149Q586 1232 671 1337T915 1532L942 1483Q837 1391 798 1338T758 1219Q758 1161 805 1161Z" />
<glyph unicode="&#x201d;" glyph-name="quotedblright" horiz-adv-x="806" d="M649 1407Q647 1407 647 1427Q647 1476 683 1504T772 1532Q809 1532 838 1500T868 1419Q868 1336 783 1231T539 1036L512 1085Q617 1177 656 1230T696 1350Q696 1407 649 1407ZM270
1407Q268 1407 268 1427Q268 1476 304 1504T393 1532Q430 1532 459 1500T489 1419Q489 1336 404 1231T160 1036L133 1085Q238 1177 277 1230T317 1350Q317 1407 270 1407Z" />
<glyph unicode="&#x201e;" glyph-name="quotedblbase" horiz-adv-x="788" d="M90 68Q88 68 88 88Q88 137 124 165T213 193Q250 193 279 161T309 80Q309 -3 225 -108T-20 -303L-47 -254Q58 -162 97 -109T137 10Q137 68 90 68ZM451 68Q449 68 449 88Q449 137 485
165T573 193Q611 193 640 161T670 80Q670 -3 585 -108T340 -303L313 -254Q418 -162 458 -109T498 10Q498 68 451 68Z" />
<glyph unicode="&#x2020;" glyph-name="dagger" horiz-adv-x="997" d="M664 1006H707Q761 1006 809 1006T894 1007T957 1012T993 1022Q982 991 965 968T927 930T881 905T827 891T768 885T703 883T635 883Q577 640 524 367Q497 226 463 18T422 -221Q407 -302 381
-366T334 -460T296 -505L279 -520L268 -501Q258 -482 248 -435T238 -330Q238 -257 276 -58T366 371T424 637Q432 678 448 770T469 883Q393 885 295 885Q240 885 215 883L240 1014Q240 1006 492 1006Q500 1060 511 1160T530 1315Q578 1325 608 1325Q653 1325 677
1309T707 1263T709 1194T691 1107T664 1006Z" />
<glyph unicode="&#x2021;" glyph-name="daggerdbl" horiz-adv-x="1017" d="M684 1006Q754 1006 810 1006T908 1007T976 1011T1014 1022Q1003 991 986 968T949 930T904 905T853 891T799 885T742 883T684 883H655Q614 717 498 121Q566 121 621 121T717 122T784 126T821
137Q810 106 793 83T756 46T710 21T658 7T601 0T540 -2T477 -2Q457 -155 442 -221Q427 -302 402 -366T354 -460T317 -505T299 -520Q293 -520 276 -466T258 -328Q258 -251 274 -172L313 0Q51 0 43 -2L68 129Q68 121 340 121L406 436Q472 752 489 883Q414 885 315
885Q260 885 236 883L260 1014Q260 1006 512 1006Q520 1061 532 1163T551 1315Q596 1325 629 1325Q673 1325 698 1309T728 1264T729 1195T711 1108T684 1006Z" />
<glyph unicode="&#x2022;" glyph-name="bullet" horiz-adv-x="868" d="M432 758Q536 758 611 684T686 506Q686 401 612 327T432 252Q326 252 252 326T178 506Q178 610 252 684T432 758Z" />
<glyph unicode="&#x2026;" glyph-name="ellipsis" horiz-adv-x="1357" d="M377 84Q377 38 345 6T268 -27Q222 -27 190 5T158 84Q158 128 190 160T268 193Q313 193 345 161T377 84ZM797 84Q797 38 765 6T688 -27Q642 -27 610 5T578 84Q578 128 610 160T688 193Q733
193 765 161T797 84ZM1206 84Q1206 38 1174 6T1098 -27Q1052 -27 1020 5T987 84Q987 129 1019 161T1098 193Q1142 193 1174 161T1206 84Z" />
<glyph unicode="&#x2030;" glyph-name="perthousand" horiz-adv-x="2353" d="M1995 662Q1816 662 1692 533T1567 211Q1567 95 1626 36T1784 -23Q1903 -23 2004 40T2162 206T2220 426Q2220 540 2159 601T1995 662ZM1849 59Q1781 59 1747 108T1712 246Q1712 393
1775 485T1929 578Q2001 578 2040 529T2079 391Q2079 247 2009 153T1849 59ZM391 0H246Q772 751 957 1026T1147 1350Q1187 1380 1229 1380Q1290 1380 1290 1339Q1290 1307 1251 1248T1194 1169Q1192 1166 1009 907T638 375T391 0ZM1247 662Q1069 662 944 533T819
211Q819 95 878 36T1036 -23Q1155 -23 1256 40T1415 206T1473 426Q1473 540 1412 601T1247 662ZM1102 59Q1034 59 1000 108T965 246Q965 393 1028 485T1182 578Q1253 578 1292 529T1331 391Q1331 247 1261 153T1102 59ZM547 1378Q368 1378 244 1249T119 928Q119
812 178 753T336 694Q455 694 556 757T714 923T772 1143Q772 1256 711 1317T547 1378ZM401 776Q333 776 299 825T264 963Q264 1110 327 1202T481 1294Q553 1294 592 1245T631 1108Q631 964 561 870T401 776Z" />
<glyph unicode="&#x2039;" glyph-name="guilsinglleft" horiz-adv-x="755" d="M80 506L127 547L459 866Q583 987 672 987Q719 987 745 956Q726 950 698 929T652 890L633 872L348 569Q327 548 298 527L268 506L290 485Q311 464 322 442L492 139L503 122Q514 104
534 83T571 55Q527 27 483 27Q394 27 317 145L113 465L80 506Z" />
<glyph unicode="&#x203a;" glyph-name="guilsinglright" horiz-adv-x="755" d="M662 506L649 520Q636 534 627 547L422 866Q347 987 256 987Q208 987 168 956Q185 950 205 929T236 890L248 872L418 569Q428 548 450 527L473 506L442 485Q412 464 391 442L106 139L64
102Q22 64 -4 55Q24 27 70 27Q153 23 281 145L612 465L662 506Z" />
<glyph unicode="&#x2044;" glyph-name="fraction" horiz-adv-x="1011" d="M125 0H-20Q508 753 692 1027T881 1350Q919 1380 963 1380Q1024 1380 1024 1339Q1024 1307 984 1247T928 1169Q926 1166 743 907T372 375T125 0Z" />
<glyph unicode="&#x20ac;" glyph-name="Euro" horiz-adv-x="1200" d="M35 731L78 862Q120 856 209 856Q311 1091 510 1231T952 1372Q1072 1372 1156 1328T1241 1237Q1241 1180 1184 1139Q1179 1179 1106 1214T903 1249Q730 1249 585 1137T371 854H756Q810 854
858 854T942 855T1005 860T1040 870Q1029 839 1012 816T975 779T931 754T881 740T827 733T770 731T713 731H334Q314 641 311 567H578Q632 567 680 567T767 568T831 573T868 584Q857 553 840 530T802 492T757 467T706 453T650 446T593 444T535 444H313Q347 90 705
90Q759 90 851 118T1018 209Q994 90 889 31T618 -29Q386 -29 261 102T131 446H20Q-6 446 -14 444L29 575Q57 571 135 571Q140 635 166 733H72Q43 733 35 731Z" />
<glyph unicode="&#x2122;" glyph-name="trademark" horiz-adv-x="1642" d="M1499 686H1350Q1359 764 1389 912T1423 1077Q1436 1133 1436 1169Q1436 1211 1418 1230T1360 1249Q1266 1249 1184 1184Q1102 787 1102 686H952Q960 744 972 809T1001 954T1026 1077Q1036
1123 1036 1167T1019 1230T963 1249Q859 1249 770 1165Q768 1153 747 1047T710 843T694 686H539L635 1145Q643 1177 643 1208Q643 1244 631 1265T606 1289L594 1292L602 1333Q674 1370 737 1370Q803 1370 803 1313Q803 1299 791 1253Q910 1374 1051 1374Q1112 1374
1148 1340T1190 1253Q1305 1374 1450 1374Q1514 1374 1550 1335T1587 1237Q1587 1219 1585 1208L1569 1120Q1565 1101 1542 994T1508 818T1499 705V686ZM367 1462L330 1354H459Q485 1354 504 1360T530 1374L537 1380Q539 1374 539 1364Q539 1316 502 1285T406 1253Q398
1253 369 1254T326 1255H311Q299 1191 281 1105T252 965Q238 897 238 864Q238 797 307 797Q345 797 389 812T444 842Q444 776 389 722T246 668Q94 668 94 817Q94 871 133 1025T172 1231Q172 1242 169 1251T160 1266T149 1277T136 1284T125 1289T117 1292H115L131
1354Q203 1354 285 1462H367Z" />
<glyph unicode="&#x2202;" glyph-name="partialdiff" horiz-adv-x="24" d="M25 1421V0H0V1421H25Z" />
<glyph unicode="&#x220f;" glyph-name="product" horiz-adv-x="868" />
<glyph unicode="&#x2211;" glyph-name="summation" horiz-adv-x="970" />
<glyph unicode="&#x221a;" glyph-name="radical" horiz-adv-x="460" />
<glyph unicode="&#x221e;" glyph-name="infinity" horiz-adv-x="1267" />
<glyph unicode="&#x222b;" glyph-name="integral'" horiz-adv-x="675" />
<glyph unicode="&#x2248;" glyph-name="approxequal" horiz-adv-x="1370" />
<glyph unicode="&#x2260;" glyph-name="notequal" horiz-adv-x="983" />
<glyph unicode="&#x2264;" glyph-name="lessequal" horiz-adv-x="460" />
<glyph unicode="&#x2265;" glyph-name="greaterequal" horiz-adv-x="460" />
<glyph unicode="&#x25ca;" glyph-name="lozenge" horiz-adv-x="974" />
<glyph unicode="&#xf8ff;" glyph-name="" horiz-adv-x="1415" d="M145 0V1008H1274V0H145ZM500 399L295 592V123L1118 127V592L911 399L707 598L500 399ZM473 774Q473 819 441 851T365 883Q319 883 287 851T254 774Q254 728 286 696T365 664Q409 664 441 696T473
774ZM821 774Q821 819 789 851T713 883Q667 883 635 851T602 774Q602 728 634 696T713 664Q757 664 789 696T821 774ZM1174 774Q1174 819 1142 851T1065 883Q1019 883 987 851T954 774Q954 728 986 696T1065 664Q1110 664 1142 696T1174 774Z" />
<glyph unicode="&#xfb01;" glyph-name="fi" horiz-adv-x="1198" d="M250 713L125 51L117 0H315Q315 65 319 86L374 412Q429 738 461 887Q466 887 501 884T551 881Q720 881 725 1030L720 1026Q716 1023 709 1019T687 1012T651 1008H473Q481 1025 485 1055Q493 1108
500 1143T519 1222T546 1294T584 1351T638 1398T709 1425T803 1436Q867 1436 920 1404T973 1325Q973 1308 954 1262Q968 1235 995 1219T1053 1202Q1097 1202 1130 1233T1163 1313Q1163 1386 1117 1441T1001 1523T852 1550Q654 1550 528 1449T342 1126Q310 1012
213 1004L193 942Q260 912 260 807Q260 760 250 713ZM748 0L750 8Q899 793 899 825Q899 899 844 899Q834 899 827 897L809 930Q844 971 906 1002T1026 1034Q1064 1034 1083 1010T1102 944Q1102 928 1093 884T1072 787T1057 725L961 154Q955 122 953 71T946 0H748Z"
/>
<glyph unicode="&#xfb02;" glyph-name="fl" horiz-adv-x="1175" d="M737 0H936V31Q936 134 1011 539T1151 1214Q1186 1309 1186 1397Q1186 1480 1159 1493Q1054 1550 852 1550Q654 1550 528 1449T342 1126Q310 1012 213 1004L193 942Q260 912 260 807Q260 760
250 713L125 51L117 0H315V33Q315 68 319 86L374 412Q429 738 461 887Q466 887 501 884T551 881Q720 881 725 1030L720 1026Q716 1023 709 1019T687 1012T651 1008H473Q481 1025 485 1055Q493 1108 500 1143T519 1222T546 1294T584 1351T638 1398T709 1425T803
1436T911 1411T983 1346Q983 1313 977 1274L741 31L737 0Z" />
<glyph unicode="&#xfb03;" glyph-name="ffi" horiz-adv-x="1658" />
<glyph unicode="&#xfb06;" glyph-name="st" horiz-adv-x="1675" />
</font>
</defs>
</svg>
