<?xml version="1.0" standalone="no"?> <!DOCTYPE svg PUBLIC "-//W3C//DTD SVG 1.0//EN" "http://www.w3.org/TR/2001/REC-SVG-20010904/DTD/svg10.dtd" > <svg xmlns="http://www.w3.org/2000/svg" width="100%" height="100%">
<defs >
<font id="Fontin-Regular" horiz-adv-x="931" ><font-face
    font-family="Fontin"
    units-per-em="2048"
    panose-1="2 0 5 3 0 0 0 0 0 0"
    ascent="1800"
    descent="-549"
    alphabetic="0" />
<missing-glyph horiz-adv-x="1000" />
<glyph unicode=" " glyph-name="space" horiz-adv-x="634" />
<glyph unicode="!" glyph-name="exclam" horiz-adv-x="540" d="M387 84Q387 38 355 6T279 -27Q233 -27 201 5T168 84Q168 129 200 161T279 193Q323 193 355 161T387 84ZM309 311H250L176 1311Q172 1360 160 1395T138 1442L127 1454V1501L146 1512Q165 1524 197
1535T258 1546Q311 1546 344 1535T394 1497T414 1441T414 1362T400 1269T382 1157T367 1034L309 311Z" />
<glyph unicode="&quot;" glyph-name="quotedbl" horiz-adv-x="802" d="M266 1554H373L350 1389Q320 1179 164 1118Q139 1109 113 1111T82 1118Q122 1154 145 1213T177 1328T193 1437T217 1522T266 1554ZM594 1554H700L678 1389Q647 1179 492 1118Q467 1109 441
1111T410 1118Q450 1154 473 1213T505 1328T520 1437T545 1522T594 1554Z" />
<glyph unicode="#" glyph-name="numbersign" horiz-adv-x="1441" d="M129 782L143 913Q143 909 444 905Q463 1115 463 1210Q463 1269 446 1337Q497 1376 537 1376Q560 1376 574 1366T595 1332T602 1289T604 1233Q604 1183 571 905H842Q860 1121 860 1210Q860 1262
844 1337Q895 1376 934 1376Q957 1376 971 1366T992 1332T999 1289T1001 1233Q1001 1189 969 905H1067Q1121 905 1169 905T1254 906T1317 911T1352 922Q1347 891 1335 868T1305 830T1265 805T1217 791T1163 784T1107 782T1049 782H954Q949 736 940 648T926 518H1030Q1084
518 1132 518T1218 519T1280 524T1315 535Q1310 504 1298 481T1268 443T1228 418T1180 404T1126 397T1070 395T1012 395H913Q890 182 883 16L743 -14Q773 228 791 395H516Q491 167 485 16L346 -14Q379 253 393 397H129Q100 397 92 395L106 526Q106 522 408 518Q431
758 434 784H166Q137 784 129 782ZM803 518Q807 553 831 782H559L528 518H803Z" />
<glyph unicode="$" glyph-name="dollar" horiz-adv-x="937" d="M555 -217H455Q455 -88 457 -27Q323 -26 243 30T162 158Q162 197 186 227Q199 182 277 146T451 109H457Q461 481 461 592Q418 620 407 627T357 662T304 702T259 741T215 786T181 833T152 888T136
946T129 1012Q129 1097 164 1173T276 1306T455 1374Q454 1404 446 1516Q494 1526 504 1526Q533 1526 545 1505T555 1451T553 1376Q676 1368 759 1316T842 1180Q842 1143 823 1102Q817 1156 735 1196T551 1243Q550 1187 549 1037T547 813Q598 782 632 760T712 704T788
636T846 561T887 470T901 365Q901 221 805 114T551 -18L555 -217ZM707 305Q707 370 665 424T545 535Q543 420 547 119Q618 137 662 183T707 305ZM287 1067Q287 1012 331 965T461 864Q461 1143 459 1239Q381 1228 334 1186T287 1067Z" />
<glyph unicode="%" glyph-name="percent" horiz-adv-x="1634" d="M432 0H287Q813 751 998 1026T1188 1350Q1228 1380 1270 1380Q1331 1380 1331 1339Q1331 1321 1319 1295T1292 1248T1259 1202T1235 1169Q1233 1166 1050 907T679 375T432 0ZM1249 662Q1094 662
998 563T901 307Q901 146 977 62T1171 -23Q1327 -23 1426 80T1528 334Q1528 490 1450 576T1249 662ZM1221 59Q1135 59 1087 138T1038 350Q1038 456 1082 517T1200 578Q1289 578 1342 502T1395 297Q1395 190 1345 125T1221 59ZM481 1378Q326 1378 230 1280T133 1024Q133
863 209 779T403 694Q559 694 658 797T760 1051Q760 1207 682 1292T481 1378ZM453 776Q367 776 319 855T270 1067Q270 1172 314 1233T432 1294Q521 1294 574 1219T627 1014Q627 906 577 841T453 776Z" />
<glyph unicode="&amp;" glyph-name="ampersand" horiz-adv-x="1554" d="M1104 1008L1083 979L1092 924Q1102 870 1102 827Q1102 541 1004 350Q790 557 606 838Q629 851 658 871T746 939T848 1036T926 1154T961 1288Q961 1403 870 1474T635 1546Q455 1546 350 1452T244
1206Q244 1136 283 1024T393 791Q269 701 198 591T127 360Q127 283 156 214T237 90T368 5T541 -27Q801 -27 954 123Q1046 51 1142 12T1321 -27Q1425 -27 1481 19T1538 131Q1475 102 1415 102Q1280 102 1075 283Q1195 506 1212 885Q1230 885 1262 884T1305 883Q1369
883 1415 912T1462 991L1458 1032L1454 1026Q1450 1020 1432 1014T1386 1008H1104ZM434 723Q636 404 874 188Q780 111 659 111Q565 111 485 164T360 300T315 475Q315 627 434 723ZM813 1245Q813 1197 792 1149T743 1065T677 995T613 942T563 909Q424 1144 424 1274Q424
1353 476 1398T612 1444Q706 1444 759 1392T813 1245Z" />
<glyph unicode="&apos;" glyph-name="quotesingle" horiz-adv-x="475" d="M266 1554H373L350 1389Q320 1179 164 1118Q139 1109 113 1111T82 1118Q122 1154 145 1213T177 1328T193 1437T217 1522T266 1554Z" />
<glyph unicode="(" glyph-name="parenleft" horiz-adv-x="675" d="M131 485Q131 241 198 9T380 -372T621 -520Q611 -520 578 -473T500 -331T413 -120T342 160T313 485Q313 640 340 787T408 1038T492 1222T571 1341T621 1380Q484 1380 370 1252T194 918T131 485Z" />
<glyph unicode=")" glyph-name="parenright" horiz-adv-x="675" d="M545 485Q545 242 477 9T295 -372T55 -520Q65 -520 98 -473T175 -331T262 -120T333 160T362 485Q362 640 335 787T267 1038T183 1222T104 1341T55 1380Q192 1380 306 1252T482 918T545 485Z" />
<glyph unicode="*" glyph-name="asterisk" horiz-adv-x="823" d="M524 1274L510 1249L504 1243H565Q646 1243 684 1243T761 1248T811 1260Q805 1223 788 1197T750 1156T695 1133T634 1123T565 1120H506L514 1108Q552 1044 581 994T634 910T670 870Q636 858 608
858T554 870T511 896T472 942T440 992T406 1053L397 1077L387 1053Q361 1008 339 970T300 901T275 849T266 813V809Q207 857 207 924Q207 954 220 992T248 1057T289 1128Q250 1130 178 1130Q28 1130 4 1112Q9 1141 21 1163T48 1200T86 1225T129 1240T180 1247T232
1250T287 1251H301L297 1257Q174 1481 139 1495Q174 1507 199 1507Q231 1507 259 1493T313 1448T355 1395T397 1327L406 1305L414 1327Q541 1534 541 1577V1581Q600 1533 600 1468Q600 1440 587 1403T562 1342T524 1274Z" />
<glyph unicode="+" glyph-name="plus" horiz-adv-x="964" d="M535 139H403Q412 139 412 457Q363 457 302 457T198 458T150 459Q121 459 113 457V588Q113 580 412 580V606Q412 660 412 708T411 793T406 855T395 889Q442 899 461 899Q493 899 511 886T533 850T539
797T539 735Q539 731 538 678T537 580H580Q634 580 682 580T767 581T829 586T864 596Q859 565 847 542T817 505T777 480T729 465T675 459T619 457T561 457H535Q532 358 532 176Q532 147 535 139Z" />
<glyph unicode="," glyph-name="comma" horiz-adv-x="423" d="M61 -295L25 -246Q160 -117 160 -20Q160 70 100 70Q94 118 126 155T205 193Q263 193 292 159T322 61Q322 -18 253 -116T61 -295Z" />
<glyph unicode="-" glyph-name="hyphen" horiz-adv-x="618" d="M59 436V567Q59 559 281 559Q335 559 383 559T468 560T530 565T565 575Q560 544 548 521T518 484T478 459T430 444T376 438T320 436T262 436Q235 436 172 437T96 438Q68 438 59 436Z" />
<glyph unicode="." glyph-name="period" horiz-adv-x="423" d="M322 84Q322 38 290 6T213 -27Q167 -27 135 5T102 84Q102 128 134 160T213 193Q257 193 289 161T322 84Z" />
<glyph unicode="/" glyph-name="slash" horiz-adv-x="595" d="M109 -500H-53Q130 232 237 745T336 1341Q344 1355 388 1373T473 1391Q517 1391 520 1337Q523 1313 517 1281T501 1212T489 1169Q488 1165 448 998T359 622T256 183T161 -238T109 -500Z" />
<glyph unicode="0" glyph-name="zero" horiz-adv-x="1165" d="M578 -27Q807 -4 935 173T1063 614Q1063 761 1030 875T936 1060T797 1167T625 1204Q466 1204 347 1121T165 894T102 567Q102 414 137 297T233 110T371 6T535 -29Q563 -29 578 -27ZM526 1075Q529 1075
537 1076T549 1077Q691 1077 786 926T881 537Q881 343 797 212T600 78Q509 78 437 153T325 358T281 651Q281 821 352 940T526 1075Z" />
<glyph unicode="1" glyph-name="one" horiz-adv-x="659" d="M485 0H283V8L289 872Q292 977 252 1012L78 956L41 1057L389 1208H420L471 1122L468 1054Q465 986 465 965L469 154Q469 78 485 0Z" />
<glyph unicode="2" glyph-name="two" horiz-adv-x="917" d="M82 0H678Q771 0 808 34T846 117Q846 143 840 164Q821 145 786 142T596 139H246L286 172Q325 204 385 258T514 389T643 549T742 729T782 913Q782 969 762 1019T701 1111T586 1179T416 1204Q331 1204
257 1183T135 1118T86 1018Q86 955 141 935T242 958V973Q242 1023 287 1062T395 1102Q485 1102 530 1029T575 850Q575 758 525 647T402 441T257 268T134 139L82 90V0Z" />
<glyph unicode="3" glyph-name="three" horiz-adv-x="901" d="M150 -170Q117 -170 93 -156T59 -125T45 -94L41 -80Q73 -84 94 -84Q177 -84 257 -65T411 -6T533 107T584 276Q584 328 575 371T551 443T513 495T469 532T417 555T366 570T315 580L338 635L342 637Q433
679 493 756T553 915Q553 960 538 1000T484 1071T385 1102Q319 1102 272 1063T231 958Q191 928 156 929T98 955T74 1018Q74 1097 168 1150T389 1204Q482 1204 554 1181T669 1120T732 1037T754 946Q754 857 687 780T502 641Q549 634 585 624T664 590T734 534T780
444T799 315Q799 215 758 132T651 -5T499 -98T325 -153T150 -170Z" />
<glyph unicode="4" glyph-name="four" horiz-adv-x="1024" d="M88 203L61 233Q103 362 220 580T463 983T649 1208H774L770 1122L767 1054Q764 986 764 965V342Q876 342 918 346T977 367Q1014 205 815 203H766Q766 53 768 -14Q768 -90 784 -168H582V-160L584 203H88ZM602
1004Q539 934 420 718T242 342H584L588 848Q590 928 602 1004Z" />
<glyph unicode="5" glyph-name="five" horiz-adv-x="907" d="M201 1178H532Q580 1178 614 1178T673 1178T715 1180T743 1184T762 1191T776 1202Q781 1181 782 1162T777 1119T753 1079T701 1051T614 1038H274L262 750Q788 750 788 336Q788 236 754 151T662 8T528
-91T369 -151T201 -170Q168 -170 144 -156T110 -125T96 -94L92 -80Q126 -84 145 -84Q225 -84 298 -62T432 4T532 124T573 297Q573 369 556 427T512 522T448 585T377 623T305 641Q236 652 195 648L154 643L135 676L168 1151L201 1178Z" />
<glyph unicode="6" glyph-name="six" horiz-adv-x="1105" d="M664 848Q496 848 348 741Q358 871 391 971T475 1130T584 1219T709 1249Q784 1249 865 1215T975 1137Q981 1159 981 1196Q981 1242 950 1277T870 1331T770 1359T668 1368T568 1356T465 1314T366 1242T278
1134T206 989T159 801T141 569Q141 457 164 355T235 166T364 26T553 -27Q655 -27 740 14T882 126T968 286T999 477Q999 662 904 755T664 848ZM344 633V686Q379 708 444 723T561 739Q678 739 742 650T807 397Q807 246 754 162T602 78Q532 78 480 128T399 263T358
439T344 633Z" />
<glyph unicode="7" glyph-name="seven" horiz-adv-x="851" d="M309 -49L823 1143L791 1178H322Q274 1178 240 1178T181 1178T139 1180T111 1184T92 1191T78 1202Q72 1179 72 1157T83 1105T123 1053T212 1015T360 999Q458 999 522 1005T602 1018L618 1024L211 80Q162
-38 132 -81T74 -137Q95 -153 123 -161T185 -169T252 -137T309 -49Z" />
<glyph unicode="8" glyph-name="eight" horiz-adv-x="1048" d="M133 291Q133 375 161 447T234 568T319 646T399 696Q289 783 229 860T168 1028Q168 1181 272 1274T555 1368Q700 1368 790 1297T881 1110Q881 1058 862 1008T817 922T755 853T694 801T643 768Q700
726 736 697T819 625T892 546T937 463T956 369Q956 197 826 85T502 -27Q450 -27 401 -17T302 17T216 76T156 166T133 291ZM520 82Q612 81 688 148T764 297Q764 335 747 373T702 444T635 511T555 578T467 645Q285 548 285 332Q285 221 352 153T520 82ZM348 1096Q348
1026 407 962T578 815Q603 828 626 846T675 895T717 969T733 1067Q733 1161 680 1213T532 1266Q448 1266 398 1221T348 1096Z" />
<glyph unicode="9" glyph-name="nine" horiz-adv-x="1122" d="M436 330Q520 325 608 352T772 434Q748 173 646 48T399 -72Q325 -67 251 -34T147 41Q141 17 141 -6Q137 -53 163 -89T236 -145T332 -177T434 -190Q507 -194 577 -173T717 -98T841 41T933 257T979 555Q984
671 965 779T903 982T779 1137T592 1204Q490 1209 404 1173T258 1071T165 919T125 735Q115 542 204 439T436 330ZM530 1100Q603 1096 655 1037T734 883T770 690T776 489Q737 466 665 451T541 440Q426 444 367 548T317 825Q322 958 380 1031T530 1100Z" />
<glyph unicode=":" glyph-name="colon" horiz-adv-x="528" d="M387 86Q387 37 354 3T272 -31Q223 -31 190 3T156 86Q156 134 189 167T272 201Q320 201 353 168T387 86ZM387 676Q387 627 354 593T272 559Q223 559 190 593T156 676Q156 724 190 757T272 791T353
757T387 676Z" />
<glyph unicode=";" glyph-name="semicolon" horiz-adv-x="528" d="M342 670Q342 624 310 592T233 559Q187 559 155 591T123 670Q123 714 155 746T233 778Q278 778 310 746T342 670ZM84 -295L47 -246Q182 -117 182 -20Q182 70 123 70Q117 118 149 155T227 193Q285
193 314 159T344 61Q344 -19 276 -117T84 -295Z" />
<glyph unicode="&lt;" glyph-name="less" horiz-adv-x="755" d="M268 506L294 527Q320 548 336 569L563 872L578 890Q593 908 617 929T659 956H629Q569 956 499 933T389 866L121 547L80 506L125 461L397 139Q434 96 501 74T629 51H659Q638 60 616 78T582 111L571
125L340 438Q321 461 294 484L268 506Z" />
<glyph unicode="=" glyph-name="equal" horiz-adv-x="983" d="M113 600V731Q113 723 580 723Q634 723 682 723T767 724T829 729T864 739Q859 708 847 685T817 648T777 623T729 608T675 602T619 600T561 600Q534 600 349 601T150 602Q121 602 113 600ZM113 293V424Q113
416 580 416Q634 416 682 416T767 417T829 422T864 432Q859 401 847 378T817 341T777 316T729 301T675 295T619 293T561 293Q534 293 349 294T150 295Q121 295 113 293Z" />
<glyph unicode="&gt;" glyph-name="greater" horiz-adv-x="755" d="M473 506L447 527Q421 548 406 569L178 872L163 890Q148 908 124 929T82 956H113Q172 956 242 933T352 866L623 547Q633 534 648 520L662 506L616 461L344 139Q308 96 240 74T113 51H82Q103 60
125 78T158 111L170 125L401 438Q420 461 446 484L473 506Z" />
<glyph unicode="?" glyph-name="question" horiz-adv-x="849" d="M356 334L315 311Q172 377 172 494Q172 554 195 613T254 724T335 825T424 924T505 1018T565 1115T588 1214Q588 1440 377 1440Q314 1440 266 1402T217 1292Q217 1268 227 1235Q199 1192 139 1192Q85
1192 59 1224T33 1296Q33 1411 133 1478T383 1546Q562 1546 663 1441T764 1167Q764 1079 717 991T603 832T470 694T356 557T309 426Q309 370 356 334ZM424 84Q424 38 392 6T315 -27Q269 -27 237 5T205 84Q205 128 237 160T315 193T392 161T424 84Z" />
<glyph unicode="@" glyph-name="at" horiz-adv-x="1847" d="M1219 348Q1220 305 1219 265T1222 191T1236 131T1266 91T1319 76Q1386 76 1449 142T1552 326T1593 578Q1593 753 1507 902T1270 1138T942 1225Q748 1225 592 1125T348 849T260 455Q260 168 407 -28T797
-268Q811 -272 846 -272Q904 -272 924 -260Q891 -381 735 -381Q609 -381 492 -314T293 -137T161 115T111 406Q111 597 181 771T368 1071T649 1273T991 1348Q1194 1348 1361 1255T1624 998T1720 631Q1720 456 1656 299T1477 44T1225 -55Q1135 -55 1084 0T1042 174Q993
76 919 27T770 -23Q648 -23 559 98T469 381Q469 521 516 644T643 852T830 987T1057 1036Q1150 1036 1245 1006Q1235 924 1231 825T1223 557T1219 348ZM1030 219L1057 946Q1045 946 1039 946T1002 942T946 930T884 904T817 862T756 796T702 703T667 578T653 416Q653
299 717 212T868 125Q958 125 1030 219Z" />
<glyph unicode="A" glyph-name="A" horiz-adv-x="1208" d="M717 1395Q728 1338 766 1221L1126 164Q1151 77 1198 0H950Q945 46 936 70L799 471H324L168 27Q166 20 165 11T162 0H10L475 1221Q487 1260 506 1289T544 1335T589 1362T633 1378T678 1387T717 1395ZM764
569L565 1153L358 569H764Z" />
<glyph unicode="B" glyph-name="B" horiz-adv-x="1138" d="M225 0L227 139V1085Q227 1131 224 1167T215 1225T203 1264T189 1291T174 1313L188 1348L551 1358Q648 1361 726 1337T850 1269T921 1174T946 1065Q946 975 894 900T748 770Q809 752 858 724T948 654T1013
551T1036 414Q1036 225 904 113T549 0H225ZM518 698L432 702Q428 301 436 98H567Q710 98 782 170T854 346Q854 513 761 602T518 698ZM543 797Q612 797 680 784Q772 872 772 1008Q772 1118 707 1182T543 1245L442 1243Q442 1112 440 1024Q434 802 434 797H543Z"
/>
<glyph unicode="C" glyph-name="C" horiz-adv-x="1247" d="M1157 311Q1165 295 1165 268Q1165 181 1102 113T934 9T700 -27Q559 -27 446 24T258 166T145 379T106 645Q106 856 187 1021T418 1279T762 1372Q893 1372 1010 1322T1161 1202Q1161 1166 1121 1102T1032
1016L999 1042Q999 1065 984 1097T939 1165T857 1224T737 1249Q655 1249 587 1221T473 1145T394 1030T347 889T332 733Q332 611 361 501T445 304T589 165T791 113Q890 113 997 165T1157 311Z" />
<glyph unicode="D" glyph-name="D" horiz-adv-x="1386" d="M659 0H225Q227 35 227 96V139V1069Q227 1122 225 1156T211 1237T174 1313L188 1348L651 1358Q749 1360 840 1336T1011 1259T1151 1131T1245 949T1280 715Q1280 564 1236 433T1112 206T915 55T659 0ZM684
109Q752 109 818 145T937 244T1023 403T1057 608Q1059 785 993 933T810 1164T557 1243L442 1239Q442 1232 437 949T432 508Q432 277 438 109H684Z" />
<glyph unicode="E" glyph-name="E" horiz-adv-x="1024" d="M227 1085Q227 1131 224 1167T215 1225T203 1264T189 1291T174 1313L188 1348H496L846 1354Q869 1330 879 1279T887 1183T872 1126H834Q824 1173 764 1204T618 1239L444 1245Q430 1002 430 745H752Q780
745 799 751T822 765L827 772Q831 772 831 731Q831 707 824 689T808 659T781 639T751 626T715 620T681 618T647 618Q645 618 597 619T506 621T428 621Q426 419 434 141Q434 137 438 129H827Q855 129 874 135T898 149L903 156Q907 156 907 115Q907 87 899 67T875
34T843 15T802 4T763 1T723 0H225L227 139V1085Z" />
<glyph unicode="F" glyph-name="F" horiz-adv-x="972" d="M451 0H225L227 139V1085Q227 1131 224 1167T215 1225T203 1264T189 1291T174 1313L188 1348H498L848 1354Q871 1330 881 1279T889 1183T874 1126H836Q826 1173 766 1204T621 1239L444 1245Q430 1002 430
745H752Q780 745 799 751T822 765L827 772Q831 772 831 731Q831 707 824 689T808 659T781 639T751 626T715 620T681 618T647 618Q645 618 597 619T506 621T428 621Q426 419 434 141Q434 56 451 0Z" />
<glyph unicode="G" glyph-name="G" horiz-adv-x="1323" d="M762 1372H764Q895 1372 1012 1322T1163 1202Q1163 1166 1123 1102T1034 1016L1001 1042Q1001 1065 986 1097T941 1165T857 1224T737 1249Q563 1249 452 1120T334 750Q334 625 360 518T429 336T531 207T654
128T786 102Q828 102 902 118L975 133V291Q975 348 970 389T957 451T940 488T922 516L936 551L954 558Q972 564 1007 571T1077 578Q1140 578 1194 553Q1182 321 1180 229L1182 43L1124 33Q846 -27 670 -27Q560 -27 459 19T279 149T153 362T106 645Q106 856 187
1021T418 1279T762 1372Z" />
<glyph unicode="H" glyph-name="H" horiz-adv-x="1546" d="M1317 541Q1317 47 1339 0H1120Q1114 35 1114 119Q1114 120 1114 198T1115 398T1116 629H426V541Q426 47 449 0H223Q227 136 227 1087Q227 1144 222 1185T209 1247T192 1285T174 1313L188 1348L234 1361Q281
1374 330 1374Q395 1374 446 1350Q431 1018 426 735H1116Q1118 887 1118 1087Q1118 1144 1113 1185T1100 1247T1083 1285T1065 1313L1079 1348L1096 1354Q1114 1361 1149 1367T1219 1374Q1282 1374 1337 1350Q1317 890 1317 541Z" />
<glyph unicode="I" glyph-name="I" horiz-adv-x="653" d="M449 0H223Q227 136 227 1090Q227 1147 222 1188T209 1249T192 1287T174 1315L188 1350L234 1363Q281 1376 330 1376Q395 1376 446 1352Q426 892 426 541Q426 47 449 0Z" />
<glyph unicode="J" glyph-name="J" horiz-adv-x="643" d="M424 121Q423 22 394 -62T317 -206T205 -306T74 -367T-63 -387Q-141 -387 -186 -346T-231 -252Q-231 -214 -206 -189T-133 -164Q-112 -164 -88 -170Q-77 -254 18 -254Q134 -254 180 -162T227 127Q227 1008
223 1090Q223 1147 218 1188T205 1249T188 1287T170 1315L184 1350L230 1363Q277 1376 326 1376Q390 1376 442 1352Q422 892 422 541Q422 484 423 329T424 121Z" />
<glyph unicode="K" glyph-name="K" horiz-adv-x="1189" d="M449 0H223Q227 136 227 1090Q227 1147 222 1188T209 1249T192 1287T174 1315L188 1350L234 1363Q281 1376 330 1376Q395 1376 446 1352Q431 1011 426 713L850 1180Q895 1226 895 1276Q895 1295 885 1315L899
1350Q955 1372 1038 1372Q1130 1372 1153 1352Q1114 1281 1079 1237T935 1081T614 756Q652 706 814 487T1078 136T1190 0H905Q809 153 684 333T473 612L426 670V541Q426 47 449 0Z" />
<glyph unicode="L" glyph-name="L" horiz-adv-x="964" d="M897 0H223Q227 136 227 1090Q227 1147 222 1188T209 1249T192 1287T174 1315L188 1350L234 1363Q281 1376 330 1376Q395 1376 446 1352Q426 892 426 541Q426 225 432 113H668Q756 113 814 143T883 221H922Q943
196 936 114T897 0Z" />
<glyph unicode="M" glyph-name="M" horiz-adv-x="1843" d="M965 -43L879 -25Q843 -18 815 0T770 44T744 89T729 131L391 961Q376 1001 356 1079Q360 1023 360 944Q347 133 346 106Q346 33 354 0H205L209 33Q226 345 239 717T254 1237Q218 1302 199 1315L213 1350Q289
1376 354 1376Q441 1376 483 1346Q520 1202 686 789T934 201L1354 1276Q1365 1304 1391 1321T1453 1346T1534 1359T1628 1368Q1625 1320 1625 1285T1624 1182T1622 1032Q1615 682 1634 121Q1638 39 1649 0H1423L1425 123Q1429 356 1425 606T1417 956Q1417 975 1415
1022T1413 1079L1370 946L1020 131L965 -43Z" />
<glyph unicode="N" glyph-name="N" horiz-adv-x="1548" d="M1188 440Q1192 440 1192 1094Q1192 1253 1139 1315L1153 1350Q1189 1374 1255 1374Q1318 1374 1348 1352Q1323 827 1323 391Q1323 160 1333 0H1221L442 891L404 943Q367 995 358 1018Q365 978 365 928T363
777T360 625Q360 169 381 0H233V33Q236 299 236 764V1094Q236 1177 225 1224T182 1315L197 1350Q276 1382 319 1370L1126 442Q1153 413 1178 362L1202 311L1195 362Q1188 413 1188 440Z" />
<glyph unicode="O" glyph-name="O" horiz-adv-x="1392" d="M741 1372Q605 1372 486 1319T282 1171T149 942T100 651Q100 522 129 411T209 220T327 85T468 1T621 -27Q819 -27 970 69T1201 330T1286 698Q1286 860 1243 989T1125 1201T952 1328T741 1372ZM719 96Q611
96 519 185T374 416T322 717Q322 861 367 982T492 1174T670 1245Q774 1245 864 1163T1009 938T1063 629Q1063 484 1019 362T895 168T719 96Z" />
<glyph unicode="P" glyph-name="P" horiz-adv-x="1132" d="M449 0H225V33Q225 96 226 275T227 545Q227 605 228 713T229 880T227 1021T220 1152T202 1245T172 1313L186 1348L555 1360H578Q644 1360 704 1349T825 1309T930 1234T1002 1113T1030 942Q1030 819 964
720T785 567T539 512Q486 512 430 524Q439 72 449 0ZM559 614Q681 614 764 692T848 897Q848 990 820 1061T746 1171T649 1228T547 1245L436 1241Q430 1167 430 694V633Q467 614 559 614Z" />
<glyph unicode="Q" glyph-name="Q" horiz-adv-x="1398" d="M741 1372Q605 1372 486 1319T282 1171T149 942T100 651Q100 522 129 411T209 220T327 85T468 1T621 -27Q624 -27 630 -26T639 -25Q660 -189 774 -288T1032 -387Q1130 -387 1189 -355T1300 -252Q1284
-256 1262 -256Q1156 -256 1061 -232T884 -150T768 -10Q1002 38 1141 232T1286 698Q1286 860 1243 989T1125 1201T952 1328T741 1372ZM719 96Q611 96 519 185T374 416T322 717Q322 861 367 982T492 1174T670 1245Q774 1245 864 1163T1009 938T1063 629Q1063 484
1019 362T895 168T719 96Z" />
<glyph unicode="R" glyph-name="R" horiz-adv-x="1218" d="M449 0H225V33Q225 96 226 275T227 545Q227 605 228 713T229 880T227 1021T220 1152T202 1245T172 1313L186 1348Q563 1358 578 1358Q644 1358 704 1347T825 1307T930 1233T1002 1113T1030 942Q1030 808
953 704T748 551Q774 538 983 279T1219 0H942Q916 53 867 122T762 257T647 391T539 512Q486 512 430 524Q439 72 449 0ZM559 614Q681 614 764 692T848 897Q848 991 820 1062T745 1172T649 1229T547 1245L436 1241Q430 1167 430 694V633Q467 614 559 614Z" />
<glyph unicode="S" glyph-name="S" horiz-adv-x="983" d="M449 -27Q316 -27 215 36T113 180Q113 212 135 248Q148 202 246 160T440 117Q489 117 531 126T612 155T673 214T696 305Q696 360 664 410T582 500T470 580T346 663T234 755T151 870T119 1012Q119 1080
143 1144T214 1261T334 1346T498 1378Q575 1378 645 1360T746 1327T819 1286Q827 1259 828 1218T819 1132T784 1063L745 1071Q723 1139 672 1186T570 1250T475 1268Q398 1268 337 1222T276 1094Q276 1040 310 991T398 903T518 824T649 739T769 643T857 520T891
365Q891 201 767 87T449 -27Z" />
<glyph unicode="T" glyph-name="T" horiz-adv-x="1107" d="M766 1348H350L68 1360Q38 1327 28 1273T21 1179T35 1126H74Q80 1173 139 1204T289 1235H446Q455 1187 455 1079L456 756Q458 432 455 33V0H678Q666 75 666 90Q664 170 664 314T664 611T666 901T669 1136T670
1235H827Q917 1235 976 1204T1042 1126H1081Q1090 1139 1094 1179T1089 1273T1049 1360L766 1348Z" />
<glyph unicode="U" glyph-name="U" horiz-adv-x="1445" d="M1247 444Q1247 239 1108 105T725 -29Q636 -29 566 -17T434 27T329 110T260 242T231 428Q221 818 221 1090Q221 1147 216 1188T203 1250T186 1287T168 1315L182 1350L228 1363Q275 1376 324 1376Q388
1376 440 1352Q430 1098 430 455Q430 369 451 304T505 203T581 145T664 116T743 109Q893 109 994 188T1104 383Q1112 383 1112 1094Q1112 1253 1059 1315L1073 1350Q1109 1374 1176 1374Q1238 1374 1268 1352Q1247 911 1247 444Z" />
<glyph unicode="V" glyph-name="V" horiz-adv-x="1280" d="M733 -43L788 131L1186 1075Q1253 1241 1260 1348Q1219 1376 1153 1376Q1085 1376 1028 1350L1014 1315Q1057 1268 1057 1200Q1057 1142 1026 1065L748 352Q731 310 716 256L702 201Q634 354 488 771T309
1339Q273 1376 186 1376Q107 1376 45 1348L31 1313Q40 1310 57 1290T110 1197T180 1018L498 131Q511 81 546 35T647 -25L733 -43Z" />
<glyph unicode="W" glyph-name="W" horiz-adv-x="1900" d="M1384 -43L1440 131L1800 1075Q1863 1237 1874 1348Q1829 1368 1755 1368Q1683 1368 1642 1348L1628 1313Q1671 1267 1671 1198Q1671 1138 1640 1065L1399 352Q1382 310 1369 256L1356 201Q1295 337 1165
754T997 1339Q961 1376 872 1376Q789 1376 727 1348L713 1313Q722 1310 739 1290T792 1197T862 1018L901 897L717 352Q700 310 687 256L674 201Q613 337 483 754T315 1339Q279 1376 190 1376Q107 1376 45 1348L31 1313Q40 1310 57 1290T110 1197T180 1018L467 131Q480
81 515 35T616 -25L702 -43L758 131L967 692L1149 131Q1162 81 1197 35T1298 -25L1384 -43Z" />
<glyph unicode="X" glyph-name="X" horiz-adv-x="1079" d="M104 100L459 659L264 1020Q208 1127 175 1185T121 1269T63 1313L78 1348Q139 1376 219 1376Q305 1376 342 1339Q374 1270 390 1231T458 1095T604 829L647 907L754 1081Q767 1105 782 1128T809 1184T821
1241Q821 1287 799 1313L813 1348Q861 1376 928 1376Q1000 1376 1044 1348Q1026 1245 907 1067L668 713L993 121Q1010 90 1034 60T1074 14L1090 0H817L528 537L469 434L260 111Q241 75 228 38L215 0H33L104 100Z" />
<glyph unicode="Y" glyph-name="Y" horiz-adv-x="1064" d="M674 0H451V33Q451 117 452 233T453 383Q453 582 451 616Q436 631 408 680L211 1024Q184 1071 153 1129T110 1208T80 1256T47 1293T10 1313L25 1348Q84 1376 168 1376Q255 1376 289 1339Q335 1226 433
1036T586 758L596 784Q607 810 621 834L791 1135Q843 1231 793 1313L807 1348Q868 1376 922 1376Q972 1376 1030 1348Q1030 1312 990 1219T911 1067L659 662Q659 626 658 520T657 352Q657 113 674 0Z" />
<glyph unicode="Z" glyph-name="Z" horiz-adv-x="1159" d="M37 0L31 41L84 104L764 1161L825 1231H631H362Q273 1231 214 1200T147 1122H109Q100 1135 96 1177T101 1275T141 1364L424 1352H1102L1108 1309L1086 1282Q1064 1256 1057 1243L385 199L328 133H563H844Q934
133 993 164T1059 242H1098Q1106 229 1110 187T1105 89T1065 0H782H37Z" />
<glyph unicode="[" glyph-name="bracketleft" horiz-adv-x="507" d="M395 1483V1384H229V-43H395V-141H57V1483H395Z" />
<glyph unicode="\" glyph-name="backslash" horiz-adv-x="729" d="M584 -500H745Q499 227 347 742T195 1341Q186 1355 140 1373T53 1391Q10 1391 10 1337Q10 1313 19 1281T41 1212T57 1169Q147 898 346 280T584 -500Z" />
<glyph unicode="]" glyph-name="bracketright" horiz-adv-x="509" d="M115 1483V1384H281V-43H115V-141H453V1483H115Z" />
<glyph unicode="^" glyph-name="asciicircum" horiz-adv-x="1277" d="M1128 655H985L637 1284L289 655H145L580 1450H694L1128 655Z" />
<glyph unicode="_" glyph-name="underscore" horiz-adv-x="921" d="M983 -154L922 -276H0V-154H983Z" />
<glyph unicode="`" glyph-name="grave" horiz-adv-x="692" d="M250 1483H127L207 1343Q314 1157 483 1157Q506 1157 532 1170T559 1190Q507 1206 468 1242T407 1319T365 1396T316 1458T250 1483Z" />
<glyph unicode="a" glyph-name="a" horiz-adv-x="1019" d="M637 219L643 475Q629 475 601 474T509 461T393 430T301 370T260 272Q260 213 301 167T420 121Q492 121 556 152T637 219ZM854 135Q891 61 995 61V25Q965 6 907 -10T805 -27Q766 -27 736 -9T691 34T665
90T652 141T649 174Q621 85 533 29T356 -27Q221 -27 149 51T76 238Q76 334 133 405T283 510T489 545Q561 545 643 524Q647 606 647 647Q647 715 640 763T614 855T555 921T455 944Q385 944 341 901T297 799Q297 796 298 789T299 778Q270 758 229 758Q189 758 160
783T131 850Q131 909 181 953T304 1017T459 1038Q829 1038 829 745Q829 735 828 699T826 574T825 348Q825 289 833 226T854 135Z" />
<glyph unicode="b" glyph-name="b" horiz-adv-x="1132" d="M219 109Q197 158 196 271T199 588L195 1274Q195 1359 170 1405T98 1458V1495L118 1508Q138 1520 180 1533T266 1546Q342 1546 369 1503T395 1360Q394 1316 389 1213T381 1022Q379 958 369 920Q502 1038
653 1038Q728 1038 795 1009T916 921T1003 764T1036 539Q1036 455 1017 374T958 220T861 93T724 6T551 -27Q436 -27 342 9T219 109ZM545 903Q453 903 379 852V848Q379 477 387 305Q393 177 431 127T573 76Q628 76 672 96T746 152T795 230T826 323T841 417T846 504Q846
689 762 796T545 903Z" />
<glyph unicode="c" glyph-name="c" horiz-adv-x="966" d="M723 791Q709 924 537 924Q460 924 400 866T310 719T279 528Q279 425 311 337T416 189T588 129Q677 129 765 177T907 309L911 292Q915 276 915 260Q915 184 856 117T705 11T516 -27Q432 -27 359 1T225
87T131 240T96 461Q96 716 229 877T578 1038Q658 1038 727 1021T845 960T895 854Q895 818 867 790T791 762Q751 762 723 791Z" />
<glyph unicode="d" glyph-name="d" horiz-adv-x="1138" d="M1120 61V25Q1083 8 1067 1T1012 -16T938 -27Q915 -27 893 -21T847 0T806 44T782 115Q630 -27 479 -27Q404 -27 338 1T216 85T129 238T96 461Q96 545 115 627T174 783T271 914T408 1004T582 1038Q669
1038 762 1010L760 1274Q760 1358 735 1405T664 1458V1495L684 1508Q704 1520 745 1533T831 1546Q906 1546 933 1503T961 1360Q961 1314 953 1156T944 848Q944 475 954 260Q957 198 970 157T1007 96T1056 69T1120 61ZM588 109Q675 109 762 174V205Q762 230 763
394T764 588V897Q664 926 559 926Q494 926 444 896T364 821T317 715T293 602T287 496Q287 312 370 211T588 109Z" />
<glyph unicode="e" glyph-name="e" horiz-adv-x="1007" d="M897 575Q854 551 778 551L285 557Q287 526 287 475Q287 313 370 221T588 129Q677 129 765 177T907 309L911 292Q915 276 915 260Q915 184 856 117T705 11T516 -27Q449 -27 389 -10T276 46T184 140T122
278T96 461Q96 625 148 756T299 962T526 1038Q599 1038 658 1020T755 974T821 906T863 829T885 748T895 678T897 623V575ZM498 924Q449 924 412 903T351 840T310 752T279 639L717 647Q717 757 660 840T498 924Z" />
<glyph unicode="f" glyph-name="f" horiz-adv-x="671" d="M373 1075L369 1217Q362 1419 514 1419Q554 1419 581 1395T614 1335Q638 1325 668 1325Q707 1326 732 1352T758 1415Q758 1479 697 1512T557 1546Q514 1546 473 1535T387 1493T308 1417T247 1296T211 1126Q206
1065 175 1037T102 1004L92 942L104 938Q116 934 138 916T180 868Q207 830 207 559Q207 482 205 355T201 130T199 29V0H408Q375 149 375 754V887Q382 887 440 886T514 885Q670 885 670 993L666 1032L662 1026Q657 1020 639 1014T594 1008H369Q373 1016 373 1055V1075Z"
/>
<glyph unicode="g" glyph-name="g" horiz-adv-x="1073" d="M494 952Q440 952 403 924T349 851T326 766T319 684Q319 522 377 422T543 322Q630 322 679 395T729 598Q729 755 665 853T494 952ZM297 145Q305 117 340 102T426 83T539 76T664 70T788 52T894 13T969
-60T997 -178Q997 -283 923 -362T740 -480T508 -518Q396 -518 301 -492T144 -413T82 -287Q82 -248 110 -212T193 -176Q215 -176 238 -189T276 -225Q266 -260 266 -283Q266 -356 338 -393T518 -430Q640 -430 730 -372T821 -225Q821 -175 784 -148T689 -112T559 -101T417
-92T287 -68T191 -5T154 113Q154 230 297 295Q221 342 173 426T125 629Q125 807 244 922T553 1038Q605 1038 663 1023T748 981L784 1008H967Q994 1008 1012 1014T1034 1026L1038 1032Q1051 1003 1051 977Q1051 929 1013 906T918 883Q884 883 856 894T825 905L817
903Q864 867 892 799T920 657Q920 556 886 475T794 344T664 268T512 242Q420 242 338 272Q291 237 291 180Q291 168 297 145Z" />
<glyph unicode="h" glyph-name="h" horiz-adv-x="1196" d="M1032 0H831Q824 48 827 98L831 590Q833 742 798 808T666 877Q498 877 381 743Q385 330 397 86Q401 25 408 0H205V31Q209 587 201 1274Q201 1359 176 1405T104 1458V1495L124 1508Q144 1520 186 1533T272
1546Q339 1546 368 1510T398 1399T391 1214Q378 1022 381 805Q407 848 440 885T520 959T630 1016T766 1038Q870 1038 939 965T1012 795Q1013 775 1011 601T1012 252T1032 0Z" />
<glyph unicode="i" glyph-name="i" horiz-adv-x="573" d="M395 0H193V8L209 698Q211 765 202 815T178 889T148 927T122 944L111 946V983Q191 1034 293 1034Q360 1034 380 990T395 862L389 653Q383 444 383 154Q383 58 395 0ZM172 1313Q172 1356 204 1387T283 1419Q326
1419 358 1388T391 1313Q391 1269 359 1236T283 1202Q237 1202 205 1235T172 1313Z" />
<glyph unicode="j" glyph-name="j" horiz-adv-x="565" d="M172 1313Q172 1356 204 1387T283 1419Q326 1419 358 1388T391 1313Q391 1269 359 1236T283 1202Q237 1202 205 1235T172 1313ZM274 1034Q230 1034 188 1021T126 996L106 983V946Q153 940 180 893T207
762L208 411Q209 60 209 -29Q209 -122 180 -219T95 -384T-23 -453Q23 -510 80 -510Q123 -510 176 -471T277 -370T357 -217T389 -35V702Q393 826 393 860Q393 954 370 994T274 1034Z" />
<glyph unicode="k" glyph-name="k" horiz-adv-x="1101" d="M207 492L205 1274Q205 1358 180 1405T109 1458V1495L129 1508Q149 1520 190 1533T276 1546Q347 1546 376 1509T406 1389Q406 1351 397 1054T387 559L709 825Q767 873 770 911Q770 931 745 946V983Q767
998 822 1016T924 1034Q1012 1034 1012 981Q1012 949 975 909T889 835T791 766L555 600L659 455Q675 433 705 391T754 323T802 261T853 200T905 149T963 104T1024 74T1092 55V20Q1068 1 1016 -13T926 -27Q853 -27 805 -7T718 55T618 188Q583 241 536 315T465 424T419
490T387 524Q387 120 410 0H205V31Q205 98 206 256T207 492Z" />
<glyph unicode="l" glyph-name="l" horiz-adv-x="573" d="M410 0H205V31Q208 412 206 843L205 1274Q205 1358 180 1405T109 1458V1495L129 1508Q149 1520 190 1533T276 1546Q344 1546 373 1510T405 1399T399 1214Q387 964 387 624T397 86Q398 69 410 0Z" />
<glyph unicode="m" glyph-name="m" horiz-adv-x="1822" d="M1659 0H1458Q1451 48 1454 98L1458 590Q1460 742 1424 808T1292 877Q1130 877 1018 760Q1008 137 1038 0H838Q830 55 834 98L838 590Q840 742 804 808T672 877Q500 877 383 737Q383 371 387 154Q387
78 403 0H199V8L207 698Q208 765 198 815T172 889T140 927T113 944L102 946V983Q184 1034 285 1034Q320 1034 343 1021T376 984T389 929T389 862L379 805Q404 847 439 885T522 959T635 1016T772 1038Q867 1038 934 976T1016 823Q1042 863 1075 898T1155 966T1262
1018T1393 1038Q1497 1038 1566 966T1638 795Q1639 776 1637 602T1638 252T1659 0Z" />
<glyph unicode="n" glyph-name="n" horiz-adv-x="1202" d="M1038 0H838Q830 55 834 98L838 590Q840 742 804 808T672 877Q500 877 383 737Q383 371 387 154Q387 78 403 0H199V8L207 698Q208 765 198 815T173 889T142 927T115 944L104 946L102 983Q184 1034 285
1034Q320 1034 343 1021T376 984T389 929T389 862L379 805Q404 847 439 885T522 959T635 1016T772 1038Q876 1038 945 965T1018 795Q1019 775 1017 601T1018 252T1038 0Z" />
<glyph unicode="o" glyph-name="o" horiz-adv-x="1132" d="M96 487Q96 471 97 448T108 372T133 271T182 166T259 69T374 1T532 -27Q641 -27 736 18T896 138T998 315T1036 526Q1036 652 1001 752T904 913T766 1006T602 1038Q457 1038 342 967T161 770T96 487ZM297
573Q297 621 305 670T331 766T376 851T441 911T528 934Q655 934 744 799T834 461Q834 290 763 182T588 74Q463 74 380 218T297 573Z" />
<glyph unicode="p" glyph-name="p" horiz-adv-x="1155" d="M408 -492H205Q205 -461 206 -260T207 -35L205 762Q205 846 180 893T109 946V983L129 996Q149 1008 190 1021T276 1034Q348 1034 370 1005T393 911Q533 1034 676 1034Q751 1034 817 1005T939 919T1026
763T1059 539Q1059 455 1040 374T980 220T884 93T747 6T573 -27Q489 -27 389 2Q394 -366 397 -414Q399 -442 408 -492ZM567 899Q468 899 406 854V848Q406 802 398 588T389 225V115H391Q475 86 596 86Q662 86 712 115T791 187T838 289T862 399T868 504Q868 689 785
794T567 899Z" />
<glyph unicode="q" glyph-name="q" horiz-adv-x="1128" d="M973 -492H776Q776 -466 777 -267T778 -39V111Q634 -27 479 -27Q404 -27 338 1T216 85T129 238T96 461Q96 545 115 627T174 783T271 914T408 1004T582 1038Q635 1038 782 1022T975 1004Q948 -17 969 -436Q969
-458 973 -492ZM588 109Q698 109 778 174L774 762Q774 839 762 897Q673 926 559 926Q494 926 444 896T364 821T317 715T293 602T287 496Q287 312 370 211T588 109Z" />
<glyph unicode="r" glyph-name="r" horiz-adv-x="829" d="M403 0H199Q199 41 203 288T207 698Q207 747 202 787T190 852T172 896T152 924T132 938T116 945T106 946V983Q188 1034 289 1034Q346 1034 366 1005T387 918Q387 894 381 862L371 772Q376 783 388 805T431
871T497 949T583 1011T688 1038Q755 1038 792 1003T829 915Q829 874 802 843T725 811Q700 811 686 815Q659 885 592 885Q546 885 509 851T449 767T411 653T389 535T383 434Q383 72 403 0Z" />
<glyph unicode="s" glyph-name="s" horiz-adv-x="851" d="M418 940Q339 940 293 903T246 811Q246 772 269 740T329 684T413 637T511 593T608 542T693 479T753 396T776 285Q776 147 675 60T410 -27Q291 -27 195 36T98 184Q98 221 119 256Q131 198 227 145T412 92Q464
92 506 105T578 152T608 238Q608 274 580 305T506 361T405 411T295 466T195 533T121 621T92 737Q92 861 191 949T434 1038Q508 1038 568 1025T653 1000T715 967Q723 941 724 904T715 825T682 760L645 768Q624 833 583 873T502 927T418 940Z" />
<glyph unicode="t" glyph-name="t" horiz-adv-x="772" d="M399 1178L375 1008H625Q652 1008 670 1014T692 1026L696 1032Q700 1032 700 993Q700 942 655 913T543 883Q525 883 475 885T406 887Q383 887 377 885L375 365Q375 309 380 273T401 204T450 155T537 139Q597
139 658 159T727 197Q739 178 739 154Q739 89 658 31T469 -27Q384 -27 329 -6T245 62T206 164T195 305Q195 360 201 507T207 719Q207 849 186 877Q175 892 163 904T141 924T121 936T105 943T95 946H92L102 1008Q112 1008 124 1011T166 1027T230 1080T299 1178H399Z"
/>
<glyph unicode="u" glyph-name="u" horiz-adv-x="1204" d="M193 217L197 494Q200 647 195 726T166 874Q156 903 137 921T104 944L90 948V983Q120 1003 169 1018T260 1034Q326 1034 353 1001T381 901T381 733L379 414Q377 261 410 199T539 135Q706 135 821 270Q827
522 827 680Q827 747 819 804T801 883Q786 915 769 930T725 952V987L748 998Q771 1010 810 1022T883 1034Q968 1034 990 997T1012 825V309Q1012 272 1015 241T1023 186T1037 144T1053 113T1073 92T1094 78T1116 70T1138 65T1160 63T1180 61V25Q1160 11 1103 -8T997
-27Q958 -27 929 -13T881 22T852 75T836 137T829 203Q803 161 768 123T685 50T573 -6T436 -27Q332 -27 264 46T193 217Z" />
<glyph unicode="v" glyph-name="v" horiz-adv-x="1028" d="M659 111L612 -55L539 -37Q477 -26 443 19T397 111L213 688Q193 752 167 801T118 876T73 919T40 940T23 946L20 983Q45 1002 97 1018T190 1034Q258 1034 287 1004T336 899Q350 816 530 309Q560 227 586
176L600 228Q614 280 627 313L788 739Q817 807 817 868Q817 926 782 946V983Q804 1003 846 1018T930 1034Q999 1034 999 965Q999 912 948 791L659 111Z" />
<glyph unicode="w" glyph-name="w" horiz-adv-x="1703" d="M659 111L612 -55L539 -37Q477 -26 443 19T397 111L213 688Q193 752 167 801T118 876T73 919T40 940T23 946L20 983Q45 1002 97 1018T190 1034Q258 1034 287 1004T336 899Q350 816 530 309Q560 227 586
176L633 313L788 739Q816 815 821 840Q764 927 698 946L696 983Q721 1002 773 1018T866 1034Q934 1034 963 1004T1012 899Q1026 816 1206 309Q1236 227 1262 176L1276 228Q1290 280 1303 313L1464 739Q1491 806 1491 877Q1491 929 1458 946V983Q1482 1004 1524
1019T1606 1034Q1732 1034 1624 791L1335 111L1288 -55L1214 -37Q1171 -29 1139 0T1093 56T1073 111L893 674L659 111Z" />
<glyph unicode="x" glyph-name="x" horiz-adv-x="970" d="M444 344L242 82L195 0H20L410 481L279 688Q247 736 216 787T172 859T141 900T99 930T39 946L37 983Q104 1034 178 1034Q214 1034 240 1028T283 1014T316 986T341 951T367 904T399 850L522 653L541 612L565
653L690 811Q733 862 733 907Q733 933 715 948V983Q773 1034 856 1034Q888 1034 907 1018T926 975Q926 915 878 850T602 528L870 115L961 0H709L670 76L496 346L473 387L464 372Q456 358 444 344Z" />
<glyph unicode="y" glyph-name="y" horiz-adv-x="1019" d="M326 899Q348 796 520 309Q548 232 575 176Q585 222 618 313L780 739Q809 807 809 868Q809 926 774 946V983Q796 1003 838 1018T922 1034Q991 1034 991 965Q991 939 982 905T962 844T940 791L522 -213Q511
-241 500 -268T477 -321T454 -369T430 -413T403 -452T373 -485T338 -512T298 -532T252 -544T197 -549Q111 -549 68 -500T25 -373Q25 -344 27 -330Q37 -355 81 -370T172 -385Q336 -385 383 -270L477 -45Q484 -27 494 -12L504 2Q465 13 431 44T387 111L203 688Q183
752 157 801T108 876T63 919T30 940T12 946L10 983Q35 1002 87 1018T180 1034Q248 1034 278 1003T326 899Z" />
<glyph unicode="z" glyph-name="z" horiz-adv-x="954" d="M57 0L51 39L72 59Q92 79 106 100L563 823Q580 849 600 869L621 889H334Q244 889 185 858T119 780H80Q71 793 67 834T72 931T113 1020L395 1008H870L877 969L856 949Q834 929 821 907L365 176Q351 153
333 136L315 119H637Q726 119 786 150T852 227H891Q900 215 904 177T899 86T858 0H575H57Z" />
<glyph unicode="{" glyph-name="braceleft" horiz-adv-x="681" d="M37 623Q190 623 190 1202Q190 1288 220 1357T298 1466T400 1528T506 1550Q578 1550 631 1503Q512 1501 442 1417T371 1184Q371 915 313 753T195 584L208 576Q221 568 240 547T283 475T325 353T358
158T371 -117Q371 -157 372 -184T377 -246T390 -305T414 -353T451 -392T505 -416T580 -426Q593 -426 631 -422Q563 -502 457 -502Q352 -502 271 -423T190 -211Q190 21 178 181T142 422T95 537T37 578V623Z" />
<glyph unicode="|" glyph-name="bar" horiz-adv-x="163" d="M164 1548V-520H0V1548H164Z" />
<glyph unicode="}" glyph-name="braceright" horiz-adv-x="681" d="M645 623Q492 623 492 1202Q492 1288 462 1357T384 1466T282 1528T176 1550Q104 1550 51 1503Q170 1501 240 1417T311 1184Q311 915 369 753T487 584L474 576Q461 568 442 547T399 475T357 353T324
158T311 -117Q311 -157 310 -184T305 -246T292 -305T268 -353T231 -392T177 -416T102 -426Q89 -426 51 -422Q119 -502 225 -502Q330 -502 411 -423T492 -211Q492 21 504 181T540 422T587 537T645 578V623Z" />
<glyph unicode="~" glyph-name="asciitilde" horiz-adv-x="1079" d="M184 535Q209 553 221 560T260 578T313 586Q347 584 438 552T598 516Q697 510 774 551T870 680Q789 621 719 625Q683 629 589 659T442 692Q347 699 274 660T184 535Z" />
<glyph unicode="" glyph-name="uni007F" horiz-adv-x="1024" />
<glyph unicode="&#xa0;" glyph-name="nbspace" horiz-adv-x="460" />
<glyph unicode="&#xa1;" glyph-name="exclamdown" horiz-adv-x="540" d="M154 1255Q154 1301 186 1333T262 1366Q308 1366 340 1334T373 1255Q373 1211 341 1179T262 1147Q218 1147 186 1179T154 1255ZM231 1028H291L365 29Q369 -20 381 -56T404 -104L414 -115V-162L395
-173Q376 -184 344 -195T283 -207Q230 -207 197 -196T147 -158T127 -102T127 -23T141 70T159 182T174 305L231 1028Z" />
<glyph unicode="&#xa2;" glyph-name="cent" horiz-adv-x="1003" d="M635 -223H535Q535 -88 537 -27H532Q448 -27 375 1T242 87T148 240T113 461Q113 614 164 740T313 946T537 1036Q536 1072 532 1140T526 1223Q574 1233 584 1233Q603 1233 614 1226T630 1199T635
1165T635 1118T633 1069V1036Q768 1024 839 962T893 803Q860 842 786 870T631 901Q625 421 625 264V129Q709 134 790 182T924 309L928 292Q932 276 932 260Q932 164 843 87T627 -16L635 -223ZM295 528Q295 437 320 357T402 215T537 135Q543 746 541 897Q446 884
393 825Q346 774 321 696T295 528Z" />
<glyph unicode="&#xa3;" glyph-name="sterling" horiz-adv-x="1124" d="M74 551L86 684Q86 688 223 688Q224 785 224 851T231 978T252 1100Q263 1147 280 1192T327 1289T400 1385T500 1465T634 1523T803 1544Q865 1544 928 1524T1038 1461T1085 1360Q1085 1293
1048 1258T965 1223Q918 1223 885 1253Q887 1253 890 1266T893 1296Q893 1344 842 1385T707 1427Q596 1427 515 1330T422 1100Q417 1049 414 999T410 914T407 809T403 684Q535 680 557 680Q611 680 659 680T744 681T807 686T842 696Q837 665 825 642T795 605T755
580T707 565T653 559T597 557T539 557H397Q392 393 351 176T266 -104Q504 -150 670 -150Q844 -150 984 -119T1180 -27Q1186 -54 1186 -80Q1186 -299 776 -299Q668 -299 478 -272T78 -209Q137 -80 174 134T221 559H131Q106 559 74 551Z" />
<glyph unicode="&#xa4;" glyph-name="currency" horiz-adv-x="1183" d="M25 731L49 862Q49 856 176 856Q232 1092 404 1232T817 1372Q1006 1372 1089 1304T1098 1130Q1096 1154 1060 1181T951 1228T793 1249Q619 1249 496 1137T336 854H721Q775 854 823 854T908
855T971 860T1006 870Q1001 839 989 816T959 779T918 754T870 739T817 733T760 731T702 731H324Q324 660 334 567H598Q652 567 700 567T785 568T848 573T883 584Q878 553 866 530T836 492T796 467T748 453T694 446T638 444T580 444H358Q463 90 819 90Q849 90 893
98T1002 136T1108 209Q1111 91 1016 31T756 -29Q520 -29 370 98T172 446H66Q37 446 29 444L49 575Q77 571 154 571Q152 596 152 645Q152 705 156 733H61Q33 733 25 731Z" />
<glyph unicode="&#xa5;" glyph-name="yen" horiz-adv-x="1064" d="M205 715Q205 711 391 707L211 1024Q184 1072 154 1129T111 1208T81 1256T48 1293T10 1313L25 1348Q84 1376 168 1376Q255 1376 289 1339Q335 1226 433 1036T586 758L596 784Q607 810 621 834L791
1135Q817 1178 817 1229Q817 1272 793 1313L807 1348Q868 1376 922 1376Q972 1376 1030 1348Q1031 1314 992 1225T911 1067L686 707Q735 707 780 707T861 708T922 713T956 723Q952 699 943 680T922 647T893 623T859 606T820 595T777 588T733 585T688 584T643 584Q631
416 631 399Q691 399 746 399T844 400T917 405T956 416Q951 385 938 362T904 324T859 299T807 285T749 278T689 276T631 276Q631 106 647 0H449V33Q449 87 450 166T451 276Q352 279 242 279Q213 279 205 276V408Q205 399 451 399V584Q352 586 242 586Q213 586 205
584V715Z" />
<glyph unicode="&#xa7;" glyph-name="section" horiz-adv-x="860" d="M418 -496Q339 -496 276 -477T176 -428T121 -368T102 -311L106 -274Q164 -326 241 -357T387 -387H406Q423 -227 396 -28T264 543Q162 913 162 1114Q162 1289 261 1408T512 1528Q591 1528 655
1509T755 1460T809 1400T827 1343L823 1307Q766 1358 689 1389T543 1419H522Q507 1257 534 1058T666 489Q768 121 768 -82Q768 -257 669 -376T418 -496ZM399 510Q427 397 441 339T475 185T502 28T513 -109T510 -248T483 -369Q652 -307 649 -49Q649 4 635 85T601
243T530 522Q489 686 469 777T429 994T413 1218T444 1401Q278 1338 281 1081Q281 1005 304 897T399 510Z" />
<glyph unicode="&#xa8;" glyph-name="dieresis" horiz-adv-x="786" d="M311 1313Q311 1266 281 1233T209 1200T137 1233T106 1313Q106 1359 137 1392T209 1425T280 1392T311 1313ZM688 1313Q688 1266 658 1233T586 1200T514 1232T483 1313Q483 1359 513 1392T586
1425Q627 1425 657 1392T688 1313Z" />
<glyph unicode="&#xa9;" glyph-name="copyright" horiz-adv-x="1617" d="M1505 719Q1505 506 1416 337T1159 70T776 -27Q485 -27 299 154T113 618Q113 830 205 998T469 1263T860 1360Q1046 1360 1193 1279T1423 1051T1505 719ZM1378 672Q1378 927 1221 1091T817
1255Q701 1255 596 1211T413 1089T290 901T244 664Q244 541 288 433T408 248T592 127T821 82Q933 82 1035 126T1212 248T1333 436T1378 672ZM1079 870L1065 882Q1051 893 1026 907T954 932T852 944Q811 944 771 926T702 881Q631 810 631 684Q631 580 688 505T852
430Q918 430 984 465T1096 563L1102 540Q1108 518 1108 506Q1108 424 1012 364T801 303Q662 303 568 388T473 643Q473 816 573 938T831 1061Q953 1061 1024 1005T1079 870Z" />
<glyph unicode="&#xaa;" glyph-name="ordfeminine" horiz-adv-x="858" />
<glyph unicode="&#xab;" glyph-name="guillemotleft" horiz-adv-x="1302" d="M127 506L168 547L436 866Q482 922 526 952T604 984T663 980T707 956Q689 950 665 929T625 890L610 872L383 569Q367 548 341 527L315 506L341 485Q367 464 383 442L610 139L625 122Q640
104 664 83T707 55Q687 39 663 32T605 27T526 59T436 145L168 465L127 506ZM582 506L623 547L891 866Q937 922 981 952T1059 984T1117 980T1161 956Q1143 950 1119 929T1080 890L1065 872L838 569Q822 548 796 527L770 506L796 485Q822 464 838 442L1065 139L1080
122Q1095 104 1119 83T1161 55Q1141 39 1117 32T1059 27T981 59T891 145L623 465L582 506Z" />
<glyph unicode="&#xac;" glyph-name="logicalnot" horiz-adv-x="1095" />
<glyph unicode="&#xae;" glyph-name="registered" horiz-adv-x="1617" d="M842 313H623Q637 465 637 799Q638 845 631 878T615 928T594 953T576 963T565 965V1008Q644 1049 707 1049Q784 1049 784 971Q786 957 782 918L781 908L780 899Q815 959 869 1008T989 1057Q1045
1057 1071 1029T1098 965Q1098 894 1004 866Q995 892 976 906T936 920Q874 920 836 869T787 740T780 577T802 420T842 313ZM1505 727Q1505 514 1416 345T1159 79T776 -18Q485 -18 299 163T113 627Q113 785 167 922T318 1157T555 1312T860 1368Q1046 1368 1193 1287T1423
1059T1505 727ZM1378 680Q1378 935 1221 1099T817 1264Q661 1264 531 1189T322 977T244 672Q244 549 288 441T408 256T592 135T821 90Q933 90 1035 134T1212 256T1333 444T1378 680Z" />
<glyph unicode="&#xaf;" glyph-name="overscore" horiz-adv-x="686" d="M100 1225V1356Q100 1348 322 1348Q376 1348 424 1348T509 1349T571 1354T606 1364Q601 1333 589 1310T559 1273T519 1248T471 1233T417 1227T361 1225T303 1225Q276 1225 213 1226T137 1227Q109
1227 100 1225Z" />
<glyph unicode="&#xb0;" glyph-name="degree" horiz-adv-x="817" d="M739 1176Q739 1033 640 932T399 831Q256 831 156 932T55 1176Q55 1317 155 1416T399 1516Q541 1516 640 1417T739 1176ZM623 1176Q623 1273 559 1337T397 1401Q304 1401 238 1337T172 1176Q172
1084 238 1017T397 950Q493 950 558 1016T623 1176Z" />
<glyph unicode="&#xb1;" glyph-name="plusminus" horiz-adv-x="915" />
<glyph unicode="&#xb4;" glyph-name="acute" horiz-adv-x="692" d="M449 1483H571L492 1343Q383 1157 215 1157Q192 1157 166 1170T139 1190Q191 1206 230 1242T292 1319T334 1396T383 1458T449 1483Z" />
<glyph unicode="&#xb6;" glyph-name="paragraph" horiz-adv-x="1273" d="M117 762Q117 922 188 1058T382 1273T649 1352H651H872Q926 1352 974 1352T1060 1353T1122 1358T1157 1368Q1139 1253 1010 1235Q1008 1214 1008 1169Q1008 1162 1006 1043T1002 735T999
385Q998 238 1004 -129L1010 -496H909Q914 101 916 356T916 852T907 1229H817Q815 1210 815 1169Q815 1161 814 1043T810 735T807 385Q806 238 812 -129L817 -496H717Q721 -44 721 98Q721 158 725 184Q673 165 623 162Q521 154 426 203T263 336T156 533T117 762Z"
/>
<glyph unicode="&#xb7;" glyph-name="middot" horiz-adv-x="528" d="M365 502Q365 456 333 424T256 391Q210 391 178 423T145 502Q145 546 177 578T256 610Q300 610 332 578T365 502Z" />
<glyph unicode="&#xb8;" glyph-name="cedilla" horiz-adv-x="823" d="M369 -14L412 -12Q397 -41 397 -72Q397 -88 417 -98T468 -117T527 -139T577 -180T598 -252Q598 -346 530 -413T365 -481Q292 -481 249 -453T205 -377Q205 -353 213 -332Q258 -375 358 -375Q407
-375 440 -354T473 -297Q473 -271 445 -252T382 -223T320 -188T291 -127Q291 -57 369 -14Z" />
<glyph unicode="&#xb9;" glyph-name="onesuperior" horiz-adv-x="522" />
<glyph unicode="&#xba;" glyph-name="ordmasculine" horiz-adv-x="843" />
<glyph unicode="&#xbb;" glyph-name="guillemotright" horiz-adv-x="1316" d="M1163 506L1122 547L854 866Q808 922 764 952T686 984T628 980T584 956Q602 950 626 929T665 890L680 872L907 569Q923 548 949 527L975 506L949 485Q923 464 907 442L680 139L665
122Q650 104 626 83T584 55Q604 39 628 32T686 27T764 59T854 145L1122 465L1163 506ZM709 506L668 547L399 866Q353 922 309 952T231 984T173 980T129 956Q147 950 171 929T210 890L225 872L453 569Q468 548 494 527L520 506L494 485Q468 464 453 442L225 139L210
122Q195 104 171 83T129 55Q149 39 173 32T231 27T309 59T399 145L668 465L709 506Z" />
<glyph unicode="&#xbc;" glyph-name="onequarter" horiz-adv-x="1267" />
<glyph unicode="&#xbd;" glyph-name="onehalf" horiz-adv-x="1439" />
<glyph unicode="&#xbf;" glyph-name="questiondown" horiz-adv-x="849" d="M494 1006L535 1028Q678 962 678 846Q678 765 635 683T531 532T409 398T305 261T262 125Q262 -100 473 -100Q536 -100 584 -62T633 47Q633 71 623 104Q651 147 711 147Q765 147 791 115T817
43Q817 -72 717 -139T467 -207Q288 -207 187 -102T86 172Q86 260 133 348T247 507T380 645T494 782T541 913Q541 968 494 1006ZM426 1255Q426 1301 458 1333T535 1366Q581 1366 613 1334T645 1255Q645 1211 613 1179T535 1147Q490 1147 458 1179T426 1255Z" />
<glyph unicode="&#xc0;" glyph-name="Agrave" horiz-adv-x="1208" d="M430 1737H279L358 1638Q424 1557 491 1518T657 1479Q714 1479 743 1516Q691 1532 652 1561T590 1619T546 1676T496 1720T430 1737ZM717 1395Q728 1338 766 1221L1126 164Q1151 77 1198 0H950Q945
46 936 70L799 471H324L168 27Q166 20 165 11T162 0H10L475 1221Q487 1260 506 1289T544 1335T589 1362T633 1378T678 1387T717 1395ZM764 569L565 1153L358 569H764Z" />
<glyph unicode="&#xc1;" glyph-name="Aacute" horiz-adv-x="1208" d="M852 1737H1004L924 1638Q858 1557 791 1518T625 1479Q568 1479 539 1516Q591 1532 630 1561T692 1619T736 1676T786 1720T852 1737ZM717 1395Q728 1338 766 1221L1126 164Q1151 77 1198 0H950Q945
46 936 70L799 471H324L168 27Q166 20 165 11T162 0H10L475 1221Q487 1260 506 1289T544 1335T589 1362T633 1378T678 1387T717 1395ZM764 569L565 1153L358 569H764Z" />
<glyph unicode="&#xc2;" glyph-name="Acircumflex" horiz-adv-x="1208" d="M631 1729H649Q676 1729 708 1707T771 1651T836 1583T908 1522T985 1489Q985 1483 955 1473T899 1462Q789 1462 725 1510T621 1653Q599 1607 578 1577T525 1518T448 1476T342 1462Q316
1462 286 1472T256 1489Q293 1495 334 1522T410 1583T477 1650T540 1706T592 1729H631ZM717 1395Q728 1338 766 1221L1126 164Q1151 77 1198 0H950Q945 46 936 70L799 471H324L168 27Q166 20 165 11T162 0H10L475 1221Q487 1260 506 1289T544 1335T589 1362T633
1378T678 1387T717 1395ZM764 569L565 1153L358 569H764Z" />
<glyph unicode="&#xc3;" glyph-name="Atilde" horiz-adv-x="1208" d="M201 1522Q213 1530 231 1540T267 1558T308 1573T354 1579Q396 1579 460 1560T603 1521T762 1501Q877 1501 964 1546T1075 1681Q1043 1663 1025 1654T968 1633T895 1622Q840 1622 704 1660T496
1698Q423 1698 363 1681T258 1623T201 1522ZM717 1395Q728 1338 766 1221L1126 164Q1151 77 1198 0H950Q945 46 936 70L799 471H324L168 27Q166 20 165 11T162 0H10L475 1221Q487 1260 506 1289T544 1335T589 1362T633 1378T678 1387T717 1395ZM764 569L565 1153L358
569H764Z" />
<glyph unicode="&#xc4;" glyph-name="Adieresis" horiz-adv-x="1208" d="M475 1599Q475 1552 445 1520T373 1487T301 1519T270 1599Q270 1645 300 1678T373 1712Q414 1712 444 1679T475 1599ZM954 1599Q954 1552 924 1520T852 1487T780 1519T750 1599Q750 1645
780 1678T852 1712T923 1679T954 1599ZM717 1395Q728 1338 766 1221L1126 164Q1151 77 1198 0H950Q945 46 936 70L799 471H324L168 27Q166 20 165 11T162 0H10L475 1221Q487 1260 506 1289T544 1335T589 1362T633 1378T678 1387T717 1395ZM764 569L565 1153L358
569H764Z" />
<glyph unicode="&#xc5;" glyph-name="Aring" horiz-adv-x="1208" d="M717 1395Q728 1338 766 1221L1126 164Q1151 77 1198 0H950Q945 46 936 70L799 471H324L168 27Q166 20 165 11T162 0H10L475 1221Q487 1260 506 1289T544 1335T589 1362T633 1378T678 1387T717
1395ZM764 569L565 1153L358 569H764ZM633 1800Q548 1800 491 1749T434 1616Q434 1536 480 1491T590 1446Q675 1446 733 1499T792 1632Q792 1709 745 1754T633 1800ZM616 1503Q575 1503 546 1539T516 1639Q516 1692 542 1717T606 1743Q649 1743 678 1710T708 1612Q708
1557 680 1530T616 1503Z" />
<glyph unicode="&#xc6;" glyph-name="AE" horiz-adv-x="1560" d="M621 1348H1032L1382 1354Q1405 1330 1416 1279T1424 1183T1409 1126H1370Q1361 1173 1301 1204T1155 1239L981 1245Q967 1002 967 745H1288Q1316 745 1335 751T1359 765L1364 772Q1368 772 1368
731Q1368 707 1361 689T1345 659T1317 639T1287 626T1251 620T1217 618T1184 618Q1182 618 1134 619T1043 621T965 621Q963 419 971 141Q971 137 975 129H1364Q1392 129 1411 135T1435 149L1440 156Q1444 156 1444 115Q1444 82 1431 59T1401 25T1355 8T1308 1T1260
0H762Q764 35 764 96V471H381L164 41Q161 36 159 27T155 10T152 0H-8L621 1202Q631 1230 631 1250T626 1283T606 1317L621 1348ZM766 1260L725 1151L430 569H764V1090Q764 1217 766 1260Z" />
<glyph unicode="&#xc7;" glyph-name="Ccedilla" horiz-adv-x="1267" d="M1157 311Q1165 295 1165 268Q1165 145 1045 65T743 -25Q735 -52 735 -72Q735 -88 755 -98T806 -117T865 -139T915 -180T936 -252Q936 -346 868 -413T702 -481Q629 -481 586 -453T543 -377Q543
-353 551 -332Q596 -375 696 -375Q745 -375 778 -354T811 -297Q811 -271 783 -252T720 -223T658 -188T629 -127Q629 -66 686 -27Q548 -24 437 28T254 170T144 382T106 645Q106 856 187 1021T418 1279T762 1372Q893 1372 1010 1322T1161 1202Q1161 1166 1121 1102T1032
1016L999 1042Q999 1065 984 1097T939 1165T857 1224T737 1249Q655 1249 587 1221T473 1145T394 1030T347 889T332 733Q332 611 361 501T445 304T589 165T791 113Q890 113 997 165T1157 311Z" />
<glyph unicode="&#xc8;" glyph-name="Egrave" horiz-adv-x="985" d="M358 1737H207L287 1638Q353 1557 419 1518T586 1479Q641 1479 672 1516Q628 1530 593 1553T537 1599T496 1648T459 1693T416 1724T358 1737ZM188 1085Q188 1131 185 1167T176 1225T164 1264T150
1291T135 1313L150 1348H457L807 1354Q830 1330 840 1279T848 1183T834 1126H795Q785 1173 725 1204T580 1239L406 1245Q391 1022 391 745H713Q741 745 759 751T783 765L788 772L790 760Q793 747 793 731Q793 707 786 689T770 659T742 639T712 626T676 620T642
618T608 618Q606 618 558 619T467 621T389 621Q387 419 395 141Q395 137 399 129H788Q816 129 835 135T859 149L864 156Q868 156 868 115Q868 87 860 67T836 34T804 15T763 4T724 1T684 0H186L188 139V1085Z" />
<glyph unicode="&#xc9;" glyph-name="Eacute" horiz-adv-x="985" d="M647 1737H799L719 1638Q653 1557 586 1518T420 1479Q363 1479 334 1516Q386 1532 425 1561T487 1619T531 1676T581 1720T647 1737ZM188 1085Q188 1131 185 1167T176 1225T164 1264T150 1291T135
1313L150 1348H457L807 1354Q830 1330 840 1279T848 1183T834 1126H795Q785 1173 725 1204T580 1239L406 1245Q391 1022 391 745H713Q741 745 759 751T783 765L788 772L790 760Q793 747 793 731Q793 707 786 689T770 659T742 639T712 626T676 620T642 618T608 618Q606
618 558 619T467 621T389 621Q387 419 395 141Q395 137 399 129H788Q816 129 835 135T859 149L864 156Q868 156 868 115Q868 87 860 67T836 34T804 15T763 4T724 1T684 0H186L188 139V1085Z" />
<glyph unicode="&#xca;" glyph-name="Ecircumflex" horiz-adv-x="985" d="M514 1729H532Q559 1729 591 1707T654 1651T719 1583T791 1522T868 1489Q868 1483 838 1473T782 1462Q672 1462 608 1510T504 1653Q460 1558 400 1510T225 1462Q199 1462 169 1472T139
1489Q176 1495 217 1522T293 1583T360 1650T423 1706T475 1729H514ZM190 1085Q190 1131 187 1167T178 1225T166 1264T152 1291T137 1313L152 1348H459L809 1354Q832 1330 842 1279T850 1183T836 1126H797Q787 1173 727 1204T582 1239L408 1245Q393 1022 393 745H715Q743
745 762 751T786 765L791 772Q795 772 795 731Q795 707 788 689T772 659T744 639T714 626T678 620T644 618T610 618Q608 618 560 619T469 621T391 621Q389 419 397 141Q397 137 401 129H791Q819 129 837 135T861 149L866 156Q870 156 870 115Q870 87 862 67T838
34T806 15T765 4T726 1T686 0H188Q192 51 191 95L190 139V1085Z" />
<glyph unicode="&#xcb;" glyph-name="Edieresis" horiz-adv-x="985" d="M365 1599Q365 1552 335 1520T262 1487T190 1519T160 1599Q160 1645 190 1678T262 1712Q304 1712 334 1679T365 1599ZM844 1599Q844 1552 814 1520T741 1487T669 1519T639 1599Q639 1645
669 1678T741 1712Q783 1712 813 1679T844 1599ZM188 1085Q188 1131 185 1167T176 1225T164 1264T150 1291T135 1313L150 1348H457L807 1354Q830 1330 840 1279T848 1183T834 1126H795Q785 1173 725 1204T580 1239L406 1245Q391 1022 391 745H713Q741 745 759 751T783
765L788 772L790 760Q793 747 793 731Q793 707 786 689T770 659T742 639T712 626T676 620T642 618T608 618Q606 618 558 619T467 621T389 621Q387 419 395 141Q395 137 399 129H788Q816 129 835 135T859 149L864 156Q868 156 868 115Q868 87 860 67T836 34T804
15T763 4T724 1T684 0H186L188 139V1085Z" />
<glyph unicode="&#xcc;" glyph-name="Igrave" horiz-adv-x="661" d="M188 1737H37L117 1638Q183 1557 249 1518T416 1479Q471 1479 502 1516Q458 1530 423 1553T367 1599T326 1648T289 1693T246 1724T188 1737ZM455 0H229Q233 136 233 1090Q233 1147 228 1188T215
1249T198 1287T180 1315L195 1350L241 1363Q287 1376 336 1376Q401 1376 453 1352Q432 913 432 541Q432 47 455 0Z" />
<glyph unicode="&#xcd;" glyph-name="Iacute" horiz-adv-x="661" d="M471 1737H623L543 1638Q477 1557 410 1518T244 1479Q187 1479 158 1516Q210 1532 249 1561T311 1619T355 1676T405 1720T471 1737ZM455 0H229Q233 136 233 1090Q233 1147 228 1188T215 1249T198
1287T180 1315L195 1350L241 1363Q287 1376 336 1376Q401 1376 453 1352Q432 913 432 541Q432 47 455 0Z" />
<glyph unicode="&#xce;" glyph-name="Icircumflex" horiz-adv-x="661" d="M344 1729H362Q389 1729 421 1707T484 1651T549 1583T621 1522T698 1489Q698 1483 668 1473T612 1462Q502 1462 438 1510T334 1653Q290 1558 230 1510T55 1462Q29 1462 -1 1472T-31 1489Q6
1495 47 1522T123 1583T190 1650T253 1706T305 1729H344ZM455 0H229Q233 136 233 1090Q233 1147 228 1188T215 1249T198 1287T180 1315L195 1350L241 1363Q287 1376 336 1376Q401 1376 453 1352Q432 913 432 541Q432 47 455 0Z" />
<glyph unicode="&#xcf;" glyph-name="Idieresis" horiz-adv-x="661" d="M238 1599Q238 1552 208 1520T135 1487T63 1519T33 1599Q33 1645 63 1678T135 1712Q177 1712 207 1679T238 1599ZM614 1599Q614 1552 584 1520T512 1487T440 1519T410 1599Q410 1645 440
1678T512 1712T583 1679T614 1599ZM455 0H229Q233 136 233 1090Q233 1147 228 1188T215 1249T198 1287T180 1315L195 1350L241 1363Q287 1376 336 1376Q401 1376 453 1352Q432 913 432 541Q432 47 455 0Z" />
<glyph unicode="&#xd1;" glyph-name="Ntilde" horiz-adv-x="1538" d="M334 1522Q346 1530 364 1540T400 1558T441 1573T487 1579Q529 1579 593 1560T736 1521T895 1501Q1010 1501 1097 1546T1208 1681Q1176 1663 1158 1654T1101 1633T1028 1622Q973 1622 837 1660T629
1698Q556 1698 496 1681T391 1623T334 1522ZM1188 440Q1192 440 1192 1094Q1192 1253 1139 1315L1153 1350Q1189 1374 1255 1374Q1318 1374 1348 1352Q1323 827 1323 391Q1323 160 1333 0H1221L442 891L404 943Q367 995 358 1018Q365 978 365 928T363 777T360 625Q360
169 381 0H233V33Q236 299 236 764V1094Q236 1177 225 1224T182 1315L197 1350Q276 1382 319 1370L1126 442Q1153 413 1178 362L1202 311L1195 362Q1188 413 1188 440Z" />
<glyph unicode="&#xd2;" glyph-name="Ograve" horiz-adv-x="1392" d="M549 1737H397L477 1638Q543 1557 610 1518T776 1479Q833 1479 862 1516Q810 1532 771 1561T709 1619T665 1676T615 1720T549 1737ZM741 1372Q605 1372 486 1319T282 1171T149 942T100 651Q100
522 129 411T209 220T327 85T468 1T621 -27Q819 -27 970 69T1201 330T1286 698Q1286 860 1243 989T1125 1201T952 1328T741 1372ZM719 96Q611 96 519 185T374 416T322 717Q322 861 367 982T492 1174T670 1245Q774 1245 864 1163T1009 938T1063 629Q1063 484 1019
362T895 168T719 96Z" />
<glyph unicode="&#xd3;" glyph-name="Oacute" horiz-adv-x="1392" d="M836 1737H987L907 1638Q841 1557 775 1518T608 1479Q553 1479 522 1516Q566 1530 601 1553T657 1599T698 1648T735 1693T778 1724T836 1737ZM741 1372Q605 1372 486 1319T282 1171T149 942T100
651Q100 522 129 411T209 220T327 85T468 1T621 -27Q819 -27 970 69T1201 330T1286 698Q1286 860 1243 989T1125 1201T952 1328T741 1372ZM719 96Q611 96 519 185T374 416T322 717Q322 861 367 982T492 1174T670 1245Q774 1245 864 1163T1009 938T1063 629Q1063
484 1019 362T895 168T719 96Z" />
<glyph unicode="&#xd4;" glyph-name="Ocircumflex" horiz-adv-x="1392" d="M702 1729H721Q748 1729 780 1707T843 1651T908 1583T980 1522T1057 1489Q1057 1483 1027 1473T971 1462Q861 1462 796 1510T692 1653Q648 1558 588 1510T414 1462Q388 1462 358 1472T328
1489Q365 1495 406 1522T482 1583T549 1650T612 1706T664 1729H702ZM741 1372Q605 1372 486 1319T282 1171T149 942T100 651Q100 522 129 411T209 220T327 85T468 1T621 -27Q819 -27 970 69T1201 330T1286 698Q1286 860 1243 989T1125 1201T952 1328T741 1372ZM719
96Q611 96 519 185T374 416T322 717Q322 861 367 982T492 1174T670 1245Q774 1245 864 1163T1009 938T1063 629Q1063 484 1019 362T895 168T719 96Z" />
<glyph unicode="&#xd5;" glyph-name="Otilde" horiz-adv-x="1392" d="M256 1522Q268 1530 286 1540T322 1558T363 1573T410 1579Q452 1579 515 1560T658 1521T817 1501Q933 1501 1020 1546T1130 1681Q1098 1663 1080 1654T1023 1633T950 1622Q896 1622 759 1660T551
1698Q478 1698 419 1681T314 1623T256 1522ZM741 1372Q605 1372 486 1319T282 1171T149 942T100 651Q100 522 129 411T209 220T327 85T468 1T621 -27Q819 -27 970 69T1201 330T1286 698Q1286 860 1243 989T1125 1201T952 1328T741 1372ZM719 96Q611 96 519 185T374
416T322 717Q322 861 367 982T492 1174T670 1245Q774 1245 864 1163T1009 938T1063 629Q1063 484 1019 362T895 168T719 96Z" />
<glyph unicode="&#xd6;" glyph-name="Odieresis" horiz-adv-x="1392" d="M553 1599Q553 1552 523 1520T451 1487T379 1519T348 1599Q348 1645 378 1678T451 1712Q492 1712 522 1679T553 1599ZM1032 1599Q1032 1552 1002 1520T930 1487T858 1519T827 1599Q827 1645
857 1678T930 1712Q971 1712 1001 1679T1032 1599ZM741 1372Q605 1372 486 1319T282 1171T149 942T100 651Q100 522 129 411T209 220T327 85T468 1T621 -27Q819 -27 970 69T1201 330T1286 698Q1286 860 1243 989T1125 1201T952 1328T741 1372ZM719 96Q611 96 519
185T374 416T322 717Q322 861 367 982T492 1174T670 1245Q774 1245 864 1163T1009 938T1063 629Q1063 484 1019 362T895 168T719 96Z" />
<glyph unicode="&#xd8;" glyph-name="Oslash" horiz-adv-x="1392" d="M16 74L86 2L236 158Q305 64 402 17T612 -31Q809 -31 963 66T1201 329T1288 698Q1288 957 1194 1118Q1212 1134 1244 1163T1292 1207T1327 1242T1354 1278T1362 1307Q1362 1323 1348 1337T1298
1372Q1214 1272 1141 1196Q1071 1283 975 1327T766 1372Q476 1372 293 1171T102 651Q102 404 184 240L16 74ZM1077 602Q1075 492 1042 396T956 234T839 132T709 94Q615 94 535 157T401 332L1018 950Q1077 812 1077 602ZM369 420Q324 553 324 713Q324 937 425 1090T670
1243Q768 1243 841 1188T977 1032L369 420Z" />
<glyph unicode="&#xd9;" glyph-name="Ugrave" horiz-adv-x="1445" d="M553 1737H401L481 1638Q547 1557 614 1518T780 1479Q837 1479 866 1516Q814 1532 775 1561T713 1619T669 1676T619 1720T553 1737ZM1247 444Q1247 239 1108 105T725 -29Q636 -29 566 -17T434
27T329 110T260 242T231 428Q221 818 221 1090Q221 1147 216 1188T203 1250T186 1287T168 1315L182 1350L228 1363Q275 1376 324 1376Q388 1376 440 1352Q430 1098 430 455Q430 369 451 304T505 203T581 145T664 116T743 109Q893 109 994 188T1104 383Q1112 383
1112 1094Q1112 1253 1059 1315L1073 1350Q1109 1374 1176 1374Q1238 1374 1268 1352Q1247 911 1247 444Z" />
<glyph unicode="&#xda;" glyph-name="Uacute" horiz-adv-x="1445" d="M905 1737H1057L977 1638Q911 1557 844 1518T678 1479Q621 1479 592 1516Q644 1532 683 1561T745 1619T789 1676T839 1720T905 1737ZM1247 444Q1247 239 1108 105T725 -29Q636 -29 566 -17T434
27T329 110T260 242T231 428Q221 818 221 1090Q221 1147 216 1188T203 1250T186 1287T168 1315L182 1350L228 1363Q275 1376 324 1376Q388 1376 440 1352Q430 1098 430 455Q430 369 451 304T505 203T581 145T664 116T743 109Q893 109 994 188T1104 383Q1112 383
1112 1094Q1112 1253 1059 1315L1073 1350Q1109 1374 1176 1374Q1238 1374 1268 1352Q1247 911 1247 444Z" />
<glyph unicode="&#xdb;" glyph-name="Ucircumflex" horiz-adv-x="1445" d="M752 1729H770Q797 1729 829 1707T892 1651T957 1583T1029 1522T1106 1489Q1106 1483 1076 1473T1020 1462Q910 1462 846 1510T741 1653Q697 1558 637 1510T463 1462Q437 1462 407 1472T377
1489Q414 1495 455 1522T531 1583T598 1650T661 1706T713 1729H752ZM1247 444Q1247 239 1108 105T725 -29Q636 -29 566 -17T434 27T329 110T260 242T231 428Q221 818 221 1090Q221 1147 216 1188T203 1250T186 1287T168 1315L182 1350L228 1363Q275 1376 324 1376Q388
1376 440 1352Q430 1098 430 455Q430 369 451 304T505 203T581 145T664 116T743 109Q893 109 994 188T1104 383Q1112 383 1112 1094Q1112 1253 1059 1315L1073 1350Q1109 1374 1176 1374Q1238 1374 1268 1352Q1247 911 1247 444Z" />
<glyph unicode="&#xdc;" glyph-name="Udieresis" horiz-adv-x="1445" d="M594 1599Q594 1552 564 1520T492 1487T420 1519T389 1599Q389 1645 419 1678T492 1712Q533 1712 563 1679T594 1599ZM1073 1599Q1073 1552 1043 1520T971 1487T899 1519T868 1599Q868 1645
898 1678T971 1712Q1012 1712 1042 1679T1073 1599ZM1247 444Q1247 239 1108 105T725 -29Q636 -29 566 -17T434 27T329 110T260 242T231 428Q221 818 221 1090Q221 1147 216 1188T203 1250T186 1287T168 1315L182 1350L228 1363Q275 1376 324 1376Q388 1376 440
1352Q430 1098 430 455Q430 369 451 304T505 203T581 145T664 116T743 109Q893 109 994 188T1104 383Q1112 383 1112 1094Q1112 1253 1059 1315L1073 1350Q1109 1374 1176 1374Q1238 1374 1268 1352Q1247 911 1247 444Z" />
<glyph unicode="&#xdf;" glyph-name="germandbls" horiz-adv-x="1171" d="M770 86Q849 86 897 129T946 240Q946 273 926 303T874 357T803 407T725 460T654 519T602 593T582 686Q582 741 605 797T662 904T729 1007T785 1124T809 1257Q809 1427 610 1427Q505 1427
442 1363T379 1184Q379 1157 376 914T373 631Q373 200 406 0H197V29Q197 32 199 129T203 354T205 559Q205 830 178 868Q158 897 136 915T102 938L90 942L100 1004L124 1009Q148 1014 173 1038T201 1100Q205 1156 219 1211T266 1328T349 1437T481 1513T666 1544Q750
1544 820 1521T936 1443T983 1313Q983 1249 958 1183T896 1062T823 956T761 857T735 770Q735 742 756 716T811 666T886 618T967 563T1042 497T1097 411T1118 303Q1118 149 1019 61T760 -27Q648 -27 560 21T471 150Q471 189 494 221Q502 171 570 129T770 86Z" />
<glyph unicode="&#xe0;" glyph-name="agrave" horiz-adv-x="1019" d="M647 219L653 475Q639 475 611 474T519 461T403 430T311 370T270 272Q270 213 311 167T430 121Q502 121 566 152T647 219ZM864 135Q901 61 1006 61V25Q976 6 917 -10T815 -27Q776 -27 746 -9T701
34T675 90T662 141T659 174Q632 85 543 29T367 -27Q275 -27 210 12T115 110T86 238Q86 334 144 405T294 510T500 545Q571 545 653 524Q657 606 657 647Q657 715 650 763T624 855T565 921T465 944Q396 944 352 900T307 799Q307 796 308 789T309 778Q280 758 240
758Q199 758 170 783T141 850Q141 909 191 953T314 1017T469 1038Q840 1038 840 745Q840 735 839 699T837 574T836 348Q836 196 864 135ZM346 1483H223L303 1343Q412 1157 580 1157Q603 1157 629 1170T655 1190Q603 1206 564 1242T503 1319T461 1396T412 1458T346
1483Z" />
<glyph unicode="&#xe1;" glyph-name="aacute" horiz-adv-x="1019" d="M647 219L653 475Q639 475 611 474T519 461T403 430T311 370T270 272Q270 213 311 167T430 121Q502 121 566 152T647 219ZM864 135Q901 61 1006 61V25Q976 6 917 -10T815 -27Q776 -27 746 -9T701
34T675 90T662 141T659 174Q632 85 543 29T367 -27Q275 -27 210 12T115 110T86 238Q86 334 144 405T294 510T500 545Q571 545 653 524Q657 606 657 647Q657 715 650 763T624 855T565 921T465 944Q396 944 352 900T307 799Q307 796 308 789T309 778Q280 758 240
758Q199 758 170 783T141 850Q141 909 191 953T314 1017T469 1038Q840 1038 840 745Q840 735 839 699T837 574T836 348Q836 196 864 135ZM668 1483H791L711 1343Q602 1157 434 1157Q411 1157 385 1170T358 1190Q410 1206 449 1242T511 1319T553 1396T602 1458T668
1483Z" />
<glyph unicode="&#xe2;" glyph-name="acircumflex" horiz-adv-x="1019" d="M647 219L653 475Q639 475 611 474T519 461T403 430T311 370T270 272Q270 213 311 167T430 121Q502 121 566 152T647 219ZM864 135Q901 61 1006 61V25Q976 6 917 -10T815 -27Q776 -27
746 -9T701 34T675 90T662 141T659 174Q632 85 543 29T367 -27Q275 -27 210 12T115 110T86 238Q86 334 144 405T294 510T500 545Q571 545 653 524Q657 606 657 647Q657 715 650 763T624 855T565 921T465 944Q396 944 352 900T307 799Q307 796 308 789T309 778Q280
758 240 758Q199 758 170 783T141 850Q141 909 191 953T314 1017T469 1038Q840 1038 840 745Q840 735 839 699T837 574T836 348Q836 196 864 135ZM504 1483H520Q544 1483 572 1456T629 1388T686 1306T749 1231T817 1190Q817 1184 791 1171T741 1157Q700 1157 671
1163T619 1187T580 1223T539 1278Q522 1300 509 1346L496 1391L482 1346Q467 1300 451 1278Q412 1218 369 1188T250 1157Q227 1157 201 1170T174 1190Q214 1199 260 1247T340 1347T410 1441T471 1483H504Z" />
<glyph unicode="&#xe3;" glyph-name="atilde" horiz-adv-x="1019" d="M647 219L653 475Q639 475 611 474T519 461T403 430T311 370T270 272Q270 213 311 167T430 121Q502 121 566 152T647 219ZM864 135Q901 61 1006 61V25Q976 6 917 -10T815 -27Q776 -27 746 -9T701
34T675 90T662 141T659 174Q632 85 543 29T367 -27Q275 -27 210 12T115 110T86 238Q86 334 144 405T294 510T500 545Q571 545 653 524Q657 606 657 647Q657 715 650 763T624 855T565 921T465 944Q396 944 352 900T307 799Q307 796 308 789T309 778Q280 758 240
758Q199 758 170 783T141 850Q141 909 191 953T314 1017T469 1038Q840 1038 840 745Q840 735 839 699T837 574T836 348Q836 196 864 135ZM152 1241Q224 1296 281 1292Q314 1290 405 1259T565 1223Q664 1216 741 1257T838 1386Q752 1327 686 1331Q650 1335 556 1365T410
1399Q348 1403 296 1390T203 1338T152 1241Z" />
<glyph unicode="&#xe4;" glyph-name="adieresis" horiz-adv-x="1019" d="M647 219L653 475Q639 475 611 474T519 461T403 430T311 370T270 272Q270 213 311 167T430 121Q502 121 566 152T647 219ZM864 135Q901 61 1006 61V25Q976 6 917 -10T815 -27Q776 -27 746
-9T701 34T675 90T662 141T659 174Q632 85 543 29T367 -27Q275 -27 210 12T115 110T86 238Q86 334 144 405T294 510T500 545Q571 545 653 524Q657 606 657 647Q657 715 650 763T624 855T565 921T465 944Q396 944 352 900T307 799Q307 796 308 789T309 778Q280 758
240 758Q199 758 170 783T141 850Q141 909 191 953T314 1017T469 1038Q840 1038 840 745Q840 735 839 699T837 574T836 348Q836 196 864 135ZM410 1313Q410 1266 380 1233T307 1200T235 1233T205 1313Q205 1359 235 1392T307 1425T379 1392T410 1313ZM786 1313Q786
1266 756 1233T684 1200T612 1233T582 1313Q582 1359 612 1392T684 1425T755 1392T786 1313Z" />
<glyph unicode="&#xe5;" glyph-name="aring" horiz-adv-x="1019" d="M647 219L653 475Q639 475 611 474T519 461T403 430T311 370T270 272Q270 213 311 167T430 121Q502 121 566 152T647 219ZM864 135Q901 61 1006 61V25Q976 6 917 -10T815 -27Q776 -27 746 -9T701
34T675 90T662 141T659 174Q632 85 543 29T367 -27Q275 -27 210 12T115 110T86 238Q86 334 144 405T294 510T500 545Q571 545 653 524Q657 606 657 647Q657 715 650 763T624 855T565 921T465 944Q396 944 352 900T307 799Q307 796 308 789T309 778Q280 758 240
758Q199 758 170 783T141 850Q141 909 191 953T314 1017T469 1038Q840 1038 840 745Q840 735 839 699T837 574T836 348Q836 196 864 135ZM526 1511Q442 1511 385 1460T328 1327Q328 1247 374 1202T483 1157Q568 1157 627 1210T686 1343Q686 1420 639 1465T526 1511ZM510
1214Q469 1214 440 1250T410 1350Q410 1403 436 1428T500 1454Q543 1454 572 1421T602 1323Q602 1268 574 1241T510 1214Z" />
<glyph unicode="&#xe6;" glyph-name="ae" horiz-adv-x="1529" d="M1450 598Q1433 588 1279 575T980 554L834 547Q850 129 1141 129Q1230 129 1317 177T1460 309L1464 292Q1468 276 1468 260Q1468 184 1409 117T1258 11T1069 -27Q800 -27 702 213Q572 -27 371 -27Q279
-27 214 12T119 110T90 238Q90 547 659 590Q662 618 662 651Q662 707 659 745T644 824T613 889T556 928T469 944Q400 944 356 900T311 799L313 778Q284 758 244 758Q203 758 174 783T145 850Q145 909 195 953T318 1017T473 1038Q589 1038 673 1001T795 891Q832
959 912 998T1079 1038Q1145 1038 1200 1023T1292 982T1359 923T1405 855T1432 783T1446 718T1450 666V598ZM1051 924Q998 924 958 899T892 826T851 728T825 610L1270 672V678Q1268 698 1265 716T1253 765T1228 822T1190 871T1131 910T1051 924ZM434 121Q596 121
686 262Q666 328 659 528Q635 527 593 518T495 488T390 439T308 367T274 272Q274 213 315 167T434 121Z" />
<glyph unicode="&#xe7;" glyph-name="ccedilla" horiz-adv-x="966" d="M723 791Q709 924 537 924Q460 924 400 866T310 719T279 528Q279 425 311 337T416 189T588 129Q677 129 765 177T907 309L911 292Q915 276 915 260Q915 189 863 126T729 23T555 -25Q547 -52
547 -72Q547 -88 567 -98T618 -117T677 -139T727 -180T748 -252Q748 -346 680 -413T514 -481Q441 -481 398 -453T354 -377Q354 -353 362 -332Q407 -375 508 -375Q556 -375 589 -354T623 -297Q623 -276 604 -260T558 -234T505 -211T459 -178T440 -127Q440 -67 498
-27Q416 -24 346 6T218 94T129 245T96 461Q96 716 229 877T578 1038Q658 1038 727 1021T845 960T895 854Q895 818 867 790T791 762Q751 762 723 791Z" />
<glyph unicode="&#xe8;" glyph-name="egrave" horiz-adv-x="1007" d="M897 575Q854 551 778 551L285 557Q287 526 287 475Q287 313 370 221T588 129Q677 129 765 177T907 309L911 292Q915 276 915 260Q915 184 856 117T705 11T516 -27Q449 -27 389 -10T276 46T184
140T122 278T96 461Q96 625 148 756T299 962T526 1038Q599 1038 658 1020T755 974T821 906T863 829T885 748T895 678T897 623V575ZM498 924Q449 924 412 903T351 840T310 752T279 639L717 647Q717 757 660 840T498 924ZM354 1483H231L311 1343Q418 1157 587 1157Q610
1157 636 1170T663 1190Q611 1206 572 1242T511 1319T469 1396T420 1458T354 1483Z" />
<glyph unicode="&#xe9;" glyph-name="eacute" horiz-adv-x="1007" d="M659 1483H782L702 1343Q595 1157 426 1157Q403 1157 377 1170T350 1190Q394 1204 429 1232T485 1292T525 1358T560 1420T601 1465T659 1483ZM897 575Q854 551 778 551L285 557Q287 526 287
475Q287 313 370 221T588 129Q677 129 765 177T907 309L911 292Q915 276 915 260Q915 184 856 117T705 11T516 -27Q449 -27 389 -10T276 46T184 140T122 278T96 461Q96 625 148 756T299 962T526 1038Q599 1038 658 1020T755 974T821 906T863 829T885 748T895 678T897
623V575ZM498 924Q449 924 412 903T351 840T310 752T279 639L717 647Q717 757 660 840T498 924Z" />
<glyph unicode="&#xea;" glyph-name="ecircumflex" horiz-adv-x="1007" d="M897 575Q854 551 778 551L285 557Q287 526 287 475Q287 313 370 221T588 129Q677 129 765 177T907 309L911 292Q915 276 915 260Q915 184 856 117T705 11T516 -27Q449 -27 389 -10T276
46T184 140T122 278T96 461Q96 625 148 756T299 962T526 1038Q599 1038 658 1020T755 974T821 906T863 829T885 748T895 678T897 623V575ZM498 924Q449 924 412 903T351 840T310 752T279 639L717 647Q717 757 660 840T498 924ZM524 1483H540Q564 1483 592 1456T649
1388T706 1306T769 1231T837 1190Q837 1184 811 1171T761 1157Q720 1157 691 1163T639 1187T600 1223T559 1278Q542 1300 529 1346L516 1391L502 1346Q487 1300 471 1278Q432 1218 389 1188T270 1157Q247 1157 221 1170T194 1190Q234 1199 280 1247T360 1347T430
1441T491 1483H524Z" />
<glyph unicode="&#xeb;" glyph-name="edieresis" horiz-adv-x="1007" d="M897 575Q854 551 778 551L285 557Q287 526 287 475Q287 313 370 221T588 129Q677 129 765 177T907 309L911 292Q915 276 915 260Q915 184 856 117T705 11T516 -27Q449 -27 389 -10T276
46T184 140T122 278T96 461Q96 625 148 756T299 962T526 1038Q599 1038 658 1020T755 974T821 906T863 829T885 748T895 678T897 623V575ZM498 924Q449 924 412 903T351 840T310 752T279 639L717 647Q717 757 660 840T498 924ZM428 1313Q428 1266 398 1233T326
1200T254 1233T223 1313Q223 1359 254 1392T326 1425T397 1392T428 1313ZM805 1313Q805 1266 775 1233T703 1200T631 1232T600 1313Q600 1359 630 1392T703 1425Q744 1425 774 1392T805 1313Z" />
<glyph unicode="&#xec;" glyph-name="igrave" horiz-adv-x="573" d="M395 0H193V8L209 698Q211 765 202 815T178 889T148 927T122 944L111 946V983Q191 1034 293 1034Q360 1034 380 990T395 862L389 653Q383 444 383 154Q383 58 395 0ZM391 1483H268L348 1343Q455
1157 624 1157Q647 1157 673 1170T700 1190Q648 1206 609 1242T548 1319T506 1396T457 1458T391 1483Z" />
<glyph unicode="&#xed;" glyph-name="iacute" horiz-adv-x="573" d="M436 1483H559L479 1343Q372 1157 203 1157Q180 1157 154 1170T127 1190Q179 1206 218 1242T279 1319T321 1396T370 1458T436 1483ZM395 0H193V8L209 698Q211 765 202 815T178 889T148 927T122
944L111 946V983Q191 1034 293 1034Q360 1034 380 990T395 862L389 653Q383 444 383 154Q383 58 395 0Z" />
<glyph unicode="&#xee;" glyph-name="icircumflex" horiz-adv-x="573" d="M395 0H193V8L209 698Q211 765 202 815T178 889T148 927T122 944L111 946V983Q191 1034 293 1034Q360 1034 380 990T395 862L389 653Q383 444 383 154Q383 58 395 0ZM557 1483H573Q597
1483 625 1456T682 1388T739 1306T802 1231T870 1190Q870 1184 844 1171T794 1157Q753 1157 724 1163T672 1187T633 1223T592 1278Q575 1300 562 1346L549 1391L535 1346Q520 1300 504 1278Q465 1218 422 1188T303 1157Q280 1157 254 1170T227 1190Q267 1199 313
1247T393 1347T463 1441T524 1483H557Z" />
<glyph unicode="&#xef;" glyph-name="idieresis" horiz-adv-x="573" d="M395 0H193V8L209 698Q211 765 202 815T178 889T148 927T122 944L111 946V983Q191 1034 293 1034Q360 1034 380 990T395 862L389 653Q383 444 383 154Q383 58 395 0ZM458 1313Q458 1266 428
1233T356 1200T284 1233T253 1313Q253 1359 284 1392T356 1425T427 1392T458 1313ZM835 1313Q835 1266 805 1233T733 1200T661 1232T630 1313Q630 1359 660 1392T733 1425Q774 1425 804 1392T835 1313Z" />
<glyph unicode="&#xf1;" glyph-name="ntilde" horiz-adv-x="1202" d="M1038 0H838Q830 55 834 98L838 590Q840 742 804 808T672 877Q500 877 383 737Q383 371 387 154Q387 78 403 0H199V8L207 698Q208 765 198 815T173 889T142 927T115 944L104 946L102 983Q184
1034 285 1034Q320 1034 343 1021T376 984T389 929T389 862L379 805Q404 847 439 885T522 959T635 1016T772 1038Q876 1038 945 965T1018 795Q1019 775 1017 601T1018 252T1038 0ZM260 1241Q334 1296 389 1292Q423 1290 514 1259T674 1223Q773 1216 850 1257T946
1386Q860 1327 795 1331Q759 1335 665 1365T518 1399Q457 1403 405 1390T312 1338T260 1241Z" />
<glyph unicode="&#xf2;" glyph-name="ograve" horiz-adv-x="1132" d="M96 487Q96 471 97 448T108 372T133 271T182 166T259 69T374 1T532 -27Q641 -27 736 18T896 138T998 315T1036 526Q1036 652 1001 752T904 913T766 1006T602 1038Q457 1038 342 967T161 770T96
487ZM297 573Q297 621 305 670T331 766T376 851T441 911T528 934Q655 934 744 799T834 461Q834 290 763 182T588 74Q463 74 380 218T297 573ZM402 1483H279L359 1343Q466 1157 635 1157Q658 1157 684 1170T711 1190Q659 1206 620 1242T559 1319T517 1396T468 1458T402
1483Z" />
<glyph unicode="&#xf3;" glyph-name="oacute" horiz-adv-x="1132" d="M96 487Q96 471 97 448T108 372T133 271T182 166T259 69T374 1T532 -27Q641 -27 736 18T896 138T998 315T1036 526Q1036 652 1001 752T904 913T766 1006T602 1038Q457 1038 342 967T161 770T96
487ZM297 573Q297 621 305 670T331 766T376 851T441 911T528 934Q655 934 744 799T834 461Q834 290 763 182T588 74Q463 74 380 218T297 573ZM723 1483H845L766 1343Q657 1157 489 1157Q466 1157 440 1170T413 1190Q465 1206 504 1242T566 1319T608 1396T657 1458T723
1483Z" />
<glyph unicode="&#xf4;" glyph-name="ocircumflex" horiz-adv-x="1132" d="M96 487Q96 471 97 448T108 372T133 271T182 166T259 69T374 1T532 -27Q641 -27 736 18T896 138T998 315T1036 526Q1036 652 1001 752T904 913T766 1006T602 1038Q457 1038 342 967T161
770T96 487ZM297 573Q297 621 305 670T331 766T376 851T441 911T528 934Q655 934 744 799T834 461Q834 290 763 182T588 74Q463 74 380 218T297 573ZM574 1483H590Q614 1483 642 1456T699 1388T756 1306T819 1231T887 1190Q887 1184 861 1171T811 1157Q770 1157
741 1163T689 1187T650 1223T609 1278Q592 1300 579 1346L566 1391L552 1346Q537 1300 521 1278Q482 1218 439 1188T320 1157Q297 1157 271 1170T244 1190Q284 1199 330 1247T410 1347T480 1441T541 1483H574Z" />
<glyph unicode="&#xf5;" glyph-name="otilde" horiz-adv-x="1132" d="M96 487Q96 471 97 448T108 372T133 271T182 166T259 69T374 1T532 -27Q641 -27 736 18T896 138T998 315T1036 526Q1036 652 1001 752T904 913T766 1006T602 1038Q457 1038 342 967T161 770T96
487ZM297 573Q297 621 305 670T331 766T376 851T441 911T528 934Q655 934 744 799T834 461Q834 290 763 182T588 74Q463 74 380 218T297 573ZM223 1241Q297 1296 352 1292Q386 1290 477 1259T637 1223Q736 1216 813 1257T909 1386Q823 1327 758 1331Q722 1335 628
1365T481 1399Q420 1403 368 1390T275 1338T223 1241Z" />
<glyph unicode="&#xf6;" glyph-name="odieresis" horiz-adv-x="1132" d="M96 487Q96 471 97 448T108 372T133 271T182 166T259 69T374 1T532 -27Q641 -27 736 18T896 138T998 315T1036 526Q1036 652 1001 752T904 913T766 1006T602 1038Q457 1038 342 967T161
770T96 487ZM297 573Q297 621 305 670T331 766T376 851T441 911T528 934Q655 934 744 799T834 461Q834 290 763 182T588 74Q463 74 380 218T297 573ZM461 1313Q461 1266 431 1233T359 1200T287 1233T256 1313Q256 1359 287 1392T359 1425T430 1392T461 1313ZM838
1313Q838 1266 808 1233T736 1200T664 1232T633 1313Q633 1359 663 1392T736 1425Q777 1425 807 1392T838 1313Z" />
<glyph unicode="&#xf7;" glyph-name="divide" horiz-adv-x="1001" d="M596 229Q596 180 563 147T481 113Q432 113 399 146T365 229Q365 277 398 310T481 344Q529 344 562 311T596 229ZM596 819Q596 770 563 736T481 702Q432 702 399 736T365 819Q365 867 398 900T481
934Q529 934 562 901T596 819ZM180 461V592Q180 584 524 584Q578 584 626 584T712 585T774 590T809 600Q804 569 792 546T762 509T722 484T674 469T620 463T564 461T506 461Q479 461 355 462T217 463Q188 463 180 461Z" />
<glyph unicode="&#xf8;" glyph-name="oslash" horiz-adv-x="1132" d="M129 2L223 104Q338 -27 532 -27Q641 -27 736 18T896 138T998 315T1036 526Q1036 716 956 844L975 860Q1071 944 1071 977Q1071 993 1057 1007T1008 1042L901 915Q781 1038 602 1038Q457 1038
342 967T161 770T96 487Q96 462 98 428T120 318T172 182L59 74L129 2ZM588 74Q520 74 462 119T365 246L799 684Q834 579 834 461Q834 290 763 182T588 74ZM297 573Q297 621 305 670T331 766T376 851T441 911T528 934Q597 934 657 891T760 772L328 338Q297 441 297
573Z" />
<glyph unicode="&#xf9;" glyph-name="ugrave" horiz-adv-x="1204" d="M193 217L197 494Q200 647 195 726T166 874Q156 903 137 921T104 944L90 948V983Q120 1003 169 1018T260 1034Q326 1034 353 1001T381 901T381 733L379 414Q377 261 410 199T539 135Q706 135
821 270Q827 522 827 680Q827 747 819 804T801 883Q786 915 769 930T725 952V987L748 998Q771 1010 810 1022T883 1034Q968 1034 990 997T1012 825V309Q1012 272 1015 241T1023 186T1037 144T1053 113T1073 92T1094 78T1116 70T1138 65T1160 63T1180 61V25Q1160
11 1103 -8T997 -27Q958 -27 929 -13T881 22T852 75T836 137T829 203Q803 161 768 123T685 50T573 -6T436 -27Q332 -27 264 46T193 217ZM424 1483H301L381 1343Q488 1157 657 1157Q680 1157 706 1170T733 1190Q681 1206 642 1242T581 1319T539 1396T490 1458T424
1483Z" />
<glyph unicode="&#xfa;" glyph-name="uacute" horiz-adv-x="1204" d="M193 217L197 494Q200 647 195 726T166 874Q156 903 137 921T104 944L90 948V983Q120 1003 169 1018T260 1034Q326 1034 353 1001T381 901T381 733L379 414Q377 261 410 199T539 135Q706 135
821 270Q827 522 827 680Q827 747 819 804T801 883Q786 915 769 930T725 952V987L748 998Q771 1010 810 1022T883 1034Q968 1034 990 997T1012 825V309Q1012 272 1015 241T1023 186T1037 144T1053 113T1073 92T1094 78T1116 70T1138 65T1160 63T1180 61V25Q1160
11 1103 -8T997 -27Q958 -27 929 -13T881 22T852 75T836 137T829 203Q803 161 768 123T685 50T573 -6T436 -27Q332 -27 264 46T193 217ZM746 1483H868L789 1343Q680 1157 512 1157Q489 1157 463 1170T436 1190Q488 1206 527 1242T589 1319T631 1396T680 1458T746
1483Z" />
<glyph unicode="&#xfb;" glyph-name="ucircumflex" horiz-adv-x="1204" d="M193 217L197 494Q200 647 195 726T166 874Q156 903 137 921T104 944L90 948V983Q120 1003 169 1018T260 1034Q326 1034 353 1001T381 901T381 733L379 414Q377 261 410 199T539 135Q706
135 821 270Q827 522 827 680Q827 747 819 804T801 883Q786 915 769 930T725 952V987L748 998Q771 1010 810 1022T883 1034Q968 1034 990 997T1012 825V309Q1012 272 1015 241T1023 186T1037 144T1053 113T1073 92T1094 78T1116 70T1138 65T1160 63T1180 61V25Q1160
11 1103 -8T997 -27Q958 -27 929 -13T881 22T852 75T836 137T829 203Q803 161 768 123T685 50T573 -6T436 -27Q332 -27 264 46T193 217ZM582 1483H598Q622 1483 650 1456T707 1388T764 1306T827 1231T895 1190Q895 1184 869 1171T819 1157Q778 1157 749 1163T697
1187T658 1223T617 1278Q600 1300 587 1346L574 1391L560 1346Q545 1300 529 1278Q490 1218 447 1188T328 1157Q305 1157 279 1170T252 1190Q292 1199 338 1247T418 1347T488 1441T549 1483H582Z" />
<glyph unicode="&#xfc;" glyph-name="udieresis" horiz-adv-x="1204" d="M193 217L197 494Q200 647 195 726T166 874Q156 903 137 921T104 944L90 948V983Q120 1003 169 1018T260 1034Q326 1034 353 1001T381 901T381 733L379 414Q377 261 410 199T539 135Q706
135 821 270Q827 522 827 680Q827 747 819 804T801 883Q786 915 769 930T725 952V987L748 998Q771 1010 810 1022T883 1034Q968 1034 990 997T1012 825V309Q1012 272 1015 241T1023 186T1037 144T1053 113T1073 92T1094 78T1116 70T1138 65T1160 63T1180 61V25Q1160
11 1103 -8T997 -27Q958 -27 929 -13T881 22T852 75T836 137T829 203Q803 161 768 123T685 50T573 -6T436 -27Q332 -27 264 46T193 217ZM497 1313Q497 1266 467 1233T395 1200T323 1233T292 1313Q292 1359 323 1392T395 1425T466 1392T497 1313ZM874 1313Q874 1266
844 1233T772 1200T700 1232T669 1313Q669 1359 699 1392T772 1425Q813 1425 843 1392T874 1313Z" />
<glyph unicode="&#xff;" glyph-name="ydieresis" horiz-adv-x="929" d="M326 899Q348 796 520 309Q548 232 575 176Q585 222 618 313L780 739Q809 807 809 868Q809 926 774 946V983Q796 1003 838 1018T922 1034Q991 1034 991 965Q991 939 982 905T962 844T940
791L522 -213Q511 -241 500 -268T477 -321T454 -369T430 -413T403 -452T373 -485T338 -512T298 -532T252 -544T197 -549Q111 -549 68 -500T25 -373Q25 -344 27 -330Q37 -355 81 -370T172 -385Q336 -385 383 -270L477 -45Q484 -27 494 -12L504 2Q465 13 431 44T387
111L203 688Q183 752 157 801T108 876T63 919T30 940T12 946L10 983Q35 1002 87 1018T180 1034Q248 1034 278 1003T326 899ZM463 1313Q463 1265 433 1233T360 1200T288 1233T258 1313Q258 1359 288 1392T360 1425Q402 1425 432 1392T463 1313ZM840 1313Q840 1265
810 1233T737 1200T665 1233T635 1313Q635 1359 665 1392T737 1425Q779 1425 809 1392T840 1313Z" />
<glyph unicode="&#x131;" glyph-name="dotlessi" horiz-adv-x="573" d="M395 0H193V8L209 698Q211 765 202 815T178 889T148 927T122 944L111 946V983Q191 1034 293 1034Q360 1034 380 990T395 862L389 653Q383 444 383 154Q383 58 395 0Z" />
<glyph unicode="&#x141;" glyph-name="Lslash" horiz-adv-x="1024" />
<glyph unicode="&#x152;" glyph-name="OE" horiz-adv-x="1730" d="M825 109H930V139V1090Q930 1184 915 1239H698Q630 1239 564 1203T446 1104T360 945T326 739Q322 564 389 419T572 191T825 109ZM1430 0H731Q632 0 541 24T369 99T229 225T135 406T102 641Q108
842 182 1001T397 1254T723 1348H1202L1552 1354Q1575 1330 1586 1279T1594 1183T1579 1126H1540Q1531 1173 1471 1204T1325 1239L1151 1245Q1137 1002 1137 745H1458Q1486 745 1505 751T1529 765L1534 772Q1538 772 1538 731Q1538 707 1531 689T1515 659T1487
639T1457 626T1421 620T1387 618T1354 618Q1352 618 1304 619T1213 621T1135 621Q1133 419 1141 141Q1141 137 1145 129H1534Q1562 129 1581 135T1605 149L1610 156Q1614 156 1614 115Q1614 82 1601 59T1571 25T1525 8T1478 1T1430 0Z" />
<glyph unicode="&#x153;" glyph-name="oe" horiz-adv-x="1720" d="M1610 575Q1567 551 1491 551L993 557Q998 364 1074 247T1300 129Q1389 129 1477 177T1620 309L1624 292Q1628 276 1628 260Q1628 184 1569 117T1418 11T1229 -27Q1160 -27 1096 -8T975 56T893
164Q845 73 743 22T524 -29Q442 -29 369 0T235 89T137 247T98 473Q95 633 159 762T341 965T604 1038Q706 1038 791 992T926 852Q972 941 1055 989T1239 1038Q1312 1038 1371 1020T1467 974T1533 906T1575 829T1598 749T1608 678T1610 623V575ZM813 461Q810 668
732 801T528 934Q426 934 360 833T297 573Q299 434 335 321T437 141T588 74Q688 74 752 181T813 461ZM1210 924Q1116 924 1064 849T985 639L1430 647Q1430 698 1417 746T1378 834T1309 899T1210 924Z" />
<glyph unicode="&#x178;" glyph-name="Ydieresis" horiz-adv-x="1005" d="M412 1599Q412 1552 382 1520T309 1487T237 1519T207 1599Q207 1645 237 1678T309 1712Q351 1712 381 1679T412 1599ZM891 1599Q891 1552 861 1520T788 1487T716 1519T686 1599Q686 1645
716 1678T788 1712Q830 1712 860 1679T891 1599ZM674 0H451V33Q451 117 452 233T453 383Q453 582 451 616Q436 631 408 680L211 1024Q184 1071 153 1129T110 1208T80 1256T47 1293T10 1313L25 1348Q84 1376 168 1376Q255 1376 289 1339Q335 1226 433 1036T586 758L596
784Q607 810 621 834L791 1135Q843 1231 793 1313L807 1348Q868 1376 922 1376Q972 1376 1030 1348Q1030 1312 990 1219T911 1067L659 662Q659 626 658 520T657 352Q657 113 674 0Z" />
<glyph unicode="&#x192;" glyph-name="florin" horiz-adv-x="989" d="M465 1126Q436 1013 336 1004L315 942L324 939Q333 936 346 928T372 905T394 865T403 805Q391 523 385 446Q323 -349 60 -408Q39 -412 18 -412Q-34 -412 -67 -381T-100 -311Q-100 -303 -96
-287Q-122 -281 -141 -281Q-186 -281 -219 -303T-252 -362Q-252 -431 -180 -472T-18 -514Q64 -514 134 -484T258 -403T357 -275T434 -116T491 71T533 272T561 483T579 689T590 887Q597 887 655 886T729 885Q763 885 789 890T844 909T887 954T903 1032L898 1026Q894
1020 876 1014T829 1008H604Q610 1020 614 1055L637 1217Q663 1419 813 1419Q853 1419 876 1395T901 1335Q926 1323 956 1323Q998 1323 1028 1350T1059 1425Q1059 1489 1004 1517T877 1546Q834 1546 791 1535T698 1493T607 1417T527 1296T465 1126Z" />
<glyph unicode="&#x2c6;" glyph-name="circumflex" horiz-adv-x="823" d="M418 1483H434Q458 1483 486 1456T543 1388T600 1306T663 1231T731 1190Q731 1184 705 1171T655 1157Q614 1157 585 1163T533 1187T494 1223T453 1278Q436 1300 423 1346L410 1391L396
1346Q381 1300 365 1278Q326 1218 283 1188T164 1157Q141 1157 115 1170T88 1190Q128 1199 174 1247T254 1347T324 1441T385 1483H418Z" />
<glyph unicode="&#x2c7;" glyph-name="caron" horiz-adv-x="823" />
<glyph unicode="&#x2d8;" glyph-name="breve" horiz-adv-x="823" d="M416 1247Q448 1247 479 1266T533 1316T578 1384T612 1455T635 1520Q664 1445 664 1380Q664 1269 589 1207T410 1145Q310 1145 237 1204T164 1370Q164 1438 197 1518Q208 1478 227 1436T273
1349T338 1276T416 1247Z" />
<glyph unicode="&#x2d9;" glyph-name="dotaccent" horiz-adv-x="380" d="M301 1282Q301 1236 269 1204T193 1171Q147 1171 115 1203T82 1282Q82 1327 114 1359T193 1391Q237 1391 269 1359T301 1282Z" />
<glyph unicode="&#x2da;" glyph-name="ring" horiz-adv-x="1064" d="M543 1511Q458 1511 401 1460T344 1327Q344 1247 390 1202T500 1157Q585 1157 643 1210T702 1343Q702 1420 655 1465T543 1511ZM526 1214Q485 1214 456 1250T426 1350Q426 1403 452 1428T516
1454Q559 1454 588 1421T618 1323Q618 1268 590 1241T526 1214Z" />
<glyph unicode="&#x2db;" glyph-name="ogonek" horiz-adv-x="565" />
<glyph unicode="&#x2dc;" glyph-name="tilde" horiz-adv-x="778" d="M51 1241Q125 1296 180 1292Q214 1290 305 1259T465 1223Q564 1216 641 1257T737 1386Q651 1327 586 1331Q550 1335 456 1365T309 1399Q248 1403 196 1390T103 1338T51 1241Z" />
<glyph unicode="&#x2dd;" glyph-name="hungarumlaut" horiz-adv-x="1198" />
<glyph unicode="&#x394;" glyph-name="increment" horiz-adv-x="1370" />
<glyph unicode="&#x3a9;" glyph-name="Omega" horiz-adv-x="753" />
<glyph unicode="&#x3bc;" glyph-name="mu" horiz-adv-x="1062" />
<glyph unicode="&#x3c0;" glyph-name="pi" horiz-adv-x="868" />
<glyph unicode="&#x2013;" glyph-name="endash" horiz-adv-x="925" d="M59 438V569Q59 561 588 561Q642 561 690 561T775 562T837 567T872 578Q867 547 855 524T825 486T785 461T737 447T683 440T627 438T569 438Q542 438 326 439T96 440Q68 440 59 438Z" />
<glyph unicode="&#x2014;" glyph-name="emdash" horiz-adv-x="1390" d="M53 438V569Q53 561 1053 561Q1107 561 1155 561T1240 562T1302 567T1337 578Q1332 547 1320 524T1290 486T1250 461T1202 447T1148 440T1092 438T1034 438Q1007 438 555 439T90 440Q61 440 53 438Z" />
<glyph unicode="&#x2018;" glyph-name="quoteleft" horiz-adv-x="452" d="M342 1542L379 1493Q244 1364 244 1268Q244 1216 260 1197T303 1178Q309 1129 277 1092T199 1055Q141 1055 112 1089T82 1186Q82 1266 150 1364T342 1542Z" />
<glyph unicode="&#x2019;" glyph-name="quoteright" horiz-adv-x="452" d="M106 1055L70 1104Q205 1233 205 1329Q205 1381 189 1400T145 1419Q139 1468 171 1505T250 1542Q308 1542 337 1508T367 1411Q367 1331 299 1233T106 1055Z" />
<glyph unicode="&#x201a;" glyph-name="quotesinglbase" horiz-adv-x="452" d="M106 -295L70 -246Q205 -117 205 -20Q205 70 145 70Q139 118 171 155T250 193Q308 193 337 159T367 61Q367 -19 299 -117T106 -295Z" />
<glyph unicode="&#x201c;" glyph-name="quotedblleft" horiz-adv-x="813" d="M702 1542L739 1493Q604 1364 604 1268Q604 1216 620 1197T664 1178Q670 1129 637 1092T559 1055Q501 1055 472 1089T442 1186Q442 1266 510 1364T702 1542ZM344 1542L381 1493Q246
1364 246 1268Q246 1216 262 1197T305 1178Q311 1129 279 1092T201 1055Q143 1055 114 1089T84 1186Q84 1266 152 1364T344 1542Z" />
<glyph unicode="&#x201d;" glyph-name="quotedblright" horiz-adv-x="813" d="M106 1055L70 1104Q205 1233 205 1329Q205 1381 189 1400T145 1419Q139 1468 171 1505T250 1542Q308 1542 337 1508T367 1411Q367 1331 299 1233T106 1055ZM465 1055L428 1104Q563
1233 563 1329Q563 1381 547 1400T504 1419Q498 1468 530 1505T608 1542Q666 1542 695 1508T725 1411Q725 1331 657 1233T465 1055Z" />
<glyph unicode="&#x201e;" glyph-name="quotedblbase" horiz-adv-x="813" d="M111 -295L74 -246Q209 -117 209 -20Q209 70 150 70Q143 118 176 155T254 193Q312 193 341 159T371 61Q371 -19 303 -117T111 -295ZM469 -295L432 -246Q567 -117 567 -20Q567 70 508
70Q502 118 534 155T612 193Q670 193 699 159T729 61Q729 -19 661 -117T469 -295Z" />
<glyph unicode="&#x2020;" glyph-name="dagger" horiz-adv-x="997" d="M543 -166Q547 -244 540 -309T519 -412T493 -475T469 -510L459 -520L444 -498Q429 -476 411 -437T379 -326T367 -172Q381 220 381 508Q381 689 377 883Q279 885 160 885Q131 885 123 883V1014Q123
1006 375 1006Q373 1064 365 1171T354 1315Q402 1325 430 1325Q553 1325 553 1161Q553 1159 551 1108T547 1006H590Q644 1006 692 1006T777 1007T839 1012T874 1022Q869 991 857 968T827 930T787 905T739 891T686 885T629 883T571 883H543Q532 626 532 397Q530
219 543 -166Z" />
<glyph unicode="&#x2021;" glyph-name="daggerdbl" horiz-adv-x="1017" d="M123 -2V129Q123 121 395 121Q397 127 397 139Q401 381 401 508Q401 689 397 883Q299 885 180 885Q152 885 143 883V1014Q143 1006 395 1006Q395 1010 375 1315Q420 1325 451 1325Q573
1325 573 1161Q573 1159 571 1108T567 1006H610Q664 1006 712 1006T798 1007T860 1012T895 1022Q890 991 878 968T848 930T808 905T760 891T706 885T650 883T592 883H563Q553 650 553 397Q550 247 553 121H590Q644 121 692 121T777 122T839 127T874 137Q869 106
857 83T827 46T787 21T739 6T686 0T629 -2T571 -2H557Q560 -100 563 -166Q567 -244 560 -309T540 -412T513 -475T489 -510L479 -520L464 -498Q449 -476 432 -437T400 -326T387 -172Q388 -149 389 -102T391 -29Q393 -18 393 0H160Q131 0 123 -2Z" />
<glyph unicode="&#x2022;" glyph-name="bullet" horiz-adv-x="868" d="M432 758Q536 758 611 684T686 506Q686 401 612 327T432 252Q326 252 252 326T178 506Q178 610 252 684T432 758Z" />
<glyph unicode="&#x2026;" glyph-name="ellipsis" horiz-adv-x="1357" d="M377 84Q377 38 345 6T268 -27Q222 -27 190 5T158 84Q158 128 190 160T268 193Q313 193 345 161T377 84ZM797 84Q797 38 765 6T688 -27Q642 -27 610 5T578 84Q578 128 610 160T688 193Q733
193 765 161T797 84ZM1206 84Q1206 38 1174 6T1098 -27Q1052 -27 1020 5T987 84Q987 129 1019 161T1098 193Q1142 193 1174 161T1206 84Z" />
<glyph unicode="&#x2030;" glyph-name="perthousand" horiz-adv-x="2375" d="M432 0H287Q813 751 998 1026T1188 1350Q1228 1380 1270 1380Q1331 1380 1331 1339Q1331 1321 1319 1295T1292 1248T1259 1202T1235 1169Q1233 1166 1050 907T679 375T432 0ZM1249 662Q1094
662 998 563T901 307Q901 146 977 62T1171 -23Q1327 -23 1426 80T1528 334Q1528 490 1450 576T1249 662ZM1221 59Q1135 59 1087 138T1038 350Q1038 456 1082 517T1200 578Q1289 578 1342 502T1395 297Q1395 190 1345 125T1221 59ZM481 1378Q326 1378 230 1280T133
1024Q133 863 209 779T403 694Q559 694 658 797T760 1051Q760 1207 682 1292T481 1378ZM453 776Q367 776 319 855T270 1067Q270 1172 314 1233T432 1294Q521 1294 574 1219T627 1014Q627 906 577 841T453 776ZM1970 662Q1815 662 1719 563T1622 307Q1622 146 1698
62T1892 -23Q2048 -23 2147 80T2249 334Q2249 490 2171 576T1970 662ZM1942 59Q1856 59 1808 138T1759 350Q1759 456 1803 517T1921 578Q2010 578 2063 502T2116 297Q2116 190 2066 125T1942 59Z" />
<glyph unicode="&#x2039;" glyph-name="guilsinglleft" horiz-adv-x="755" d="M80 506L121 547L389 866Q435 922 479 952T557 984T615 980T659 956Q641 950 617 929T578 890L563 872L336 569Q320 548 294 527L268 506L294 485Q320 464 336 442L563 139L578 122Q593
104 617 83T659 55Q639 39 615 32T557 27T479 59T389 145L121 465L80 506Z" />
<glyph unicode="&#x203a;" glyph-name="guilsinglright" horiz-adv-x="755" d="M662 506L621 547L352 866Q306 922 262 952T184 984T126 980T82 956Q100 950 124 929T163 890L178 872L406 569Q421 548 447 527L473 506L447 485Q421 464 406 442L178 139L163 122Q148
104 124 83T82 55Q102 39 126 32T184 27T262 59T352 145L621 465L662 506Z" />
<glyph unicode="&#x2044;" glyph-name="fraction" horiz-adv-x="1044" d="M139 0H-6Q520 751 705 1026T895 1350Q935 1380 977 1380Q1038 1380 1038 1339Q1038 1307 999 1248T942 1169Q940 1166 757 907T386 375T139 0Z" />
<glyph unicode="&#x20ac;" glyph-name="Euro" horiz-adv-x="1183" d="M25 731L49 862Q49 856 176 856Q232 1092 404 1232T817 1372Q1006 1372 1089 1304T1098 1130Q1096 1154 1060 1181T951 1228T793 1249Q619 1249 496 1137T336 854H721Q775 854 823 854T908
855T971 860T1006 870Q1001 839 989 816T959 779T918 754T870 739T817 733T760 731T702 731H324Q324 660 334 567H598Q652 567 700 567T785 568T848 573T883 584Q878 553 866 530T836 492T796 467T748 453T694 446T638 444T580 444H358Q463 90 819 90Q849 90 893
98T1002 136T1108 209Q1111 91 1016 31T756 -29Q520 -29 370 98T172 446H66Q37 446 29 444L49 575Q77 571 154 571Q152 596 152 645Q152 705 156 733H61Q33 733 25 731Z" />
<glyph unicode="&#x2122;" glyph-name="trademark" horiz-adv-x="1642" d="M1573 686H1423Q1416 719 1419 881T1421 1077Q1424 1170 1403 1209T1325 1249Q1234 1249 1161 1184Q1161 1171 1159 1098T1157 975Q1157 767 1176 686H1026Q1022 745 1022 808T1022 955T1024
1077Q1024 1171 1004 1210T928 1249Q823 1249 752 1165Q752 932 756 795Q756 773 768 686H612L621 1145Q622 1194 611 1227T587 1273T562 1288L551 1292V1333Q614 1370 680 1370Q730 1370 745 1340T756 1253Q851 1374 991 1374Q1052 1374 1095 1340T1155 1253Q1246
1374 1391 1374Q1462 1374 1509 1325T1559 1208V1120Q1559 1098 1558 1040T1556 948Q1556 755 1573 686ZM291 1462L274 1354H403Q430 1354 448 1360T472 1374L477 1380Q494 1326 464 1290T371 1253Q366 1253 325 1254T274 1255Q274 1189 273 1103T272 965Q272 936
272 927T273 894T277 863T285 839T298 818T318 806T346 797Q384 793 431 809T489 842Q503 777 457 723T324 668Q214 668 176 721T137 885Q137 929 141 1022T145 1159Q145 1237 133 1251Q121 1267 106 1277T84 1289T72 1292L76 1354Q145 1354 209 1462H291Z" />
<glyph unicode="&#x2202;" glyph-name="partialdiff" horiz-adv-x="24" d="M25 1421V0H0V1421H25Z" />
<glyph unicode="&#x220f;" glyph-name="product" horiz-adv-x="868" />
<glyph unicode="&#x2211;" glyph-name="summation" horiz-adv-x="970" />
<glyph unicode="&#x221a;" glyph-name="radical" horiz-adv-x="460" />
<glyph unicode="&#x221e;" glyph-name="infinity" horiz-adv-x="1267" />
<glyph unicode="&#x222b;" glyph-name="integral'" horiz-adv-x="675" />
<glyph unicode="&#x2248;" glyph-name="approxequal" horiz-adv-x="1370" />
<glyph unicode="&#x2260;" glyph-name="notequal" horiz-adv-x="983" />
<glyph unicode="&#x2264;" glyph-name="lessequal" horiz-adv-x="460" />
<glyph unicode="&#x2265;" glyph-name="greaterequal" horiz-adv-x="460" />
<glyph unicode="&#x25ca;" glyph-name="lozenge" horiz-adv-x="974" />
<glyph unicode="&#xf8ff;" glyph-name="" horiz-adv-x="1415" d="M145 0V1008H1274V0H145ZM500 399L295 592V123L1118 127V592L911 399L707 598L500 399ZM473 774Q473 819 441 851T365 883Q319 883 287 851T254 774Q254 728 286 696T365 664Q409 664 441 696T473
774ZM821 774Q821 819 789 851T713 883Q667 883 635 851T602 774Q602 728 634 696T713 664Q757 664 789 696T821 774ZM1174 774Q1174 819 1142 851T1065 883Q1019 883 987 851T954 774Q954 728 986 696T1065 664Q1110 664 1142 696T1174 774Z" />
<glyph unicode="&#xfb01;" glyph-name="fi" horiz-adv-x="1214" d="M1061 0H858V8L874 698Q876 755 870 799T853 869T829 912T804 935T784 944L776 946V983Q858 1034 958 1034Q994 1034 1017 1021T1049 984T1061 929T1061 862L1055 653Q1049 444 1049 154Q1049
58 1061 0ZM406 0H197V29Q197 32 199 129T203 354T205 559Q205 830 178 868Q158 897 136 915T102 938L90 942L100 1004L124 1009Q148 1014 173 1038T201 1100Q205 1156 220 1211T270 1328T358 1436T497 1513T692 1544Q758 1544 830 1522T958 1450T1014 1337Q1014
1291 993 1263T940 1227T876 1227T819 1253L822 1264Q824 1276 823 1288Q820 1338 762 1382T614 1427Q505 1427 442 1356T379 1180Q379 1036 373 1008H526Q554 1008 572 1014T594 1026L598 1032Q602 1032 602 993Q602 969 595 951T574 921T544 901T508 889T470
883T432 882T399 883T373 885V735Q373 145 406 0Z" />
<glyph unicode="&#xfb02;" glyph-name="fl" horiz-adv-x="1245" d="M1079 0H874V31Q878 412 876 841L874 1270Q874 1301 870 1321Q832 1359 759 1393T616 1427Q507 1427 444 1356T381 1180Q381 1036 375 1008H573Q601 1008 619 1014T641 1026L645 1032Q649 1032
649 993Q649 959 632 936T591 902T532 886T471 881T414 883T375 885V735Q375 145 408 0H199V29Q199 32 201 129T205 354T207 559Q207 830 180 868Q160 897 138 915T104 938L92 942L102 1004L126 1009Q150 1014 175 1038T203 1100Q207 1156 222 1211T272 1328T360
1436T499 1513T694 1544Q869 1544 1020 1473Q1041 1463 1053 1450T1072 1425T1079 1387T1079 1344T1074 1285T1069 1214Q1057 964 1057 624T1067 86Q1068 61 1079 0Z" />
<glyph unicode="&#xfb03;" glyph-name="ffi" horiz-adv-x="1916" d="M1083 0H874V29Q874 32 876 129T880 354T883 559Q883 830 856 868Q836 897 814 915T780 938L768 942L778 1004L802 1009Q825 1014 850 1038T879 1100Q886 1187 915 1266Q883 1318 805 1350T639
1382Q531 1382 456 1331T381 1180Q381 1036 375 1008H508Q535 1008 553 1014T576 1026L580 1032Q584 1032 584 993Q584 956 569 933T526 901T473 889T417 886T375 885V735Q375 145 408 0H199V29Q199 32 201 129T205 354T207 559Q207 830 180 868Q160 897 138 915T104
938L92 942L102 1004L126 1009Q150 1014 175 1038T203 1100Q207 1157 219 1207T262 1312T339 1407T462 1471T639 1497Q739 1497 827 1464T969 1362Q1098 1544 1370 1544Q1436 1544 1508 1522T1636 1450T1692 1337Q1692 1280 1661 1252T1585 1223Q1535 1223 1497
1253Q1501 1253 1501 1280Q1501 1331 1443 1379T1292 1427Q1183 1427 1120 1356T1057 1180Q1057 1036 1051 1008H1204Q1232 1008 1250 1014T1272 1026L1276 1032Q1280 1032 1280 993Q1280 883 1116 883Q1102 883 1079 884T1051 885Q1051 141 1083 0ZM1739 0H1536L1552
698Q1552 765 1542 815T1520 889T1491 927T1467 943T1454 946V983Q1536 1034 1636 1034Q1695 1034 1718 999T1741 901Q1741 890 1741 887T1739 884T1737 874T1734 842T1731 769T1728 643T1727 442T1726 154Q1726 63 1739 0Z" />
<glyph unicode="&#xfb06;" glyph-name="st" horiz-adv-x="1624" d="M944 946L954 1008Q964 1008 975 1011T1013 1025T1072 1070T1137 1153Q1186 1231 1186 1300Q1186 1377 1128 1426T965 1475Q825 1475 739 1394T653 1159Q653 1093 680 994T707 844Q707 796 682
760L645 768Q624 833 583 873T502 927T418 940Q339 940 293 903T246 811Q246 772 269 740T329 684T413 637T511 593T608 542T693 479T753 396T776 285Q776 147 675 60T410 -27Q291 -27 195 36T98 184Q98 221 119 256Q131 198 227 145T412 92Q464 92 506 105T578
152T608 238Q608 274 580 305T506 361T405 411T295 466T195 533T121 621T92 737Q92 861 191 949T434 1038Q540 1038 584 1008Q561 1072 561 1145Q561 1255 619 1346T769 1486T963 1536Q1108 1536 1210 1461T1313 1255Q1313 1141 1227 1008H1477Q1504 1008 1522
1014T1544 1026L1548 1032Q1552 1032 1552 993Q1552 942 1507 913T1395 883Q1377 883 1327 885T1257 887Q1235 887 1229 885L1227 365Q1227 309 1232 273T1253 204T1302 155T1389 139Q1449 139 1510 159T1579 197Q1591 178 1591 154Q1591 89 1510 31T1321 -27Q1236
-27 1181 -6T1097 62T1058 164T1047 305Q1047 360 1053 507T1059 719Q1059 849 1038 877Q1027 892 1015 904T993 924T973 936T957 943T947 946H944Z" />
</font>
</defs>
</svg>
